<svg width="1010" height="1312" viewBox="0 0 1010 1312" fill="none" xmlns="http://www.w3.org/2000/svg">
<mask id="mask0_5_279" style="mask-type:luminance" maskUnits="userSpaceOnUse" x="900" y="15" width="105" height="516">
<path d="M900.471 15.6143H1004.57V530.896H900.471V15.6143Z" fill="white"/>
</mask>
<g mask="url(#mask0_5_279)">
<mask id="mask1_5_279" style="mask-type:luminance" maskUnits="userSpaceOnUse" x="2" y="1" width="1007" height="1314">
<path d="M2.2168 6.74986L1001.42 1.66699L1008.07 1309.16L8.86541 1314.25L2.2168 6.74986Z" fill="white"/>
</mask>
<g mask="url(#mask1_5_279)">
<mask id="mask2_5_279" style="mask-type:luminance" maskUnits="userSpaceOnUse" x="2" y="1" width="1007" height="1314">
<path d="M2.2168 6.74986L1001.42 1.66699L1008.07 1309.16L8.86541 1314.25L2.2168 6.74986Z" fill="white"/>
</mask>
<g mask="url(#mask2_5_279)">
<path d="M973.118 527.764C975.476 525.02 978.038 522.072 980.783 518.859C984.524 519.774 988.733 519.022 992.067 514.874C995.585 510.401 995.768 505.054 994.914 499.687C994.385 496.637 995.016 494.624 996.947 492.306C1003.8 484.438 1004.49 476.549 999.59 467.197L995.748 460.772L995.951 460.406L995.748 460.04L999.529 453.595C1004.33 444.202 1003.56 436.313 996.622 428.465C994.67 426.188 994.019 424.155 994.528 421.166C995.3 415.758 995.077 410.452 991.498 405.979C988.143 401.892 983.914 401.16 980.193 402.116C977.937 399.513 975.903 397.216 973.89 394.959C975.883 392.641 977.876 390.324 980.132 387.721C983.853 388.616 988.062 387.884 991.396 383.716C994.914 379.243 995.097 373.896 994.263 368.488C993.714 365.499 994.345 363.486 996.276 361.148C1003.13 353.239 1003.82 345.371 998.919 336.059L995.097 329.634L995.3 329.268L995.077 328.861L998.858 322.437C1003.66 313.064 1002.88 305.155 995.951 297.327C993.999 295.05 993.348 293.037 993.857 290.028C994.629 284.64 994.426 279.293 990.848 274.841C987.472 270.734 983.243 270.022 979.522 270.978C977.266 268.355 975.232 266.057 973.22 263.801C975.212 261.503 977.205 259.165 979.461 256.563C983.182 257.457 987.391 256.725 990.726 252.557C994.243 248.064 994.426 242.737 993.592 237.349C993.064 234.34 993.694 232.328 995.605 229.989C1002.46 222.08 1003.17 214.253 998.269 204.88L994.426 198.476L994.629 198.11L994.426 197.703L998.187 191.299C1002.99 181.865 1002.21 174.037 995.28 166.21C993.328 163.912 992.698 161.879 993.186 158.87C993.979 153.482 993.755 148.155 990.177 143.703C986.801 139.596 982.593 138.884 978.872 139.799C976.595 137.217 974.582 134.919 972.549 132.663C974.561 130.324 976.554 127.986 978.791 125.425C982.511 126.299 986.72 125.587 990.055 121.419C993.592 116.926 993.755 111.579 992.921 106.211C992.433 103.243 993.064 101.393 994.629 97.7128C1001.05 86.2661 998.879 72.6644 988.672 62.214L981.007 55.9112L980.905 55.3419L980.519 54.9963C980.193 51.7839 979.685 48.4699 978.486 45.3185C974.195 31.4321 963.196 23.1978 950.163 23.4215C946.3 23.5435 943.677 22.7506 940.159 20.3718C933.795 16.4478 926.008 14.8416 919.624 16.7121C913.463 19.3349 912.284 23.5638 912.874 27.2641C908.787 29.6633 905.493 31.9404 902.606 34.0752L902.769 69.9603C902.24 70.2449 920.722 69.7976 929.953 85.0666C932.149 88.5433 933.409 92.3249 934.405 95.9236C934.466 97.8347 934.629 99.6239 934.995 101.352C935.015 104.646 935.076 107.797 935.158 110.664C935.219 122.964 935.259 131.199 935.259 131.199L935.28 134.472L935.93 262.316V265.651L936.581 393.495L936.601 396.809L937.272 527.947L973.118 527.764ZM968.543 47.5956C960.41 44.9729 960.105 44.2613 954.839 32.9773C963.826 34.1768 968.99 39.463 968.543 47.5956ZM955.165 65.4467C951.423 73.5386 950.407 72.6237 943.392 69.513C943.169 69.4113 943.067 69.1267 943.169 69.3097C944.572 63.6575 946.117 57.6597 944.572 52.1092C942.62 41.6792 929.932 40.073 925.032 47.4533L923.385 49.8931C917.387 43.4277 916.574 33.2416 927.411 30.2935C935.117 27.8538 943.128 31.4524 949.187 37.3892C957.584 46.3961 958.316 57.1311 955.165 65.4467ZM973.26 69.7366C970.048 68.3744 966.957 67.2359 963.155 66.077C964.192 61.9903 964.599 58.656 964.578 55.5046C969.702 56.5618 972.061 58.0257 973.26 59.9572C974.358 62.0107 974.216 64.9384 973.26 69.7366ZM988.387 89.0109C981.23 79.0078 979.787 78.6418 982.125 69.8586C988.631 73.6199 992.169 80.4513 988.387 89.0109ZM959.19 109.79L961.956 109.139C971.288 106.923 974.053 96.0862 966.978 88.9702C962.199 85.1886 956.324 83.623 951.179 82.0778C951.22 82.2812 951.078 82.0168 951.078 81.7322C950.671 74.6365 951.179 72.7863 959.821 73.4979C969.194 74.2299 977.835 80.3903 981.718 91.8776C984.646 100.905 983.325 107.208 979.136 112.677C973.22 120.708 963.745 119.325 959.19 109.79ZM989.018 188.168C984.341 182.698 984.443 181.397 989.994 172.98C994.528 178.835 994.223 183.613 989.018 188.168ZM967.344 193.474C960.146 198.313 958.885 197.744 955.693 189.326C955.571 189.042 955.693 188.655 955.693 188.899C960.248 184.589 965.168 181.092 968.746 176.375C974.683 168.548 971.247 158.748 962.2 156.267L959.434 155.657C963.887 146.061 973.342 144.617 979.36 152.567C983.609 158.097 984.768 164.563 983.06 171.516C980.722 181.214 975.11 188.29 967.344 193.474ZM981.068 205.205C978.892 203.05 976.696 200.915 973.911 198.232C976.656 195.507 978.852 193.352 980.986 191.197C984.077 194.45 985.642 196.341 985.663 198.191C985.663 199.98 984.118 201.891 981.068 205.205ZM990.258 223.3C984.606 214.924 984.504 213.643 989.119 208.113C994.385 212.626 994.731 217.384 990.258 223.3ZM959.861 240.928L962.626 240.277C971.654 237.715 974.988 227.895 968.97 220.108C965.331 215.473 960.39 211.976 955.775 207.706C955.775 207.97 955.653 207.604 955.775 207.32C958.885 198.882 960.146 198.313 967.384 203.01C975.192 208.133 980.905 215.127 983.325 224.825C985.094 231.779 984.016 238.224 979.807 243.855C973.89 251.805 964.395 250.463 959.861 240.928ZM989.668 319.346C985.012 313.836 985.114 312.535 990.665 304.118C995.199 309.994 994.894 314.751 989.668 319.346ZM968.014 324.632C960.817 329.451 959.536 328.902 956.364 320.444C956.242 320.18 956.344 319.794 956.344 320.078C960.919 315.748 965.839 312.19 969.417 307.554C975.354 299.686 971.918 289.927 962.87 287.406L960.105 286.816C964.538 277.24 974.012 275.756 980.01 283.685C984.28 289.256 985.439 295.701 983.731 302.654C981.393 312.373 975.781 319.448 968.014 324.632ZM981.739 336.303C979.563 334.209 977.367 332.053 974.582 329.39C977.327 326.645 979.502 324.511 981.657 322.355C984.748 325.629 986.313 327.499 986.334 329.329C986.334 331.118 984.789 333.05 981.739 336.303ZM990.929 354.438C985.276 346.082 985.175 344.781 989.77 339.251C995.056 343.764 995.402 348.542 990.929 354.438ZM960.532 372.086L963.297 371.415C972.305 368.853 975.659 359.054 969.641 351.246C966.002 346.591 961.041 343.093 956.446 338.844C956.446 339.109 956.324 338.743 956.446 338.478C959.536 330.02 960.797 329.39 968.055 334.148C975.863 339.231 981.576 346.286 983.996 355.963C985.764 362.896 984.667 369.362 980.478 374.973C974.541 382.964 965.066 381.622 960.532 372.086ZM990.339 450.484C985.683 444.975 985.785 443.673 991.335 435.276C995.87 441.132 995.565 445.91 990.339 450.484ZM968.685 455.771C961.488 460.589 960.207 459.979 957.015 451.603C956.913 451.298 957.015 450.932 957.015 451.196C961.59 446.865 966.51 443.348 970.088 438.672C976.025 430.804 972.569 421.065 963.541 418.564L960.756 417.954C965.209 408.337 974.683 406.934 980.681 414.843C984.931 420.394 986.11 426.839 984.382 433.792C982.064 443.531 976.432 450.627 968.685 455.771ZM982.389 467.441C980.234 465.347 978.038 463.192 975.253 460.528C977.998 457.783 980.173 455.608 982.328 453.493C985.419 456.767 986.984 458.637 986.984 460.467C987.005 462.277 985.459 464.168 982.389 467.441ZM991.6 485.617C985.947 477.261 985.825 475.96 990.441 470.409C995.707 474.903 996.053 479.701 991.6 485.617ZM961.183 503.245L963.968 502.574C972.976 500.012 976.31 490.192 970.312 482.405C966.673 477.769 961.712 474.313 957.116 470.003C957.116 470.287 956.994 469.921 957.116 469.596C960.207 461.179 961.468 460.589 968.726 465.306C976.534 470.409 982.227 477.444 984.646 487.122C986.435 494.055 985.337 500.561 981.149 506.111C975.212 514.102 965.737 512.76 961.183 503.245Z" fill="#F9F5F0"/>
</g>
</g>
</g>
<mask id="mask3_5_279" style="mask-type:luminance" maskUnits="userSpaceOnUse" x="936" y="525" width="74" height="532">
<path d="M936.906 525.691H1009.78V1056.59H936.906V525.691Z" fill="white"/>
</mask>
<g mask="url(#mask3_5_279)">
<mask id="mask4_5_279" style="mask-type:luminance" maskUnits="userSpaceOnUse" x="2" y="1" width="1007" height="1314">
<path d="M2.2168 6.74986L1001.42 1.66699L1008.07 1309.16L8.86541 1314.25L2.2168 6.74986Z" fill="white"/>
</mask>
<g mask="url(#mask4_5_279)">
<mask id="mask5_5_279" style="mask-type:luminance" maskUnits="userSpaceOnUse" x="2" y="1" width="1007" height="1314">
<path d="M2.2168 6.74986L1001.42 1.66699L1008.07 1309.16L8.86541 1314.25L2.2168 6.74986Z" fill="white"/>
</mask>
<g mask="url(#mask5_5_279)">
<path d="M975.802 1055.67C978.16 1052.91 980.722 1050 983.467 1046.79C987.208 1047.68 991.417 1046.93 994.751 1042.76C998.269 1038.31 998.452 1032.94 997.598 1027.55C997.069 1024.56 997.7 1022.51 999.631 1020.23C1006.48 1012.32 1007.17 1004.46 1002.27 995.063L998.432 988.7L998.635 988.293L998.432 987.947L1002.21 981.502C1007.01 972.069 1006.24 964.241 999.306 956.393C997.354 954.116 996.703 952.083 997.212 949.094C997.984 943.686 997.761 938.359 994.182 933.886C990.827 929.82 986.598 929.088 982.877 930.003C980.621 927.421 978.587 925.123 976.575 922.866C978.567 920.549 980.56 918.231 982.816 915.628C986.537 916.543 990.746 915.791 994.08 911.643C997.598 907.109 997.781 901.803 996.947 896.415C996.398 893.406 997.049 891.414 998.96 889.075C1005.81 881.166 1006.5 873.278 1001.6 863.925L997.781 857.562L997.984 857.196L997.761 856.789L1001.54 850.344C1006.34 840.951 1005.57 833.082 998.635 825.255C996.683 822.957 996.032 820.924 996.541 817.936C997.334 812.527 997.11 807.2 993.532 802.748C990.156 798.6 985.927 797.95 982.207 798.885C979.95 796.282 977.937 793.985 975.904 791.728C977.896 789.39 979.889 787.072 982.146 784.49C985.866 785.385 990.075 784.653 993.41 780.485C996.927 775.951 997.11 770.624 996.276 765.277C995.748 762.268 996.378 760.194 998.289 757.897C1005.14 750.008 1005.85 742.14 1000.95 732.767L997.11 726.403L997.313 725.976L997.11 725.631L1000.87 719.226C1005.67 709.772 1004.9 701.944 997.964 694.096C996.012 691.779 995.382 689.786 995.87 686.797C996.663 681.369 996.439 676.022 992.861 671.61C989.485 667.442 985.277 666.751 981.556 667.706C979.279 665.124 977.266 662.827 975.233 660.529C977.245 658.252 979.238 655.914 981.475 653.311C985.195 654.206 989.404 653.494 992.739 649.306C996.276 644.813 996.439 639.506 995.605 634.098C995.077 631.089 995.707 629.056 997.639 626.779C1004.49 618.87 1005.18 611.002 1000.28 601.649L996.439 595.245L996.642 594.838L996.439 594.472L1000.2 588.068C1005 578.654 1004.23 570.806 997.313 562.958C995.341 560.64 994.711 558.628 995.199 555.639C995.992 550.231 995.768 544.884 992.19 540.431C988.814 536.344 984.606 535.612 980.885 536.568C978.099 533.417 975.497 530.489 973.118 527.744L937.272 527.927L937.923 659.086L937.943 662.4L938.594 790.224L938.614 793.558L939.265 921.402L939.285 924.716L939.956 1055.85L975.802 1055.67ZM991.031 584.957C986.354 579.467 986.456 578.166 992.027 569.749C996.541 575.604 996.256 580.403 991.031 584.957ZM969.357 590.263C962.159 595.041 960.898 594.492 957.706 586.055C957.584 585.791 957.706 585.425 957.706 585.689C962.261 581.358 967.181 577.841 970.78 573.144C976.697 565.296 973.26 555.517 964.233 553.057L961.447 552.406C965.9 542.83 975.355 541.407 981.373 549.296C985.622 554.887 986.781 561.332 985.073 568.285C982.755 577.983 977.123 585.079 969.357 590.263ZM983.081 601.934C980.905 599.819 978.709 597.684 975.924 594.96C978.689 592.276 980.865 590.08 983.02 587.986C986.09 591.239 987.676 593.11 987.676 594.899C987.676 596.77 986.131 598.681 983.081 601.934ZM992.271 620.09C986.639 611.713 986.517 610.432 991.132 604.861C996.398 609.355 996.744 614.173 992.271 620.09ZM961.874 637.697L964.64 637.067C973.667 634.484 977.001 624.685 970.983 616.877C967.364 612.221 962.403 608.765 957.788 604.455C957.788 604.739 957.686 604.394 957.788 604.069C960.898 595.651 962.159 595.041 969.397 599.779C977.225 604.902 982.918 611.917 985.338 621.594C987.127 628.548 986.029 634.993 981.82 640.584C975.904 648.595 966.429 647.232 961.874 637.697ZM991.702 716.095C987.025 710.606 987.127 709.325 992.678 700.887C997.212 706.743 996.927 711.541 991.702 716.095ZM970.028 721.402C962.83 726.24 961.569 725.631 958.377 717.213C958.255 716.929 958.377 716.563 958.377 716.827C962.932 712.496 967.852 708.979 971.43 704.303C977.367 696.435 973.931 686.675 964.884 684.195L962.118 683.565C966.571 673.989 976.026 672.545 982.044 680.454C986.293 686.025 987.452 692.47 985.744 699.444C983.406 709.162 977.794 716.217 970.028 721.402ZM983.752 733.072C981.576 730.978 979.38 728.823 976.595 726.118C979.34 723.414 981.536 721.239 983.67 719.124C986.761 722.357 988.327 724.289 988.347 726.058C988.347 727.887 986.802 729.819 983.752 733.072ZM992.942 751.208C987.29 742.851 987.188 741.55 991.803 736C997.069 740.534 997.415 745.332 992.942 751.208ZM962.545 768.855L965.311 768.205C974.338 765.643 977.672 755.802 971.654 748.036C968.015 743.36 963.074 739.903 958.459 735.634C958.459 735.878 958.337 735.532 958.459 735.227C961.569 726.749 962.83 726.179 970.068 730.917C977.876 736.02 983.589 743.055 986.009 752.712C987.778 759.645 986.7 766.131 982.491 771.722C976.575 779.733 967.079 778.391 962.545 768.855ZM992.352 847.233C987.696 841.744 987.798 840.463 993.349 832.025C997.883 837.881 997.578 842.679 992.352 847.233ZM970.699 852.56C963.501 857.379 962.22 856.769 959.048 848.351C958.926 848.087 959.028 847.721 959.028 847.985C963.603 843.655 968.523 840.117 972.101 835.441C978.038 827.573 974.602 817.814 965.554 815.333L962.789 814.682C967.222 805.127 976.697 803.683 982.694 811.612C986.964 817.183 988.123 823.608 986.415 830.541C984.077 840.3 978.465 847.355 970.699 852.56ZM984.423 864.23C982.247 862.136 980.051 859.961 977.266 857.318C980.011 854.553 982.186 852.377 984.341 850.263C987.432 853.495 988.997 855.386 989.018 857.257C989.018 859.025 987.473 860.937 984.423 864.23ZM993.613 882.366C987.961 873.989 987.859 872.688 992.454 867.178C997.74 871.672 998.086 876.47 993.613 882.366ZM963.216 899.973L965.981 899.343C974.989 896.781 978.343 886.981 972.325 879.174C968.686 874.498 963.725 871.021 959.13 866.772C959.13 867.036 959.008 866.67 959.13 866.365C962.22 857.948 963.481 857.318 970.739 862.055C978.547 867.158 984.26 874.213 986.68 883.891C988.448 890.824 987.351 897.269 983.162 902.921C977.225 910.871 967.75 909.529 963.216 899.973ZM993.023 978.412C988.367 972.902 988.469 971.601 994.02 963.184C998.554 969.019 998.249 973.817 993.023 978.412ZM971.369 983.698C964.172 988.517 962.891 987.907 959.699 979.53C959.597 979.225 959.699 978.859 959.699 979.124C964.274 974.773 969.194 971.276 972.772 966.579C978.709 958.731 975.253 948.952 966.225 946.471L963.44 945.882C967.893 936.244 977.367 934.842 983.365 942.771C987.615 948.301 988.794 954.766 987.066 961.72C984.748 971.438 979.116 978.493 971.369 983.698ZM985.073 995.389C982.918 993.234 980.722 991.119 977.937 988.395C980.682 985.691 982.857 983.536 985.012 981.38C988.103 984.633 989.668 986.524 989.668 988.334C989.689 990.184 988.144 992.054 985.073 995.389ZM994.284 1013.5C988.631 1005.15 988.509 1003.85 993.125 998.276C998.391 1002.81 998.737 1007.59 994.284 1013.5ZM963.867 1031.11L966.652 1030.48C975.66 1027.92 978.994 1018.12 972.996 1010.31C969.357 1005.66 964.396 1002.22 959.8 997.93C959.8 998.195 959.678 997.808 959.8 997.503C962.891 989.066 964.152 988.496 971.41 993.193C979.218 998.317 984.911 1005.31 987.351 1015.03C989.119 1021.96 988.022 1028.43 983.833 1034.04C977.896 1042.01 968.421 1040.69 963.867 1031.11Z" fill="#F9F5F0"/>
</g>
</g>
</g>
<mask id="mask6_5_279" style="mask-type:luminance" maskUnits="userSpaceOnUse" x="635" y="1051" width="375" height="261">
<path d="M635.014 1051.38H1009.78V1311.62H635.014V1051.38Z" fill="white"/>
</mask>
<g mask="url(#mask6_5_279)">
<mask id="mask7_5_279" style="mask-type:luminance" maskUnits="userSpaceOnUse" x="2" y="1" width="1007" height="1314">
<path d="M2.21631 6.74986L1001.42 1.66699L1008.07 1309.16L8.86492 1314.25L2.21631 6.74986Z" fill="white"/>
</mask>
<g mask="url(#mask7_5_279)">
<mask id="mask8_5_279" style="mask-type:luminance" maskUnits="userSpaceOnUse" x="2" y="1" width="1007" height="1314">
<path d="M2.21631 6.74986L1001.42 1.66699L1008.07 1309.16L8.86492 1314.25L2.21631 6.74986Z" fill="white"/>
</mask>
<g mask="url(#mask8_5_279)">
<path d="M636.396 1278.85C639.141 1281.27 642.069 1283.81 645.282 1286.58C644.387 1290.24 645.119 1294.53 649.307 1297.8C653.76 1301.38 659.107 1301.56 664.475 1300.69C667.484 1300.18 669.517 1300.73 671.835 1302.7C679.765 1309.57 687.593 1310.24 696.925 1305.34L703.35 1301.54L703.716 1301.74L704.123 1301.54L710.548 1305.26C719.941 1310.08 727.81 1309.33 735.658 1302.37C737.915 1300.38 739.989 1299.79 742.957 1300.28C748.386 1301.11 753.693 1300.87 758.145 1297.23C762.252 1293.94 763.005 1289.65 762.049 1285.99C764.631 1283.71 766.929 1281.64 769.186 1279.6C771.524 1281.62 773.842 1283.67 776.444 1285.93C775.529 1289.59 776.261 1293.86 780.45 1297.13C784.923 1300.71 790.27 1300.89 795.617 1300.02C798.667 1299.51 800.66 1300.06 802.998 1302.03C810.907 1308.9 818.755 1309.59 828.088 1304.67L834.493 1300.87L834.879 1301.07L835.265 1300.87L841.69 1304.59C851.084 1309.43 858.952 1308.66 866.821 1301.7C869.057 1299.71 871.131 1299.14 874.12 1299.61C879.508 1300.44 884.835 1300.2 889.288 1296.58C893.456 1293.27 894.086 1288.98 893.212 1285.32C895.753 1283.04 898.071 1280.97 900.328 1278.95C902.666 1280.94 904.984 1283 907.566 1285.26C907.017 1288.77 906.651 1293.45 912.426 1296.19C918.505 1299 926.496 1299.2 933.226 1295.69C937.129 1293.96 939.915 1293.63 943.717 1294.4C956.628 1296.3 968.583 1289.79 975.069 1276.82C976.533 1273.75 977.346 1270.37 978.322 1267.44L978.831 1267.18L978.973 1266.57C981.697 1265.09 984.727 1263.58 987.614 1261.61C999.102 1252.7 1003.09 1239.63 998.817 1227.35C997.312 1223.77 996.987 1220.99 997.882 1216.86C999.651 1208.54 999.041 1204.11 995.544 1199.54C992.168 1195.41 987.939 1194.7 984.219 1195.65C981.962 1193.05 979.928 1190.75 977.916 1188.48C979.908 1186.18 981.901 1183.86 984.158 1181.26C987.878 1182.13 992.087 1181.38 995.422 1177.25C998.939 1172.76 999.122 1167.41 998.288 1162.05C997.76 1159.02 998.39 1156.98 1000.3 1154.69C1007.15 1146.8 1007.86 1138.93 1002.94 1129.56L999.122 1123.19L999.325 1122.79L999.102 1122.38L1002.88 1115.95C1007.68 1106.6 1006.91 1098.69 999.976 1090.87C998.024 1088.59 997.373 1086.58 997.882 1083.55C998.675 1078.16 998.451 1072.83 994.873 1068.38C991.497 1064.25 987.268 1063.54 983.568 1064.5C980.782 1061.32 978.18 1058.4 975.801 1055.67L939.935 1055.85L940.606 1187.01L940.626 1190.31C940.626 1190.31 940.606 1198.13 940.606 1209.83C940.443 1215.7 938.268 1223.43 933.124 1229.63C922.104 1243.15 906.794 1241.83 901.833 1241.64L898.498 1241.66L770.65 1242.31L767.356 1242.34L636.213 1243.01L636.396 1278.85ZM993.714 1112.86C989.037 1107.4 989.139 1106.07 994.71 1097.66C999.224 1103.51 998.939 1108.31 993.714 1112.86ZM972.04 1118.19C964.842 1122.95 963.581 1122.4 960.389 1113.96C960.267 1113.66 960.389 1113.35 960.389 1113.58C964.944 1109.29 969.864 1105.75 973.463 1101.03C979.379 1093.2 975.943 1083.42 966.916 1080.96L964.13 1080.33C968.583 1070.76 978.038 1069.29 984.056 1077.2C988.305 1082.75 989.464 1089.24 987.756 1096.19C985.438 1105.91 979.806 1112.99 972.04 1118.19ZM985.764 1129.86C983.588 1127.75 981.392 1125.61 978.627 1122.89C981.372 1120.14 983.548 1118.01 985.703 1115.85C988.773 1119.15 990.359 1121.04 990.359 1122.83C990.359 1124.66 988.814 1126.55 985.764 1129.86ZM994.954 1147.96C989.322 1139.62 989.2 1138.32 993.815 1132.75C999.081 1137.3 999.427 1142.06 994.954 1147.96ZM964.557 1165.6L967.323 1164.97C976.35 1162.39 979.684 1152.57 973.666 1144.78C970.047 1140.13 965.086 1136.67 960.471 1132.38C960.471 1132.67 960.369 1132.28 960.471 1132C963.581 1123.58 964.842 1122.93 972.08 1127.69C979.908 1132.77 985.601 1139.8 988.021 1149.5C989.81 1156.48 988.712 1162.92 984.503 1168.49C978.587 1176.5 969.112 1175.12 964.557 1165.6ZM982.043 1252.93C981.23 1244.06 982.734 1243.98 991.131 1235.02C993.449 1244.08 989.342 1250.37 982.043 1252.93ZM960.694 1246.2C951.728 1245.47 952.033 1243.92 953.009 1236.6C953.009 1236.34 953.232 1236.13 953.131 1236.3C958.478 1235.54 965.228 1235.18 969.803 1231.82C978.627 1226.33 976.289 1214.03 967.323 1211.82L964.537 1211.15C969.417 1202.2 978.607 1200.31 984.707 1208.36C988.143 1214.48 989.79 1223.63 985.052 1231.19C979.786 1242.23 969.518 1246.48 960.694 1246.2ZM962.788 1264.72C963.154 1261.53 962.971 1257.93 962.809 1253.96C966.692 1253.44 970.21 1252.85 973.402 1251.91C973.747 1256.85 973.26 1259.68 971.918 1261.43C970.352 1263.15 967.811 1264.23 962.788 1264.72ZM949.715 1285.44C956.831 1275.37 956.709 1274.09 965.513 1273.02C964.496 1280.84 958.986 1285.91 949.715 1285.44ZM921.128 1264.17L922.327 1266.67C926.211 1274.95 938.756 1274.89 942.456 1265.15C944.896 1260.11 943.839 1253.27 943.595 1247.93C943.392 1248.09 943.595 1247.8 943.798 1247.72C950.894 1245.43 952.256 1244.78 954.757 1253.44C956.709 1262.04 954.534 1272.85 944.795 1280.23C938.227 1286.03 929.159 1286.9 922.205 1284.26C911.836 1279.32 914.235 1269.74 921.128 1264.17ZM844.842 1295.44C850.331 1290.79 851.612 1290.89 860.03 1296.48C854.194 1300.95 849.396 1300.63 844.842 1295.44ZM839.474 1273.75C834.696 1266.61 835.306 1265.27 843.744 1262.08C843.947 1261.98 844.374 1262.08 844.13 1262.08C848.4 1266.67 851.938 1271.57 856.655 1275.15C864.503 1281.13 874.283 1277.69 876.763 1268.62L877.353 1265.86C886.95 1270.25 888.413 1279.72 880.443 1285.78C874.893 1289.99 868.468 1291.17 861.514 1289.5C851.816 1287.19 844.72 1281.53 839.474 1273.75ZM827.844 1287.45C829.958 1285.28 832.114 1283.1 834.777 1280.36C837.502 1283.08 839.637 1285.23 841.812 1287.39C838.539 1290.52 836.688 1292.07 834.818 1292.11C833.008 1292.09 831.117 1290.56 827.844 1287.45ZM809.708 1296.72C818.085 1291.05 819.365 1290.95 824.916 1295.54C820.402 1300.79 815.604 1301.15 809.708 1296.72ZM792.039 1266.29L792.73 1269.07C795.292 1278.1 805.092 1281.45 812.9 1275.37C817.495 1271.75 821.053 1266.81 825.302 1262.18C825.038 1262.18 825.404 1262.08 825.709 1262.18C834.127 1265.27 834.757 1266.61 829.999 1273.81C824.896 1281.64 817.881 1287.35 808.183 1289.79C801.229 1291.52 794.764 1290.42 789.172 1286.25C781.202 1280.27 782.544 1270.8 792.039 1266.29ZM713.679 1296.11C719.169 1291.46 720.47 1291.56 728.887 1297.13C723.052 1301.62 718.254 1301.3 713.679 1296.11ZM708.372 1274.42C703.553 1267.28 704.163 1265.92 712.54 1262.75C712.866 1262.65 713.211 1262.75 712.947 1262.75C717.237 1267.34 720.775 1272.24 725.492 1275.82C733.34 1281.8 743.1 1278.34 745.58 1269.29L746.19 1266.51C755.807 1270.92 757.23 1280.4 749.301 1286.43C743.73 1290.66 737.305 1291.82 730.351 1290.18C720.653 1287.84 713.516 1282.19 708.372 1274.42ZM696.641 1288.12C698.796 1285.95 700.951 1283.77 703.614 1281.03C706.359 1283.75 708.535 1285.89 710.649 1288.06C707.376 1291.19 705.546 1292.74 703.675 1292.78C701.866 1292.76 699.955 1291.23 696.641 1288.12ZM678.565 1297.39C686.922 1291.72 688.223 1291.62 693.753 1296.21C689.24 1301.46 684.462 1301.8 678.565 1297.39ZM660.897 1266.96L661.527 1269.72C664.15 1278.77 673.97 1282.1 681.757 1276.04C686.373 1272.41 689.85 1267.49 694.16 1262.85C693.835 1262.85 694.262 1262.75 694.567 1262.85C702.984 1265.94 703.553 1267.28 698.836 1274.48C693.733 1282.31 686.698 1288.02 677.04 1290.44C670.087 1292.19 663.601 1291.09 658.009 1286.92C650.039 1280.94 651.381 1271.47 660.897 1266.96Z" fill="#F9F5F0"/>
</g>
</g>
</g>
<mask id="mask9_5_279" style="mask-type:luminance" maskUnits="userSpaceOnUse" x="104" y="1238" width="537" height="74">
<path d="M104.101 1238.76H640.219V1311.62H104.101V1238.76Z" fill="white"/>
</mask>
<g mask="url(#mask9_5_279)">
<mask id="mask10_5_279" style="mask-type:luminance" maskUnits="userSpaceOnUse" x="2" y="1" width="1007" height="1314">
<path d="M2.21631 6.74986L1001.42 1.66699L1008.07 1309.16L8.86492 1314.25L2.21631 6.74986Z" fill="white"/>
</mask>
<g mask="url(#mask10_5_279)">
<mask id="mask11_5_279" style="mask-type:luminance" maskUnits="userSpaceOnUse" x="2" y="1" width="1007" height="1314">
<path d="M2.21631 6.74986L1001.42 1.66699L1008.07 1309.16L8.86492 1314.25L2.21631 6.74986Z" fill="white"/>
</mask>
<g mask="url(#mask11_5_279)">
<path d="M108.452 1281.53C111.217 1283.95 114.165 1286.49 117.357 1289.26C116.442 1292.92 117.215 1297.21 121.362 1300.48C125.836 1304.06 131.163 1304.24 136.591 1303.37C139.58 1302.86 141.593 1303.41 143.911 1305.38C151.8 1312.25 159.668 1312.93 169.062 1308.03L175.426 1304.22L175.812 1304.43L176.198 1304.22L182.644 1307.94C192.057 1312.76 199.885 1312.01 207.733 1305.06C210.051 1303.07 212.064 1302.5 215.053 1302.96C220.461 1303.8 225.788 1303.55 230.221 1299.91C234.348 1296.62 235.08 1292.33 234.125 1288.67C236.707 1286.39 239.004 1284.32 241.261 1282.29C243.579 1284.3 245.917 1286.35 248.52 1288.61C247.625 1292.27 248.337 1296.54 252.525 1299.81C257.019 1303.39 262.325 1303.57 267.734 1302.7C270.743 1302.19 272.756 1302.74 275.053 1304.71C282.983 1311.58 290.851 1312.28 300.204 1307.36L306.588 1303.55L306.954 1303.76L307.361 1303.55L313.786 1307.27C323.179 1312.11 331.068 1311.34 338.876 1304.39C341.194 1302.39 343.207 1301.82 346.195 1302.29C351.604 1303.13 356.951 1302.88 361.404 1299.26C365.531 1295.95 366.223 1291.66 365.267 1288C367.829 1285.72 370.147 1283.65 372.424 1281.64C374.721 1283.63 377.06 1285.68 379.642 1287.94C378.768 1291.6 379.499 1295.87 383.668 1299.14C388.161 1302.72 393.468 1302.9 398.876 1302.03C401.865 1301.52 403.918 1302.07 406.196 1304.06C414.105 1310.91 421.973 1311.6 431.346 1306.68L437.731 1302.88L438.137 1303.09L438.483 1302.88L444.928 1306.62C454.342 1311.44 462.17 1310.67 470.018 1303.74C472.336 1301.72 474.329 1301.15 477.358 1301.64C482.726 1302.46 488.073 1302.21 492.506 1298.59C496.653 1295.28 497.365 1290.99 496.409 1287.35C498.971 1285.05 501.289 1283 503.587 1280.96C505.864 1282.96 508.202 1285.01 510.805 1287.27C509.89 1290.93 510.642 1295.2 514.79 1298.47C519.303 1302.07 524.61 1302.23 530.018 1301.36C533.028 1300.85 535.061 1301.42 537.338 1303.39C545.268 1310.24 553.116 1310.93 562.489 1306.01L568.873 1302.23L569.28 1302.41L569.646 1302.21L576.091 1305.95C585.485 1310.77 593.312 1310 601.161 1303.07C603.458 1301.05 605.471 1300.48 608.46 1300.97C613.889 1301.78 619.236 1301.56 623.648 1297.92C627.796 1294.61 628.507 1290.32 627.552 1286.68C630.724 1283.87 633.672 1281.29 636.376 1278.85L636.193 1243.01L505.051 1243.66L501.736 1243.68L373.908 1244.33L370.553 1244.35L242.766 1245L239.411 1245.02L108.269 1245.69L108.452 1281.53ZM579.202 1296.78C584.671 1292.15 585.952 1292.25 594.39 1297.82C588.555 1302.29 583.756 1301.99 579.202 1296.78ZM573.895 1275.11C569.097 1267.97 569.666 1266.61 578.043 1263.44C578.348 1263.34 578.714 1263.42 578.47 1263.42C582.821 1268.01 586.277 1272.91 590.995 1276.51C598.843 1282.49 608.602 1279.03 611.103 1269.99L611.754 1267.2C621.289 1271.61 622.733 1281.09 614.844 1287.13C609.232 1291.35 602.808 1292.51 595.854 1290.85C586.176 1288.53 579.08 1282.88 573.895 1275.11ZM562.204 1288.81C564.298 1286.64 566.454 1284.46 569.178 1281.72C571.862 1284.42 574.038 1286.58 576.213 1288.73C572.94 1291.86 571.028 1293.43 569.239 1293.45C567.369 1293.45 565.518 1291.9 562.204 1288.81ZM544.068 1298.08C552.445 1292.41 553.726 1292.31 559.276 1296.88C554.763 1302.13 549.964 1302.5 544.068 1298.08ZM526.46 1267.65L527.091 1270.41C529.652 1279.44 539.473 1282.79 547.24 1276.74C551.936 1273.1 555.413 1268.16 559.642 1263.52C559.398 1263.54 559.764 1263.44 560.069 1263.52C568.467 1266.63 569.097 1267.97 564.339 1275.15C559.256 1282.98 552.221 1288.71 542.523 1291.13C535.589 1292.86 529.144 1291.76 523.532 1287.59C515.542 1281.64 516.925 1272.14 526.46 1267.65ZM448.039 1297.45C453.529 1292.82 454.83 1292.9 463.248 1298.49C457.412 1302.96 452.614 1302.66 448.039 1297.45ZM442.732 1275.76C437.934 1268.62 438.524 1267.28 446.921 1264.09C447.206 1264.01 447.592 1264.09 447.307 1264.09C451.658 1268.68 455.155 1273.58 459.832 1277.16C467.7 1283.16 477.46 1279.7 479.94 1270.64L480.55 1267.87C490.167 1272.28 491.591 1281.74 483.702 1287.8C478.131 1292 471.665 1293.18 464.712 1291.52C454.993 1289.2 447.917 1283.55 442.732 1275.76ZM431.062 1289.46C433.156 1287.31 435.311 1285.13 438.036 1282.39C440.72 1285.09 442.895 1287.25 445.05 1289.4C441.757 1292.53 439.886 1294.08 438.097 1294.12C436.267 1294.1 434.335 1292.57 431.062 1289.46ZM412.926 1298.73C421.302 1293.08 422.583 1292.96 428.114 1297.56C423.6 1302.8 418.842 1303.17 412.926 1298.73ZM395.298 1268.32L395.948 1271.08C398.51 1280.11 408.33 1283.47 416.118 1277.41C420.794 1273.77 424.251 1268.83 428.52 1264.19C428.256 1264.19 428.622 1264.11 428.927 1264.19C437.365 1267.28 437.975 1268.62 433.237 1275.82C428.093 1283.65 421.099 1289.38 411.401 1291.8C404.488 1293.53 398.022 1292.43 392.431 1288.26C384.4 1282.29 385.741 1272.81 395.298 1268.32ZM316.897 1298.12C322.386 1293.47 323.688 1293.57 332.105 1299.16C326.25 1303.63 321.451 1303.33 316.897 1298.12ZM311.59 1276.43C306.792 1269.29 307.381 1267.95 315.799 1264.76C316.063 1264.66 316.429 1264.76 316.165 1264.76C320.496 1269.36 324.054 1274.26 328.689 1277.83C336.558 1283.83 346.317 1280.38 348.798 1271.31L349.449 1268.54C359.025 1272.93 360.469 1282.41 352.559 1288.47C346.948 1292.68 340.523 1293.85 333.569 1292.19C323.871 1289.87 316.775 1284.22 311.59 1276.43ZM299.919 1290.13C302.014 1287.96 304.169 1285.78 306.853 1283.04C309.577 1285.76 311.753 1287.92 313.867 1290.07C310.634 1293.2 308.744 1294.75 306.914 1294.79C305.084 1294.77 303.193 1293.24 299.919 1290.13ZM281.783 1299.41C290.14 1293.73 291.441 1293.63 296.992 1298.23C292.458 1303.47 287.659 1303.84 281.783 1299.41ZM264.155 1268.97L264.785 1271.75C267.368 1280.78 277.168 1284.14 284.955 1278.06C289.631 1274.44 293.108 1269.5 297.358 1264.86C297.093 1264.86 297.459 1264.76 297.764 1264.86C306.182 1267.95 306.812 1269.29 302.075 1276.49C296.971 1284.32 289.936 1290.03 280.238 1292.47C273.305 1294.2 266.859 1293.1 261.227 1288.93C253.257 1282.96 254.599 1273.48 264.155 1268.97ZM185.754 1298.8C191.244 1294.14 192.525 1294.24 200.963 1299.81C195.107 1304.31 190.309 1303.98 185.754 1298.8ZM180.448 1277.1C175.609 1269.97 176.219 1268.6 184.616 1265.43C184.921 1265.33 185.266 1265.43 185.022 1265.43C189.374 1270.03 192.85 1274.93 197.547 1278.5C205.416 1284.48 215.175 1281.05 217.676 1271.98L218.286 1269.19C227.862 1273.6 229.306 1283.08 221.397 1289.12C215.805 1293.35 209.38 1294.51 202.427 1292.86C192.708 1290.52 185.632 1284.87 180.448 1277.1ZM168.777 1290.81C170.851 1288.63 173.026 1286.45 175.71 1283.71C178.435 1286.43 180.59 1288.57 182.766 1290.74C179.492 1293.88 177.601 1295.42 175.771 1295.46C173.941 1295.44 172.071 1293.92 168.777 1290.81ZM150.62 1300.08C158.997 1294.4 160.278 1294.3 165.849 1298.9C161.315 1304.14 156.557 1304.49 150.62 1300.08ZM133.013 1269.64L133.643 1272.41C136.205 1281.45 146.046 1284.79 153.813 1278.73C158.489 1275.09 161.925 1270.17 166.215 1265.53C165.951 1265.53 166.317 1265.43 166.622 1265.53C175.06 1268.62 175.67 1269.97 170.912 1277.16C165.829 1284.99 158.794 1290.7 149.096 1293.12C142.162 1294.87 135.717 1293.77 130.126 1289.61C122.115 1283.63 123.457 1274.15 133.013 1269.64Z" fill="#F9F5F0"/>
</g>
</g>
</g>
<mask id="mask12_5_279" style="mask-type:luminance" maskUnits="userSpaceOnUse" x="5" y="785" width="105" height="517">
<path d="M5.20508 785.934H109.306V1301.22H5.20508V785.934Z" fill="white"/>
</mask>
<g mask="url(#mask12_5_279)">
<mask id="mask13_5_279" style="mask-type:luminance" maskUnits="userSpaceOnUse" x="2" y="1" width="1007" height="1314">
<path d="M2.21631 6.74986L1001.42 1.66699L1008.07 1309.16L8.86492 1314.25L2.21631 6.74986Z" fill="white"/>
</mask>
<g mask="url(#mask13_5_279)">
<mask id="mask14_5_279" style="mask-type:luminance" maskUnits="userSpaceOnUse" x="2" y="1" width="1007" height="1314">
<path d="M2.21631 6.74986L1001.42 1.66699L1008.07 1309.16L8.86492 1314.25L2.21631 6.74986Z" fill="white"/>
</mask>
<g mask="url(#mask14_5_279)">
<path d="M38.0007 787.885C35.5812 790.651 33.0396 793.578 30.2745 796.811C26.5943 795.876 22.3246 796.648 19.0511 800.776C15.4726 805.269 15.2897 810.596 16.1639 815.984C16.6722 819.033 16.1233 821.046 14.1104 823.323C7.27879 831.232 6.56716 839.121 11.5079 848.473L15.31 854.837L15.1067 855.223L15.31 855.63L11.5892 862.055C6.72983 871.468 7.52277 879.316 14.4357 887.184C16.4689 889.441 17.0382 891.454 16.5706 894.463C15.7573 899.851 15.981 905.219 19.6204 909.61C22.9142 913.778 27.2043 914.49 30.8641 913.534C33.1413 916.096 35.1948 918.393 37.1874 920.711C35.2152 922.988 33.182 925.306 30.9251 927.949C27.2653 927.055 22.9955 927.786 19.7221 931.914C16.1436 936.427 15.9606 941.775 16.8349 947.122C17.3432 950.171 16.7942 952.184 14.7814 954.461C7.94975 962.391 7.23813 970.259 12.1788 979.611L15.981 985.975L15.7776 986.402L15.981 986.788L12.2602 993.213C7.40078 1002.59 8.19374 1010.49 15.1067 1018.34C17.1399 1020.6 17.7092 1022.61 17.2415 1025.64C16.4283 1031.03 16.6519 1036.36 20.271 1040.83C23.5852 1044.94 27.8753 1045.63 31.5351 1044.69C33.8123 1047.27 35.8455 1049.57 37.838 1051.87C35.8861 1054.15 33.8529 1056.51 31.596 1059.11C27.9363 1058.19 23.6665 1058.92 20.393 1063.07C16.8146 1067.57 16.6316 1072.91 17.5059 1078.28C18.0142 1081.29 17.4449 1083.34 15.4523 1085.62C8.62071 1093.53 7.90909 1101.42 12.8498 1110.77L16.6519 1117.15L16.4486 1117.56L16.6519 1117.93L12.9108 1124.37C8.07174 1133.76 8.8647 1141.65 15.7776 1149.46C17.7905 1151.76 18.3801 1153.77 17.8922 1156.78C17.0789 1162.19 17.3229 1167.49 20.942 1171.95C24.2561 1176.07 28.5462 1176.79 32.1857 1175.85C34.4629 1178.43 36.5164 1180.73 38.509 1183.01C36.5571 1185.35 34.5239 1187.64 32.267 1190.27C28.6072 1189.35 24.3375 1190.1 21.064 1194.23C17.4652 1198.72 17.3025 1204.07 18.1768 1209.46C18.6851 1212.43 18.0345 1214.3 16.4283 1217.9C10.0643 1229.42 12.1992 1242.99 22.3856 1253.46L30.0305 1259.76L30.1525 1260.33L30.6201 1260.69C30.9048 1263.89 31.3724 1267.18 32.6127 1270.37C36.9027 1284.26 47.8821 1292.47 60.9557 1292.27C64.7985 1292.15 67.4416 1292.9 70.9591 1295.26C77.2621 1299.22 85.0493 1300.85 91.4946 1298.94C97.6145 1296.34 98.7938 1292.13 98.1839 1288.43C102.291 1286.03 105.605 1283.75 108.452 1281.57L108.269 1245.71C108.879 1245.4 90.3356 1245.85 81.1455 1230.6C78.9293 1227.11 77.7094 1223.37 76.6724 1219.75C76.6521 1217.79 76.4488 1216.07 76.1235 1214.32C76.0421 1211 75.9608 1207.87 75.9608 1204.99C75.8998 1192.69 75.8388 1184.49 75.8388 1184.49V1181.2L75.1882 1053.37L75.1679 1050L74.5172 922.195L74.4969 918.902L73.8259 787.743L38.0007 787.926V787.885ZM42.5144 1268.01C50.6676 1270.72 50.9726 1271.37 56.2589 1282.67C47.2518 1281.43 42.1078 1276.19 42.5144 1268.01ZM55.9336 1250.22C59.6138 1242.07 60.6914 1242.99 67.6856 1246.12C67.9093 1246.22 68.0109 1246.5 67.8889 1246.36C66.4657 1251.99 64.9814 1258.01 66.5064 1263.5C68.4786 1273.95 81.1658 1275.58 86.0659 1268.2L87.6721 1265.76C93.6701 1272.24 94.5241 1282.39 83.6667 1285.38C75.9201 1287.78 67.9296 1284.22 61.8706 1278.24C53.4734 1269.23 52.7415 1258.54 55.9336 1250.22ZM37.8177 1245.95C40.9895 1247.28 44.141 1248.43 47.9228 1249.59C46.9062 1253.68 46.4588 1256.97 46.4792 1260.17C41.3758 1259.07 38.997 1257.62 37.8177 1255.67C36.7198 1253.68 36.8621 1250.71 37.8177 1245.95ZM22.6499 1226.6C29.8272 1236.6 31.2504 1237.03 28.9325 1245.79C22.4872 1242.01 18.8885 1235.16 22.6499 1226.6ZM51.8672 1205.86L49.102 1206.53C39.8102 1208.71 37.0247 1219.52 44.1003 1226.68C48.8987 1230.48 54.734 1232.05 59.9391 1233.59C59.8577 1233.37 60.0407 1233.61 60.0001 1233.88C60.3864 1241.03 59.8781 1242.88 51.2776 1242.13C41.8638 1241.44 33.243 1235.26 29.3392 1223.73C26.4113 1214.72 27.7736 1208.44 31.9214 1202.95C37.899 1194.96 47.3331 1196.35 51.8672 1205.86ZM22.0603 1127.48C26.7163 1132.95 26.6147 1134.27 21.0437 1142.65C16.5706 1136.79 16.8756 1132.02 22.0603 1127.48ZM43.714 1122.14C50.9116 1117.36 52.2535 1117.91 55.405 1126.34C55.5067 1126.61 55.405 1127.01 55.405 1126.73C50.8099 1131.06 45.9302 1134.58 42.3518 1139.25C36.3741 1147.12 39.8306 1156.88 48.858 1159.4L51.6232 1159.99C47.1908 1169.55 37.777 1171.01 31.718 1163.08C27.5093 1157.55 26.3504 1151.07 28.0176 1144.11C30.3355 1134.42 35.9675 1127.32 43.714 1122.14ZM30.0305 1110.46C32.206 1112.58 34.4019 1114.75 37.1467 1117.42C34.4425 1120.14 32.2467 1122.3 30.1118 1124.47C27.001 1121.2 25.4151 1119.29 25.3947 1117.48C25.3947 1115.69 26.9603 1113.76 30.0305 1110.46ZM20.7793 1092.35C26.452 1100.71 26.5537 1102.01 21.9383 1107.56C16.7332 1103 16.3673 1098.27 20.7793 1092.35ZM51.1962 1074.7L48.4311 1075.39C39.4239 1077.95 36.0691 1087.71 42.1281 1095.54C45.7676 1100.18 50.6879 1103.65 55.3237 1107.92C55.3033 1107.64 55.405 1108.03 55.3237 1108.31C52.2332 1116.75 50.9116 1117.36 43.6733 1112.66C35.8658 1107.54 30.1728 1100.52 27.7329 1090.85C26.0047 1083.87 27.1026 1077.41 31.2504 1071.81C37.2281 1063.8 46.6622 1065.17 51.1962 1074.7ZM21.3893 996.324C26.0657 1001.79 25.964 1003.13 20.393 1011.51C15.8996 1005.68 16.2046 1000.88 21.3893 996.324ZM43.043 990.997C50.2406 986.219 51.5826 986.768 54.734 995.206C54.8357 995.45 54.7544 995.877 54.734 995.551C50.139 999.923 45.2796 1003.44 41.7011 1008.14C35.7031 1015.98 39.1596 1025.74 48.1871 1028.2L50.9726 1028.87C46.5402 1038.45 37.1061 1039.89 31.0471 1031.97C26.8587 1026.39 25.6794 1019.95 27.3466 1012.96C29.6645 1003.26 35.2965 996.182 43.043 990.997ZM29.3595 979.327C31.5351 981.441 33.7513 983.576 36.4758 986.28C33.7716 989.005 31.596 991.16 29.4408 993.315C26.33 990.041 24.7441 988.13 24.7238 986.341C24.7238 984.552 26.2894 982.62 29.3595 979.327ZM20.1287 961.211C25.781 969.568 25.903 970.869 21.2876 976.419C16.0623 971.865 15.6963 967.128 20.1287 961.211ZM50.5253 943.564L47.7601 944.194C38.753 946.817 35.3982 956.617 41.4775 964.424C45.0966 969.039 50.017 972.516 54.6527 976.806C54.6527 976.521 54.734 976.887 54.6527 977.172C51.5826 985.63 50.2406 986.239 43.0024 981.502C35.1948 976.399 29.5018 969.364 27.0823 959.687C25.3337 952.713 26.4317 946.247 30.5794 940.677C36.5774 932.666 45.9912 934.049 50.5253 943.564ZM20.7183 865.165C25.3947 870.655 25.2931 871.936 19.7221 880.373C15.2287 874.538 15.5336 869.74 20.7183 865.165ZM42.3721 859.839C49.5697 855.04 50.9116 855.63 54.0834 864.027C54.1647 864.373 54.0834 864.698 54.0834 864.434C49.4883 868.764 44.6086 872.302 41.0302 876.998C35.0322 884.826 38.4886 894.605 47.5161 897.086L50.3016 897.716C45.8692 907.272 36.4554 908.736 30.3761 900.807C26.1877 895.276 25.0084 888.791 26.6757 881.817C28.9935 872.119 34.6255 865.043 42.3721 859.839ZM28.6885 848.168C30.8641 850.262 33.0803 852.418 35.8048 855.122C33.1006 857.887 30.9251 860.001 28.7699 862.177C25.6591 858.903 24.0731 857.013 24.0731 855.183C24.0528 853.394 25.6184 851.482 28.6885 848.168ZM19.4578 830.033C25.1101 838.43 25.2321 839.69 20.6167 845.281C15.3913 840.727 15.0253 835.99 19.4578 830.033ZM49.8543 812.426L47.0891 813.076C38.082 815.679 34.7272 825.478 40.8065 833.265C44.4256 837.881 49.346 841.378 53.9817 845.688C53.9817 845.363 54.0834 845.769 53.9817 846.034C50.9116 854.491 49.5697 855.081 42.3314 850.323C34.5239 845.261 28.8309 838.226 26.4113 828.548C24.6831 821.615 25.781 815.109 29.9085 809.539C35.9065 801.528 45.3202 802.91 49.8543 812.426Z" fill="#F9F5F0"/>
</g>
</g>
</g>
<mask id="mask15_5_279" style="mask-type:luminance" maskUnits="userSpaceOnUse" x="5" y="255" width="74" height="537">
<path d="M5.20508 255.038H78.0755V791.139H5.20508V255.038Z" fill="white"/>
</mask>
<g mask="url(#mask15_5_279)">
<mask id="mask16_5_279" style="mask-type:luminance" maskUnits="userSpaceOnUse" x="2" y="1" width="1007" height="1314">
<path d="M2.21631 6.74986L1001.42 1.66699L1008.07 1309.16L8.86492 1314.25L2.21631 6.74986Z" fill="white"/>
</mask>
<g mask="url(#mask16_5_279)">
<mask id="mask17_5_279" style="mask-type:luminance" maskUnits="userSpaceOnUse" x="2" y="1" width="1007" height="1314">
<path d="M2.21631 6.74986L1001.42 1.66699L1008.07 1309.16L8.86492 1314.25L2.21631 6.74986Z" fill="white"/>
</mask>
<g mask="url(#mask17_5_279)">
<path d="M35.3168 259.958C32.8973 262.723 30.3558 265.672 27.5906 268.884C23.9105 267.949 19.6407 268.721 16.3673 272.849C12.7888 277.362 12.6058 282.73 13.4801 288.097C13.9884 291.106 13.4394 293.119 11.4266 295.437C4.59495 303.325 3.88333 311.194 8.82404 320.567L12.6262 326.951L12.4228 327.317L12.6262 327.723L8.90537 334.148C4.04598 343.541 4.83894 351.409 11.7519 359.257C13.7851 361.534 14.3544 363.527 13.8867 366.577C13.0735 371.985 13.2971 377.291 16.9366 381.764C20.2304 385.851 24.5205 386.583 28.1803 385.607C30.4575 388.23 32.511 390.527 34.5036 392.804C32.5313 395.122 30.4981 397.44 28.2412 400.042C24.5815 399.127 20.3117 399.839 17.0382 404.007C13.4598 408.541 13.2768 413.868 14.1511 419.235C14.6594 422.265 14.1104 424.277 12.0975 426.595C5.26591 434.484 4.55428 442.352 9.495 451.725L13.2971 458.129L13.0938 458.475L13.2971 458.902L9.57633 465.306C4.71694 474.7 5.5099 482.568 12.4228 490.395C14.456 492.693 15.0253 494.685 14.5577 497.735C13.7444 503.082 13.9681 508.47 17.5872 512.902C20.9013 517.05 25.1914 517.741 28.8512 516.786C31.1284 519.388 33.1616 521.686 35.1542 523.942C33.2023 526.281 31.1691 528.598 28.9122 531.18C25.2524 530.286 20.9827 531.018 17.7092 535.186C14.1307 539.659 13.9477 545.026 14.822 550.373C15.3303 553.423 14.761 555.416 12.7685 557.754C5.93687 565.642 5.22525 573.49 10.166 582.843L13.9681 589.247L13.7648 589.654L13.9681 590.04L10.227 596.444C5.3879 605.838 6.18086 613.706 13.0938 621.554C15.1067 623.831 15.6963 625.864 15.2083 628.873C14.395 634.261 14.639 639.608 18.2582 644.061C21.5723 648.168 25.8624 648.879 29.5018 647.944C31.779 650.526 33.8326 652.844 35.8251 655.121C33.8733 657.419 31.84 659.736 29.5832 662.339C25.9234 661.424 21.6536 662.176 18.3802 666.324C14.7814 670.817 14.6187 676.164 15.493 681.572C15.981 684.561 15.432 686.574 13.4394 688.892C6.60783 696.821 5.89621 704.649 10.8369 714.001L14.6187 720.385L14.4357 720.772L14.639 721.178L10.8979 727.603C6.05886 737.016 6.85182 744.885 13.7648 752.712C15.7776 754.969 16.3673 757.002 15.8793 760.032C15.066 765.44 15.2897 770.746 18.9291 775.219C22.2433 779.306 26.513 780.038 30.1728 779.103C32.9786 782.274 35.5608 785.202 38.0007 787.926L73.8463 787.743L73.1753 656.585L73.155 653.271L72.5044 525.406L72.484 522.092L71.8334 394.289V390.954L71.1624 259.775L35.3168 259.958ZM20.0271 730.693C24.7035 736.183 24.6018 737.484 19.0308 745.922C14.5374 740.046 14.8627 735.248 20.0271 730.693ZM41.7011 725.387C48.8784 720.589 50.2203 721.137 53.3921 729.575C53.4938 729.839 53.3921 730.246 53.3921 729.982C48.7971 734.272 43.9173 737.809 40.3389 742.486C34.3409 750.354 37.8177 760.154 46.8452 762.614L49.6103 763.224C45.1779 772.8 35.7641 774.264 29.7052 766.314C25.4964 760.743 24.3375 754.278 26.0047 747.365C28.3226 737.647 33.9546 730.531 41.7011 725.387ZM28.0176 713.676C30.1931 715.811 32.389 717.966 35.1338 720.65C32.4297 723.374 30.2338 725.529 28.0786 727.684C24.9678 724.411 23.3819 722.54 23.3819 720.711C23.3819 718.901 24.9271 716.99 28.0176 713.676ZM18.7665 695.601C24.4391 703.937 24.5408 705.238 19.9254 710.768C14.7204 706.275 14.3544 701.477 18.7665 695.601ZM49.1834 677.953L46.3979 678.604C37.4111 681.186 34.0562 690.986 40.1152 698.793C43.7547 703.429 48.6547 706.885 53.2905 711.195C53.2905 710.931 53.3921 711.297 53.2905 711.582C50.2203 719.999 48.8784 720.589 41.6401 715.872C33.8529 710.768 28.1396 703.734 25.7201 694.076C23.9918 687.123 25.0898 680.658 29.2375 675.046C35.2152 667.056 44.6493 668.418 49.1834 677.953ZM19.3764 599.555C24.0325 605.065 23.9308 606.346 18.3598 614.783C13.8867 608.908 14.1917 604.13 19.3764 599.555ZM41.0302 594.208C48.2278 589.45 49.5697 589.999 52.7212 598.437C52.8228 598.742 52.7212 599.108 52.7212 598.823C48.1261 603.174 43.2464 606.671 39.6679 611.368C33.6903 619.216 37.1467 628.975 46.1742 631.476L48.9394 632.086C44.507 641.662 35.0932 643.126 29.0342 635.176C24.8254 629.646 23.6665 623.201 25.3337 616.227C27.6516 606.509 33.2836 599.413 41.0302 594.208ZM27.3466 582.558C29.5222 584.693 31.718 586.848 34.4629 589.532C31.7587 592.256 29.5628 594.411 27.428 596.546C24.2968 593.273 22.7312 591.382 22.7109 589.593C22.7109 587.763 24.2765 585.852 27.3466 582.558ZM18.0955 564.443C23.7682 572.819 23.8698 574.1 19.2544 579.651C14.0494 575.137 13.6834 570.339 18.0955 564.443ZM48.5124 546.795L45.7269 547.466C36.7401 550.028 33.3853 559.827 39.4443 567.635C43.0837 572.25 47.9838 575.747 52.6195 580.037C52.6195 579.732 52.7212 580.139 52.6195 580.403C49.5493 588.861 48.2074 589.471 40.9692 584.734C33.182 579.63 27.4686 572.596 25.0491 562.898C23.3209 555.985 24.4188 549.54 28.5666 543.908C34.5442 535.938 43.9783 537.28 48.5124 546.795ZM18.7055 468.437C23.3819 473.927 23.2802 475.208 17.6889 483.645C13.2158 477.749 13.5208 472.971 18.7055 468.437ZM40.3592 463.07C47.5568 458.292 48.8987 458.861 52.0502 467.299C52.1519 467.604 52.0502 467.949 52.0502 467.645C47.4551 471.995 42.5957 475.533 39.0173 480.23C33.0193 488.057 36.4758 497.837 45.5032 500.338L48.2684 500.947C43.8563 510.544 34.4222 511.967 28.3632 504.058C24.1545 498.487 22.9956 492.042 24.6628 485.109C26.9807 475.37 32.6127 468.254 40.3592 463.07ZM26.6757 451.42C28.8512 453.534 31.0674 455.69 33.7919 458.353C31.0877 461.098 28.9122 463.273 26.757 465.408C23.6462 462.155 22.0603 460.264 22.0399 458.414C22.0399 456.625 23.6055 454.714 26.6757 451.42ZM17.4449 433.284C23.0972 441.62 23.2192 442.962 18.6038 448.492C13.3784 443.999 13.0125 439.201 17.4449 433.284ZM47.8414 415.637L45.0763 416.287C36.0691 418.89 32.7143 428.689 38.7936 436.497C42.4128 441.112 47.3331 444.65 51.9689 448.899C51.9689 448.614 52.0502 448.96 51.9689 449.245C48.8987 457.723 47.5568 458.312 40.3185 453.595C32.511 448.492 26.818 441.458 24.3985 431.78C22.6499 424.847 23.7478 418.341 27.8956 412.77C33.8733 404.8 43.3074 406.142 47.8414 415.637ZM18.0345 337.238C22.7109 342.789 22.6092 344.07 17.0382 352.487C12.5448 346.632 12.8498 341.854 18.0345 337.238ZM39.6883 331.912C46.8858 327.134 48.2278 327.723 51.3996 336.14C51.4809 336.425 51.3996 336.811 51.3996 336.547C46.8045 340.857 41.9248 344.375 38.3463 349.031C32.3483 356.94 35.8048 366.658 44.8323 369.179L47.6178 369.809C43.1854 379.406 33.7716 380.849 27.6923 372.9C23.5039 367.329 22.3246 360.884 23.9918 353.951C26.3097 344.212 31.9417 337.116 39.6883 331.912ZM26.0047 320.282C28.1802 322.396 30.3965 324.531 33.121 327.215C30.4168 329.939 28.2412 332.115 26.086 334.27C22.9752 331.017 21.3893 329.085 21.3893 327.276C21.369 325.487 22.9346 323.576 26.0047 320.282ZM16.7739 302.106C22.4263 310.502 22.5482 311.763 17.9328 317.354C12.7075 312.82 12.3415 308.063 16.7739 302.106ZM47.1705 284.498L44.4053 285.149C35.3982 287.711 32.0434 297.551 38.1227 305.359C41.7418 309.974 46.6622 313.451 51.2979 317.74C51.2979 317.476 51.3996 317.801 51.2979 318.127C48.2278 326.585 46.8858 327.174 39.6476 322.457C31.84 317.334 26.147 310.319 23.7275 300.642C21.9993 293.688 23.0972 287.203 27.2246 281.632C33.2226 273.621 42.6364 274.963 47.1705 284.498Z" fill="#F9F5F0"/>
</g>
</g>
</g>
<mask id="mask18_5_279" style="mask-type:luminance" maskUnits="userSpaceOnUse" x="0" y="5" width="380" height="256">
<path d="M0 5.20459H379.967V260.243H0V5.20459Z" fill="white"/>
</mask>
<g mask="url(#mask18_5_279)">
<mask id="mask19_5_279" style="mask-type:luminance" maskUnits="userSpaceOnUse" x="2" y="1" width="1007" height="1314">
<path d="M2.21631 6.74986L1001.42 1.66699L1008.07 1309.16L8.86492 1314.25L2.21631 6.74986Z" fill="white"/>
</mask>
<g mask="url(#mask19_5_279)">
<mask id="mask20_5_279" style="mask-type:luminance" maskUnits="userSpaceOnUse" x="2" y="1" width="1007" height="1314">
<path d="M2.21631 6.74986L1001.42 1.66699L1008.07 1309.16L8.86492 1314.25L2.21631 6.74986Z" fill="white"/>
</mask>
<g mask="url(#mask20_5_279)">
<path d="M374.701 36.7797C371.936 34.4009 368.988 31.8595 365.796 29.0944C366.69 25.4144 365.938 21.1448 361.811 17.8308C357.317 14.2931 351.99 14.0898 346.602 14.9844C343.593 15.4926 341.54 14.9437 339.262 12.9512C331.353 6.0995 323.464 5.40822 314.111 10.3284L307.748 14.1304L307.321 13.9068L306.975 14.1304L300.509 10.4098C291.116 5.55055 283.268 6.34348 275.419 13.2765C273.142 15.2893 271.129 15.8586 268.1 15.391C262.712 14.5371 257.364 14.8014 252.932 18.3797C248.805 21.7344 248.093 26.0244 249.049 29.684C246.466 31.9612 244.149 33.974 241.871 36.0275C239.594 33.9943 237.276 32.0018 234.633 29.745C235.528 26.0854 234.796 21.8157 230.648 18.4814C226.155 14.964 220.828 14.7607 215.44 15.6553C212.41 16.1636 210.397 15.5943 208.1 13.6018C200.19 6.77044 192.322 6.05883 182.969 10.9994L176.605 14.8014L176.198 14.5574L175.792 14.8014L169.367 11.0807C159.973 6.22149 152.085 7.01441 144.257 13.9271C141.979 15.9603 139.967 16.5295 136.937 16.0619C131.569 15.208 126.222 15.4723 121.749 19.0507C117.642 22.4054 116.951 26.6953 117.886 30.3346C115.304 32.6321 112.986 34.6449 110.709 36.6984C108.431 34.6652 106.114 32.6728 103.47 30.416C104.019 26.8579 104.446 22.2224 98.6313 19.4776C92.5317 16.6719 84.6021 16.4482 77.8112 19.9859C73.9481 21.7141 71.1829 21.9987 67.3401 21.2261C54.4902 19.3353 42.5146 25.8617 36.0489 38.8332C34.5444 41.9236 33.7311 45.2579 32.7958 48.2467L32.2875 48.511L32.1248 49.0599C29.3596 50.5238 26.3098 52.0283 23.504 54.0005C11.996 62.9667 8.01089 75.9992 12.24 88.32C13.7852 91.9187 14.0699 94.6431 13.1549 98.7704C11.4267 107.066 11.996 111.559 15.5744 116.113C18.8886 120.22 23.1583 120.952 26.8181 119.997C29.0953 122.579 31.1489 124.896 33.1414 127.153C31.1692 129.471 29.1563 131.809 26.8995 134.391C23.2193 133.537 18.9496 134.249 15.6761 138.356C12.0976 142.91 11.9147 148.217 12.7889 153.625C13.2973 156.614 12.7483 158.667 10.7354 160.944C3.90379 168.873 3.19216 176.721 8.13288 186.094L11.935 192.478L11.7317 192.885L11.935 193.231L8.21421 199.676C3.37516 209.089 4.14778 216.937 11.0607 224.785C13.0939 227.062 13.6632 229.095 13.1956 232.104C12.3823 237.492 12.606 242.819 16.2454 247.292C19.5595 251.419 23.8293 252.09 27.4891 251.155C30.2949 254.367 32.8771 257.234 35.317 259.979L71.1626 259.796L70.4916 128.637L70.4713 125.323C70.4713 125.323 70.4916 117.536 70.4916 105.846C70.6136 99.9497 72.7891 92.2034 77.9332 86.0429C88.9532 72.5225 104.284 73.844 109.265 74.027L112.579 74.0067L240.407 73.3561L243.722 73.3357L374.884 72.6648L374.701 36.7797ZM17.3433 202.766C22.0197 208.296 21.9181 209.577 16.3471 217.994C11.8537 212.118 12.179 207.361 17.3433 202.766ZM39.0174 197.48C46.1947 192.661 47.5366 193.271 50.7084 201.668C50.8101 201.953 50.7084 202.319 50.7084 202.075C46.1133 206.385 41.2336 209.923 37.6552 214.599C31.6572 222.447 35.1136 232.226 44.1411 234.707L46.9266 235.337C42.4942 244.913 33.0804 246.357 27.0011 238.427C22.8127 232.857 21.6334 226.432 23.3007 219.458C25.6389 209.76 31.2709 202.685 39.0174 197.48ZM25.3339 185.81C27.5094 187.904 29.7053 190.059 32.4501 192.783C29.746 195.467 27.5501 197.642 25.3949 199.777C22.2841 196.484 20.6982 194.633 20.6982 192.844C20.6982 190.994 22.2434 189.103 25.3339 185.81ZM16.0828 167.674C21.7554 176.05 21.8571 177.331 17.2417 182.882C12.0367 178.328 11.6707 173.57 16.0828 167.674ZM46.4997 150.067L43.7142 150.697C34.7273 153.259 31.3725 163.079 37.4315 170.866C41.071 175.542 45.971 178.978 50.6068 183.268C50.6068 183.004 50.7084 183.37 50.6068 183.675C47.5366 192.092 46.1947 192.722 38.9564 187.985C31.1692 182.841 25.4559 175.806 23.0363 166.149C21.3081 159.196 22.4061 152.751 26.5538 147.119C32.5315 139.149 41.9656 140.491 46.4997 150.067ZM29.0547 62.743C29.8273 71.5872 28.343 71.6686 19.9865 80.6551C17.6077 71.6076 21.6944 65.2845 29.0547 62.743ZM50.4034 69.4524C59.3292 70.2047 59.0243 71.7092 58.089 79.0692C58.028 79.2929 57.8247 79.5368 57.9263 79.3539C52.6196 80.1265 45.8287 80.4721 41.254 83.7861C32.4908 89.3366 34.768 101.597 43.7955 103.833L46.52 104.484C41.6199 113.409 32.5111 115.361 26.3505 107.269C22.9754 101.19 21.3284 92.0204 26.0862 84.4774C31.2912 73.4171 41.5996 69.1881 50.4034 69.4524ZM48.2686 50.8898C47.9229 54.0818 48.0856 57.7415 48.3092 61.7061C44.3444 62.2551 40.9083 62.8244 37.6958 63.7189C37.3705 58.8191 37.8178 55.993 39.2004 54.1835C40.7457 52.4756 43.3278 51.4387 48.2686 50.8898ZM61.4031 30.2126C54.2869 40.2767 54.3885 41.5576 45.5847 42.6352C46.6217 34.8279 52.0707 29.745 61.4031 30.2126ZM89.9291 51.4997L88.7295 48.9786C84.8664 40.7037 72.3215 40.724 68.6617 50.5238C66.2015 55.5457 67.2385 62.3567 67.5028 67.7039C67.6654 67.5819 67.5028 67.8666 67.2588 67.9479C60.1425 70.2047 58.8209 70.8756 56.2998 62.2347C54.4089 53.6345 56.5437 42.8182 66.2828 35.4582C72.8908 29.6434 81.8979 28.7894 88.8922 31.4325C99.2413 36.3731 96.8014 45.9086 89.9291 51.4997ZM166.276 20.2096C160.787 24.8655 159.465 24.7841 151.068 19.2133C156.924 14.6794 161.681 15.025 166.276 20.2096ZM171.583 41.8626C176.361 49.0599 175.812 50.3815 167.374 53.5329C167.11 53.6345 166.724 53.5329 167.008 53.5329C162.657 48.9583 159.119 44.0787 154.484 40.48C146.615 34.5229 136.835 37.9793 134.335 47.0065L133.704 49.8122C124.168 45.3596 122.705 35.9258 130.614 29.867C136.185 25.6177 142.65 24.4995 149.584 26.1667C159.302 28.4845 166.398 34.1163 171.583 41.8626ZM183.254 28.1795C181.119 30.3753 179.004 32.5304 176.3 35.2955C173.576 32.5508 171.42 30.4363 169.245 28.2608C172.539 25.1094 174.43 23.5643 176.239 23.5236C178.028 23.5643 179.96 25.0891 183.254 28.1795ZM201.37 18.949C193.033 24.6012 191.712 24.7231 186.161 20.1079C190.716 14.8827 195.473 14.4964 201.37 18.949ZM219.018 49.3852L218.388 46.5795C215.785 37.5726 205.965 34.218 198.178 40.2564C193.542 43.8957 190.065 48.8363 185.795 53.4312C186.06 53.4312 185.694 53.5532 185.389 53.4312C176.93 50.3815 176.361 49.0599 181.058 41.8219C186.182 34.0146 193.196 28.3218 202.895 25.9024C209.808 24.1539 216.314 25.2111 221.925 29.3994C229.916 35.3768 228.554 44.831 219.018 49.3852ZM297.419 19.5386C291.929 24.2149 290.648 24.1132 282.21 18.5424C288.046 14.0288 292.844 14.3541 297.419 19.5386ZM302.725 41.212C307.524 48.389 306.955 49.7105 298.537 52.8619C298.232 52.9839 297.866 52.8619 298.151 52.8619C293.8 48.3077 290.262 43.4078 285.565 39.8091C277.758 33.852 267.998 37.3083 265.497 46.3355L264.847 49.1413C255.291 44.6887 253.867 35.2549 261.777 29.1961C267.348 24.9468 273.793 23.8286 280.767 25.4957C290.465 27.8135 297.541 33.4657 302.725 41.212ZM314.396 27.5086C312.282 29.7247 310.126 31.8595 307.443 34.6246C304.718 31.8798 302.563 29.7654 300.387 27.5899C303.681 24.4588 305.572 22.8933 307.382 22.873C309.171 22.8933 311.102 24.4182 314.396 27.5086ZM332.553 18.2781C324.176 23.9302 322.875 24.0522 317.304 19.437C321.858 14.2118 326.595 13.8255 332.553 18.2781ZM350.16 48.7143L349.53 45.9086C346.907 36.9017 337.087 33.5673 329.32 39.6058C324.684 43.2248 321.207 48.1654 316.938 52.7603C317.222 52.7603 316.836 52.8823 316.551 52.7603C308.073 49.7105 307.504 48.389 312.241 41.151C317.324 33.364 324.359 27.6509 334.057 25.2314C340.97 23.5033 347.456 24.5402 353.048 28.7284C361.079 34.7262 359.696 44.16 350.16 48.7143Z" fill="#F9F5F0"/>
</g>
</g>
</g>
<mask id="mask21_5_279" style="mask-type:luminance" maskUnits="userSpaceOnUse" x="369" y="0" width="537" height="73">
<path d="M369.558 0H905.676V72.8681H369.558V0Z" fill="white"/>
</mask>
<g mask="url(#mask21_5_279)">
<mask id="mask22_5_279" style="mask-type:luminance" maskUnits="userSpaceOnUse" x="2" y="1" width="1007" height="1314">
<path d="M2.21655 6.74986L1001.42 1.66699L1008.07 1309.16L8.86517 1314.25L2.21655 6.74986Z" fill="white"/>
</mask>
<g mask="url(#mask22_5_279)">
<mask id="mask23_5_279" style="mask-type:luminance" maskUnits="userSpaceOnUse" x="2" y="1" width="1007" height="1314">
<path d="M2.21655 6.74986L1001.42 1.66699L1008.07 1309.16L8.86517 1314.25L2.21655 6.74986Z" fill="white"/>
</mask>
<g mask="url(#mask23_5_279)">
<path d="M902.606 34.0956C899.861 31.7169 896.933 29.1754 893.721 26.39C894.636 22.7303 893.904 18.4607 889.756 15.1467C885.242 11.609 879.935 11.4057 874.527 12.3003C871.498 12.8086 869.485 12.2596 867.146 10.2671C859.278 3.41541 851.389 2.72415 841.996 7.64436L835.652 11.4464L835.286 11.2227L834.859 11.4464L828.454 7.72569C819.041 2.86646 811.172 3.65939 803.324 10.5924C801.087 12.6052 799.074 13.1745 796.025 12.7069C790.616 11.853 785.31 12.1173 780.836 15.6956C776.75 19.0503 776.038 23.3403 776.994 26.9999C774.371 29.2771 772.073 31.2899 769.816 33.3434C767.539 31.3102 765.16 29.3177 762.558 27.0609C763.473 23.4013 762.741 19.1317 758.593 15.7973C754.039 12.2799 748.732 12.0766 743.385 12.9712C740.355 13.4795 738.342 12.9102 736.004 10.9177C728.156 4.08635 720.267 3.37475 710.914 8.3153L704.489 12.1173L704.123 11.8733L703.717 12.1173L697.312 8.3763C687.898 3.53741 680.03 4.33033 672.202 11.243C669.925 13.2762 667.871 13.8455 664.903 13.3778C659.474 12.5239 654.167 12.7882 649.714 16.3666C645.587 19.7213 644.896 24.0112 645.851 27.6506C643.228 29.9277 640.931 31.9608 638.674 34.0143C636.397 31.9812 634.018 29.9887 631.415 27.7319C632.33 24.0722 631.598 19.8026 627.451 16.4682C622.957 12.9509 617.61 12.7272 612.263 13.6422C609.213 14.1504 607.2 13.5812 604.862 11.5887C597.013 4.75729 589.125 4.04569 579.772 8.98624L573.347 12.7679L572.981 12.5443L572.574 12.7882L566.17 9.04724C556.776 4.20834 548.908 4.98094 541.1 11.914C538.782 13.9268 536.769 14.5164 533.76 14.0488C528.372 13.1949 523.025 13.4388 518.572 17.0172C514.445 20.3922 513.774 24.6618 514.689 28.3215C512.086 30.5986 509.789 32.6318 507.532 34.6852C505.214 32.6521 502.896 30.6596 500.293 28.4028C501.188 24.7431 500.456 20.4532 496.308 17.1392C491.815 13.6218 486.447 13.3982 481.059 14.3131C478.07 14.801 476.057 14.2521 473.74 12.2596C465.83 5.42823 457.982 4.71663 448.609 9.65718L442.245 13.4388L441.838 13.2152L441.432 13.4388L435.007 9.71818C425.613 4.87928 417.724 5.67221 409.876 12.5849C407.64 14.5977 405.607 15.1873 402.577 14.7197C397.169 13.8658 391.862 14.1301 387.409 17.6881C383.302 21.0631 382.57 25.3531 383.546 28.9924C380.374 31.7982 377.447 34.3803 374.702 36.7997L374.885 72.6848L506.047 72.0139L509.362 71.9935L637.21 71.3429L640.504 71.3226L768.332 70.672L771.646 70.6517L902.768 70.001L902.606 34.0956ZM431.896 18.8673C426.406 23.5233 425.085 23.4216 416.667 17.8508C422.543 13.3372 427.321 13.6828 431.896 18.8673ZM437.182 40.5204C442.001 47.6974 441.432 49.0189 433.014 52.1703C432.709 52.2923 432.343 52.1703 432.587 52.1703C428.297 47.6161 424.78 42.7162 420.083 39.1378C412.235 33.1807 402.435 36.6371 399.954 45.6439L399.344 48.47C389.768 43.9971 388.324 34.5836 396.274 28.5045C401.804 24.2755 408.29 23.1573 415.203 24.8245C424.922 27.1423 432.038 32.7741 437.182 40.5204ZM448.914 26.8373C446.759 29.0331 444.624 31.1882 441.94 33.9533C439.195 31.2086 437.02 29.0738 434.905 26.8983C438.179 23.7672 440.049 22.222 441.879 22.1814C443.668 22.2017 445.58 23.7266 448.914 26.8373ZM466.989 17.5865C458.653 23.2589 457.332 23.3606 451.801 18.7454C456.295 13.5202 461.093 13.1339 466.989 17.5865ZM484.638 48.0227L483.967 45.217C481.405 36.2304 471.584 32.8757 463.797 38.9142C459.121 42.5535 455.705 47.4738 451.395 52.089C451.679 52.089 451.293 52.1907 451.008 52.089C442.57 49.0189 441.96 47.6974 446.698 40.4797C451.822 32.6724 458.836 26.9593 468.514 24.5398C475.468 22.8117 481.933 23.8689 487.545 28.0572C495.536 34.0346 494.173 43.4684 484.638 48.0227ZM563.059 18.1964C557.528 22.8523 556.247 22.771 547.83 17.2002C553.686 12.6662 558.464 13.0119 563.059 18.1964ZM568.365 39.8494C573.144 47.0265 572.595 48.3683 564.157 51.4994C563.852 51.6214 563.486 51.5197 563.75 51.5197C559.46 46.9451 555.922 42.0452 551.205 38.4669C543.377 32.5098 533.597 35.9661 531.117 44.9933L530.507 47.7991C520.931 43.3465 519.467 33.9127 527.416 27.8539C532.947 23.6046 539.412 22.4863 546.366 24.1535C556.105 26.4713 563.181 32.1031 568.365 39.8494ZM580.036 26.1664C577.901 28.3622 575.787 30.5173 573.062 33.2824C570.317 30.5376 568.162 28.4232 566.048 26.2273C569.301 23.0963 571.212 21.5511 573.001 21.5104C574.811 21.5308 576.722 23.076 580.036 26.1664ZM598.132 16.9359C589.775 22.588 588.474 22.71 582.964 18.0947C587.437 12.8696 592.235 12.4833 598.132 16.9359ZM615.76 47.3518L615.129 44.5664C612.547 35.5595 602.747 32.2048 595.001 38.2433C590.345 41.8826 586.847 46.8028 582.557 51.4181C582.801 51.4181 582.435 51.5197 582.191 51.4181C573.733 48.348 573.144 47.0265 577.861 39.8088C582.964 32.0015 589.999 26.2883 599.657 23.8892C606.59 22.1407 613.056 23.198 618.688 27.3862C626.658 33.3637 625.316 42.8178 615.76 47.3518ZM694.16 17.5255C688.65 22.1814 687.39 22.1001 678.952 16.5292C684.808 11.9953 689.586 12.3409 694.16 17.5255ZM699.528 39.1785C704.306 46.3759 703.757 47.6974 695.299 50.8488C694.994 50.9504 694.628 50.8488 694.892 50.8488C690.602 46.2742 687.065 41.3946 682.368 37.796C674.52 31.8388 664.74 35.2952 662.259 44.3224L661.67 47.1281C652.093 42.6755 650.609 33.2417 658.559 27.1829C664.11 22.9336 670.535 21.8154 677.508 23.4826C687.248 25.8004 694.323 31.4322 699.528 39.1785ZM711.199 25.4954C709.044 27.6912 706.949 29.8464 704.225 32.6114C701.48 29.8667 699.305 27.7522 697.19 25.5767C700.484 22.4254 702.354 20.8802 704.164 20.8395C705.973 20.8802 707.885 22.405 711.199 25.4954ZM729.274 16.2649C720.918 21.9171 719.616 22.0391 714.106 17.4238C718.6 12.1986 723.398 11.8123 729.274 16.2649ZM746.943 46.7012L746.251 43.8954C743.71 34.8886 733.91 31.5339 726.102 37.5723C721.487 41.2117 717.949 46.1522 713.7 50.7471C713.964 50.7471 713.659 50.8691 713.334 50.7471C704.876 47.6771 704.245 46.3759 709.003 39.1378C714.106 31.3306 721.141 25.6377 730.819 23.2183C737.753 21.4698 744.259 22.527 749.83 26.7153C757.841 32.6928 756.458 42.1469 746.943 46.7012ZM825.344 16.8545C819.813 21.5308 818.573 21.4291 810.094 15.8583C815.95 11.3447 820.748 11.67 825.344 16.8545ZM830.671 38.5279C835.449 45.7049 834.879 47.0265 826.441 50.1778C826.157 50.2998 825.791 50.1778 826.055 50.1778C821.745 45.6236 818.227 40.7237 813.51 37.125C805.662 31.1679 795.882 34.6243 793.463 43.6514L792.792 46.4572C783.215 42.0046 781.772 32.5708 789.701 26.512C795.252 22.2627 801.697 21.1445 808.692 22.8117C818.39 25.1294 825.466 30.7816 830.671 38.5279ZM842.341 24.8245C840.206 27.0406 838.092 29.1754 835.388 31.9405C832.622 29.1957 830.467 27.0813 828.332 24.9058C831.626 21.7748 833.517 20.2092 835.327 20.1889C837.116 20.2092 839.027 21.7341 842.341 24.8245ZM860.478 15.594C852.06 21.2461 850.82 21.3681 845.228 16.7529C849.742 11.5277 854.52 11.1414 860.478 15.594ZM878.085 46.0302L877.414 43.2245C874.913 34.2176 865.032 30.8629 857.245 36.9217C852.65 40.5407 849.153 45.4813 844.842 50.0762C845.167 50.0762 844.801 50.1982 844.476 50.0762C836.018 47.0265 835.469 45.7049 840.166 38.4669C845.269 30.6799 852.304 24.9668 861.962 22.5473C868.895 20.8192 875.401 21.8561 880.993 26.0444C889.004 32.0422 887.601 41.476 878.085 46.0302Z" fill="#F9F5F0"/>
</g>
</g>
</g>
<mask id="mask24_5_279" style="mask-type:luminance" maskUnits="userSpaceOnUse" x="57" y="62" width="896" height="1193">
<path d="M57.2551 62.458H952.521V1254.37H57.2551V62.458Z" fill="white"/>
</mask>
<g mask="url(#mask24_5_279)">
<mask id="mask25_5_279" style="mask-type:luminance" maskUnits="userSpaceOnUse" x="2" y="1" width="1007" height="1314">
<path d="M2.21606 6.74986L1001.42 1.66699L1008.07 1309.16L8.86468 1314.25L2.21606 6.74986Z" fill="white"/>
</mask>
<g mask="url(#mask25_5_279)">
<mask id="mask26_5_279" style="mask-type:luminance" maskUnits="userSpaceOnUse" x="2" y="1" width="1007" height="1314">
<path d="M2.21606 6.74986L1001.42 1.66699L1008.07 1309.16L8.86468 1314.25L2.21606 6.74986Z" fill="white"/>
</mask>
<g mask="url(#mask26_5_279)">
<path d="M882.68 66.1991C916.736 65.9755 944.713 93.6263 944.937 127.661L952.033 1182.05C952.216 1216.11 924.584 1244.12 890.528 1244.35L128.357 1249.45C94.341 1249.67 66.2623 1222 66.0386 1187.97L59.0241 133.557C58.8004 99.5021 86.4928 71.5056 120.508 71.282L882.68 66.1991Z" fill="#F9F5F0"/>
</g>
</g>
</g>
<mask id="mask27_5_279" style="mask-type:luminance" maskUnits="userSpaceOnUse" x="52" y="57" width="906" height="1203">
<path d="M52.0505 57.2534H957.726V1259.58H52.0505V57.2534Z" fill="white"/>
</mask>
<g mask="url(#mask27_5_279)">
<mask id="mask28_5_279" style="mask-type:luminance" maskUnits="userSpaceOnUse" x="2" y="1" width="1007" height="1314">
<path d="M2.21631 6.74986L1001.42 1.66699L1008.07 1309.16L8.86492 1314.25L2.21631 6.74986Z" fill="white"/>
</mask>
<g mask="url(#mask28_5_279)">
<mask id="mask29_5_279" style="mask-type:luminance" maskUnits="userSpaceOnUse" x="2" y="1" width="1007" height="1314">
<path d="M2.21631 6.74986L1001.42 1.66699L1008.07 1309.16L8.86492 1314.25L2.21631 6.74986Z" fill="white"/>
</mask>
<g mask="url(#mask29_5_279)">
<path d="M128.296 1254.82C91.2303 1255.02 60.9151 1225.03 60.6711 1188.01L53.6565 133.598C53.4125 96.5137 83.3821 66.1587 120.468 65.9148L882.659 60.8319C919.766 60.6489 950.081 90.6175 950.325 127.641L957.38 1182.03C957.583 1219.12 927.614 1249.49 890.569 1249.74L128.296 1254.82ZM882.802 71.5669L120.549 76.6498C89.3801 76.8531 64.2089 102.369 64.4122 133.537L71.4268 1187.95C71.6301 1219.06 97.1063 1244.23 128.235 1244.08L128.255 1249.45L128.316 1244.08L890.508 1239C921.616 1238.78 946.828 1213.26 946.665 1182.09L939.589 127.722C939.366 96.595 913.89 71.4246 882.802 71.5669Z" fill="#7A7D35"/>
</g>
</g>
</g>
<mask id="mask30_5_279" style="mask-type:luminance" maskUnits="userSpaceOnUse" x="166" y="270" width="620" height="308">
<path d="M785.959 270.653H166.561V577.74H785.959V270.653Z" fill="white"/>
</mask>
<g mask="url(#mask30_5_279)">
<path d="M470.035 365.82C469.954 348.721 459.91 336.542 447.06 326.641C448.748 326.051 464.098 320.562 464.098 319.139C464.098 318.285 463.529 318 462.39 318.02C458.405 318.041 445.616 322.371 441.631 323.53C414.224 310.559 393.424 308.404 363.231 307.123C352.028 285.551 320.391 279.716 298.452 279.838C269.418 279.98 234.447 293.541 216.351 316.983C214.664 319.281 203.054 334.143 203.074 336.42C203.074 337.274 203.643 337.844 204.497 337.823C205.636 337.823 210.15 330.687 212.142 327.82C232.21 298.97 263.745 283.721 298.473 283.538C317.544 283.436 348.896 287.828 358.392 307.428C310.855 308.81 271.594 316.13 230.706 341.686C203.745 358.622 172.596 390.665 172.759 424.842C172.881 447.613 191.139 455.787 211.654 455.685C245.812 455.502 276.778 441.676 303.454 423.602C331.553 404.389 369.513 367.182 369.33 330.158C369.29 323.611 367.277 317.634 365.243 311.392C390.882 311.819 412.821 313.141 435.369 326.112C404.972 339.938 380.025 361.997 357.944 386.598C334.725 412.338 315.511 440.924 294.569 468.067C279.584 487.504 255.246 519.526 228.205 519.668C222.227 519.688 218.222 518.286 213.078 515.175C215.924 513.182 218.181 510.6 218.181 506.9C218.14 502.346 214.42 497.812 209.58 497.832C204.172 497.852 200.207 502.996 200.228 508.14C200.309 520.949 220.824 523.978 229.933 523.917C278.059 523.673 317.382 472.519 342.248 437.082C360.913 410.508 388.605 367.934 413.553 347.013C421.787 340.141 430.855 334.692 440.228 329.508C449.093 336.014 453.993 346.24 454.034 357.057C454.156 378.425 435.735 399.021 417.558 407.926C408.185 412.541 379.476 422.362 369.229 422.423C359.266 422.463 355.565 423.907 355.586 425.615C355.606 429.884 373.559 432.08 373.62 444.889C373.681 457.413 349.608 483.458 349.73 507.937C349.771 514.768 354.65 523.287 362.336 523.246C379.435 523.165 410.3 490.553 421.055 479.391C421.909 478.537 424.756 476.24 424.735 474.817C424.735 473.963 424.166 473.678 423.312 473.678C420.466 473.699 385.352 513.731 369.981 513.813C367.134 513.833 364.552 512.145 364.552 508.994C364.491 498.462 386.572 472.438 386.491 455.075C386.409 439.42 375.837 432.629 362.987 426.143C399.442 425.96 410.523 423.337 424.735 417.299C444.62 408.658 470.157 390.014 470.035 365.82ZM365.06 329.325C365.223 360.655 339.178 390.4 316.487 409.024C289.547 431.084 249.208 451.781 213.627 451.964C195.389 452.066 176.866 446.17 176.744 424.822C176.561 389.79 210.028 359.436 237.273 342.499C275.03 318.956 317.138 311.921 360.974 311.697C363.861 317.654 365.02 322.778 365.06 329.325Z" fill="#585F26"/>
<path d="M483.005 457.997C483.29 457.143 483.554 456.004 483.554 455.151C483.534 450.027 476.682 448.644 472.697 448.665C448.217 448.787 401.392 480.911 401.535 507.402C401.575 516.796 408.732 523.017 417.841 522.976C428.658 522.915 441.691 509.476 449.051 502.604C447.932 506.02 446.53 510.29 446.55 513.705C446.591 519.967 451.714 522.793 457.428 522.773C474.222 522.692 502.565 496.627 513.89 485.465C515.883 483.737 526.374 474.303 526.354 472.026C526.354 471.172 526.069 470.602 525.215 470.602C523.792 470.602 476.763 517.832 462.226 517.914C460.233 517.914 457.672 516.796 457.651 514.234C457.651 510.818 466.414 499.087 468.671 496.24L505.452 449.336L489.227 450.291L483.005 457.997ZM477.882 458.322C477.943 471.131 430.061 519.5 417.821 519.561C414.974 519.561 412.392 516.45 412.372 513.604C412.331 503.072 433.293 481.033 440.084 474.16C447.16 467.004 461.047 452.711 472.148 452.65C475.279 452.629 477.861 455.171 477.882 458.322Z" fill="#585F26"/>
<path d="M564.764 522.223C583.714 497.073 594.449 481.926 617.404 461.594C621.104 458.158 628.465 451.571 633.873 451.53C636.15 451.53 638.163 453.502 638.163 455.779C638.224 465.193 603.354 497.54 603.436 511.772C603.476 519.173 609.454 521.999 616.021 521.958C632.246 521.877 665.103 486.399 675.859 475.521C676.713 474.667 680.678 471.231 680.678 470.093C680.678 469.239 679.803 468.67 678.949 468.69C678.095 468.69 631.087 516.754 618.827 516.815C616.835 516.835 615.127 515.127 615.106 513.135C615.086 508.865 622.162 499.431 624.419 496.3L642.799 470.581C645.91 466.006 649.874 461.147 649.854 455.454C649.813 448.887 644.385 445.797 638.407 445.817C627.306 445.878 611.711 461.045 604.351 468.202C606.323 464.786 608.58 459.642 608.559 455.657C608.519 449.68 604.513 446.285 598.82 446.305C588.573 446.366 569.867 461.838 562.771 468.426C564.479 465.559 566.147 459.297 566.126 455.861C566.106 450.453 562.67 446.488 557.261 446.529C546.424 446.569 532.558 463.729 524.628 470.601C523.49 471.455 522.371 472.614 522.371 474.037C522.371 474.606 522.941 475.176 523.51 475.155C528.064 475.135 544.188 451.428 554.151 451.367C556.143 451.367 558.136 453.055 558.156 455.047C558.176 459.337 550.247 470.194 547.705 473.326L510.375 521.653L525.462 522.141C531.684 514.415 537.051 505.856 542.988 497.845C554.029 482.983 566.757 468.975 581.802 458.077C584.913 455.779 590.037 452.608 594.022 452.587C596.584 452.587 598.292 453.99 598.312 456.552C598.312 458.829 596.34 462.265 594.937 463.973C580.216 483.695 564.662 502.583 549.942 522.304L564.764 522.223Z" fill="#585F26"/>
<path d="M736.119 456.71C736.403 455.856 736.668 454.717 736.668 453.863C736.647 448.74 729.795 447.357 725.81 447.378C701.33 447.5 654.505 479.623 654.648 506.115C654.688 515.508 661.845 521.73 670.954 521.689C681.771 521.628 694.804 508.189 702.164 501.317C701.046 504.733 699.643 509.002 699.663 512.418C699.704 518.68 704.828 521.506 710.541 521.486C727.335 521.405 755.678 495.34 767.003 484.178C768.996 482.449 779.487 473.016 779.467 470.739C779.467 469.885 779.182 469.315 778.328 469.315C776.905 469.315 729.877 516.545 715.339 516.627C713.347 516.627 710.785 515.508 710.765 512.947C710.765 509.531 719.528 497.8 721.785 494.953L758.565 448.049L742.34 449.004L736.119 456.71ZM730.995 457.035C731.056 469.844 683.174 518.213 670.934 518.274C668.087 518.274 665.505 515.163 665.485 512.316C665.444 501.785 686.407 479.745 693.198 472.873C700.273 465.717 714.16 451.424 725.261 451.363C728.393 451.342 730.975 453.884 730.995 457.035Z" fill="#585F26"/>
</g>
<mask id="mask31_5_279" style="mask-type:luminance" maskUnits="userSpaceOnUse" x="343" y="666" width="438" height="381">
<path d="M780.755 666.222H343.532V1046.18H780.755V666.222Z" fill="white"/>
</mask>
<g mask="url(#mask31_5_279)">
<path d="M712.667 692.161C713.155 692.934 713.399 693.503 713.399 693.869C713.399 694.479 713.155 695.007 712.667 695.495C712.179 696.044 711.63 696.309 711.04 696.309C710.268 696.309 709.698 696.065 709.332 695.577C709.332 695.251 708.519 694.723 706.892 693.95C706.404 693.686 705.449 693.34 704.046 692.893C702.623 692.466 700.732 692.242 698.353 692.242C697.092 692.242 695.75 692.364 694.287 692.568C692.823 692.791 691.216 693.137 689.488 693.625C685.625 694.763 680.867 696.918 675.174 700.05C669.522 703.14 663.178 707.857 656.143 714.2C649.088 720.503 641.525 728.92 633.453 739.493C625.422 750.024 617.126 763.301 608.566 779.342C604.439 786.784 600.433 794.998 596.53 803.984C592.626 812.991 589.068 822.343 585.875 832.042C582.724 841.76 580.203 851.438 578.312 861.075C576.462 870.712 575.547 880.024 575.547 888.97C575.587 898.892 577.173 907.939 580.264 916.133C583.354 924.367 588.336 931.097 595.228 936.301C602.162 941.547 611.453 944.841 623.124 946.142C624.202 946.244 625.32 946.305 626.458 946.305C627.597 946.305 628.695 946.305 629.793 946.305C636.238 946.244 642.318 945.613 648.011 944.434C653.704 943.234 659.031 941.689 664.032 939.798C665.11 939.412 666.167 939.006 667.204 938.579C668.221 938.131 669.176 937.684 670.051 937.196C676.72 933.882 682.291 930.304 686.804 926.461C691.298 922.659 694.652 919.304 696.889 916.377C699.105 913.49 700.224 912.066 700.224 912.066C701.626 910.216 703.253 909.301 705.103 909.301C705.957 909.301 706.831 909.627 707.706 910.277C708.682 910.867 709.17 911.904 709.17 913.368C709.17 914.221 708.865 915.258 708.275 916.458C707.726 917.637 706.77 918.735 705.429 919.711C703.029 921.825 700.346 923.94 697.377 926.054C694.388 928.21 691.521 930.202 688.756 931.991C686.032 933.78 683.815 935.204 682.087 936.301C680.339 937.44 679.485 938.009 679.485 938.009C672.755 941.913 665.13 945.166 656.631 947.768C648.173 950.371 638.292 951.692 627.028 951.753H624.995C608.993 951.428 596.204 948.46 586.607 942.889C577.051 937.298 570.138 929.714 565.869 920.118C561.64 910.562 559.484 899.827 559.444 887.913C559.383 876.527 560.867 864.531 563.917 851.885C566.946 839.198 571.033 826.471 576.197 813.662C581.402 800.873 587.197 788.654 593.602 776.984C603.076 759.58 612.714 745.47 622.473 734.613C632.273 723.715 641.504 715.014 650.125 708.507C650.125 708.507 650.389 708.263 650.938 707.776C651.528 707.247 652.362 706.535 653.46 705.661C643.903 710.927 634.022 717.86 623.775 726.48C613.568 735.101 603.442 745.714 593.358 758.279L587.258 766.086C587.136 766.208 586.119 767.672 584.168 770.478C582.256 773.304 579.715 777.065 576.523 781.782C573.31 786.458 569.772 791.846 565.869 797.966C562.006 804.045 558.02 810.45 553.913 817.159C549.847 823.889 545.963 830.578 542.283 837.246C537.241 846.314 532.361 855.138 527.644 863.759C522.927 872.318 518.576 879.902 514.632 886.53C510.728 893.199 507.271 898.078 504.303 901.169C503.429 902.145 502.554 902.958 501.7 903.608C500.826 904.259 499.911 904.584 498.935 904.584C498.447 904.584 497.675 904.381 496.658 904.015C495.194 903.405 494.462 902.063 494.462 899.949C494.462 898.099 495.275 896.309 496.902 894.581L499.423 891.247C502.351 887.608 505.889 882.83 510.077 876.934C514.306 871.017 518.8 863.596 523.578 854.65C528.335 845.704 533.114 834.807 537.892 821.957C542.649 809.108 546.96 793.879 550.823 776.252C552.815 767.469 553.791 759.377 553.751 751.935C553.69 746.202 553.141 741.017 552.124 736.402C551.087 731.746 549.786 727.599 548.22 723.959C547.834 725.911 547.265 728.087 546.512 730.465C546.512 730.465 545.719 732.905 544.154 737.785C542.568 742.664 540.25 749.313 537.16 757.71C534.11 766.127 530.409 775.561 526.018 786.011C521.626 796.482 516.543 807.298 510.809 818.46C504.791 830.069 498.041 841.475 490.558 852.698C483.117 863.921 474.964 874.107 466.078 883.277C457.234 892.426 447.637 899.745 437.288 905.235C426.98 910.765 416.021 913.551 404.431 913.612H402.561C396.481 913.388 391.785 912.31 388.491 910.358C385.177 908.407 382.818 906.13 381.415 903.527C380.053 900.925 379.24 898.648 378.975 896.696C378.752 894.785 378.65 893.849 378.65 893.849C378.65 893.199 378.996 892.629 379.707 892.141C380.46 891.654 380.887 891.41 381.009 891.41C382.473 891.41 383.225 892.162 383.286 893.687C383.286 893.788 383.408 894.581 383.693 896.045C383.957 897.55 384.668 899.257 385.807 901.169C386.986 903.12 388.857 904.767 391.419 906.13C394.021 907.532 397.6 908.244 402.154 908.244H403.699C411.995 907.959 419.884 905.743 427.366 901.575C434.889 897.448 442.005 891.857 448.674 884.822C455.384 877.828 461.809 869.878 467.949 860.994C474.069 852.109 479.823 842.695 485.191 832.774C490.599 822.811 495.763 812.849 500.643 802.927C509.955 783.795 518.088 767.631 525.042 754.457C531.975 741.282 536.956 731.99 540.006 726.562L545.048 717.779C542.283 712.96 539.315 709.158 536.184 706.393C533.093 703.628 530.43 701.656 528.213 700.456C526.038 699.216 524.96 698.586 524.96 698.586C520.406 696.105 515.628 694.56 510.646 693.95C505.706 693.36 501.07 693.035 496.739 692.974H494.299C485.618 693.035 476.692 694.601 467.542 697.691C458.434 700.741 449.426 705.01 440.541 710.541C431.636 716.03 423.259 722.333 415.411 729.49C407.603 736.646 400.629 744.332 394.509 752.505C391.52 756.368 388.755 760.129 386.214 763.809C383.713 767.509 381.415 771.128 379.301 774.707C372.571 786.804 367.854 797.153 365.15 805.773C362.486 814.353 361.164 821.612 361.164 827.569C361.205 833.16 362.079 837.653 363.767 841.069C365.495 844.484 367.447 847.067 369.623 848.795C371.778 850.543 373.608 851.539 375.072 851.804C376.414 852.088 377.715 852.332 378.975 852.536C380.216 852.698 381.456 852.78 382.717 852.78C387.922 852.739 393.045 851.478 398.088 849.039C403.171 846.558 408.111 843.224 412.889 839.036C419.985 833.017 426.187 825.983 431.514 817.891C436.82 809.819 441.07 801.87 444.282 794.062C446.112 789.894 447.474 785.848 448.349 781.945C449.264 778.041 449.894 774.788 450.219 772.186C450.545 769.583 450.707 768.282 450.707 768.282C450.646 763.951 452.415 761.756 455.994 761.695C457.132 761.817 458.068 762.264 458.84 763.077C459.592 763.89 459.979 765.11 459.979 766.737C459.979 767.611 459.775 768.729 459.409 770.071C458.434 773.873 457.132 777.777 455.506 781.782C453.92 785.808 452.354 789.488 450.789 792.842C449.203 796.156 447.881 798.82 446.804 800.812C445.767 802.764 445.258 803.74 445.258 803.74C441.842 810.694 437.634 817.627 432.652 824.56C427.651 831.452 422.08 837.531 415.899 842.777C410.246 847.615 404.431 851.377 398.413 854.081C392.395 856.805 386.295 858.147 380.114 858.147H378.975C378.365 858.147 377.695 858.127 376.942 858.066C376.17 858.025 375.56 857.985 375.072 857.985C364.824 857.171 357.83 852.902 354.089 845.135C351.425 839.93 350.083 833.627 350.022 826.186V824.722C350.022 824.722 350.185 822.587 350.51 818.297C350.876 814.028 351.974 808.172 353.764 800.731C355.593 793.31 358.664 784.913 362.954 775.52C367.223 766.147 373.201 756.327 380.846 746.08C388.491 735.792 398.433 725.708 410.694 715.827C423.259 705.641 436.475 698.057 450.301 693.056C464.167 688.074 477.79 685.553 491.128 685.492H494.137C501.66 685.614 508.329 686.468 514.144 688.095C519.999 689.721 525.082 691.836 529.433 694.438L531.467 695.739C533.581 697.203 536.184 699.216 539.274 701.757C542.405 704.258 545.496 707.572 548.546 711.679C551.636 715.806 554.198 721.032 556.272 727.375C558.386 733.678 559.464 741.343 559.525 750.39C559.566 759.072 558.407 769.156 556.028 780.644C553.69 792.09 549.44 805.204 543.259 820.005C543.137 820.127 543.097 820.31 543.097 820.575C543.097 821.449 543.219 821.876 543.503 821.876C543.869 821.876 544.195 821.673 544.479 821.225C544.805 820.798 544.967 820.575 544.967 820.575C550.376 811.466 555.499 803.212 560.338 795.77C565.218 788.288 570.037 781.274 574.815 774.707C579.633 768.099 584.574 761.613 589.617 755.27C598.603 744.047 607.428 734.613 616.048 726.968C624.71 719.324 632.802 713.062 640.284 708.182C647.807 703.303 654.435 699.562 660.129 696.959C666.675 693.93 673.324 691.632 680.054 690.046C686.825 688.481 692.579 687.668 697.296 687.607C702.704 687.607 706.587 688.318 708.926 689.721C711.305 691.144 712.545 691.958 712.667 692.161Z" fill="#585F26"/>
<path d="M671.465 820.478C672.217 820.966 672.604 821.698 672.604 822.674C672.604 823.162 672.522 823.549 672.36 823.813C669.595 828.855 666.606 833.938 663.414 839.021C660.201 844.063 656.826 848.678 653.248 852.846C649.71 857.034 645.948 860.369 641.943 862.849C637.978 865.289 633.769 866.55 629.337 866.59C623.258 866.59 618.378 865.086 614.698 862.036C610.997 858.946 609.167 854.432 609.167 848.455C609.167 844.998 609.838 841.054 611.201 836.662C612.543 832.271 614.657 827.391 617.544 822.024L644.464 773.228L659.673 773.147L633.566 820.641C630.15 827.107 627.426 832.677 625.433 837.394C623.42 842.111 622.099 846.076 621.448 849.268C621.448 849.553 621.407 849.837 621.367 850.162C621.306 850.447 621.285 850.772 621.285 851.138C621.285 852.887 621.773 854.778 622.749 856.831C623.766 858.905 625.677 860.166 628.442 860.653C628.768 860.775 629.357 860.816 630.232 860.816C632.346 860.775 634.745 860.166 637.47 859.027C640.174 857.848 643.122 855.693 646.335 852.602C650.177 848.821 653.919 844.205 657.558 838.777C661.177 833.308 664.715 827.513 668.131 821.373C668.72 820.621 669.452 820.234 670.327 820.234C670.815 820.234 671.181 820.316 671.465 820.478ZM671.709 754.116C670.449 756.617 668.883 758.671 666.992 760.297C665.081 761.924 662.966 762.737 660.648 762.737C659.673 762.737 658.636 762.554 657.558 762.168C654.569 760.928 653.085 758.65 653.085 755.336C653.085 753.446 653.695 751.27 654.955 748.83C656.419 746.065 658.229 743.951 660.405 742.487C662.56 740.982 664.634 740.189 666.585 740.128C667.561 740.128 668.415 740.332 669.188 740.698C672.055 741.836 673.519 744.154 673.58 747.61C673.58 749.847 672.949 752.002 671.709 754.116Z" fill="#585F26"/>
<path d="M771.787 820.13C772.539 820.516 772.925 821.187 772.925 822.163C772.925 822.651 772.864 823.037 772.763 823.302C768.961 830.092 764.874 836.782 760.482 843.389C756.131 850.017 751.373 855.426 746.168 859.654C741.004 863.883 735.311 866.039 729.089 866.079C723.01 866.079 718.15 864.595 714.531 861.606C710.953 858.577 709.164 854.206 709.164 848.513C709.164 848.025 709.164 847.517 709.164 846.968C709.164 846.378 709.204 845.829 709.326 845.341C704.609 851.807 699.77 856.869 694.85 860.549C689.97 864.249 685.172 866.161 680.455 866.323H679.723C675.209 866.323 671.631 865.327 668.987 863.314C666.324 861.322 664.433 858.76 663.294 855.669C662.156 852.538 661.586 849.306 661.586 845.992C661.586 845.239 661.586 844.528 661.586 843.877C661.586 843.186 661.627 842.495 661.668 841.844C662.42 836.538 663.884 830.845 666.059 824.766C668.276 818.707 671.183 812.729 674.762 806.874C680.231 797.826 685.538 790.731 690.702 785.567C695.907 780.362 700.827 776.702 705.504 774.588C710.16 772.473 714.389 771.395 718.191 771.334C719.818 771.334 721.302 771.497 722.664 771.822C724.006 772.107 725.307 772.473 726.568 772.961C729.171 773.937 731.061 775.563 732.261 777.841C733.501 780.118 734.132 782.862 734.132 786.054C734.132 787.193 734.05 788.372 733.888 789.551C733.766 790.69 733.603 791.971 733.4 793.374L744.786 772.717L760.238 772.636L733.888 820.13C729.984 827.246 727.137 833.02 725.348 837.452C723.599 841.905 722.42 845.748 721.77 849.001C721.77 849.224 721.729 849.489 721.688 849.814C721.627 850.139 721.607 850.505 721.607 850.871C721.607 852.62 722.115 854.49 723.152 856.483C724.169 858.435 726.039 859.715 728.764 860.305C729.13 860.427 729.496 860.468 729.821 860.468C730.187 860.468 730.573 860.468 730.96 860.468C733.074 860.427 735.433 859.797 738.035 858.597C740.679 857.357 743.586 855.243 746.737 852.254C750.519 848.472 754.24 843.857 757.88 838.428C761.499 832.959 765.036 827.165 768.452 821.025C768.94 820.171 769.611 819.723 770.485 819.723C770.851 819.723 771.299 819.866 771.787 820.13ZM692.979 855.669C700.177 850.261 707.293 841.356 714.287 828.995C715.365 826.88 716.748 824.115 718.435 820.699C720.163 817.243 721.81 813.502 723.396 809.476C725.023 805.471 726.365 801.486 727.463 797.521C728.54 793.577 729.089 790.039 729.089 786.949C729.089 784.835 728.764 783.025 728.113 781.5C727.503 779.935 726.507 778.715 725.104 777.841C724.128 777.19 723.01 776.865 721.77 776.865C718.781 776.865 715.446 778.41 711.766 781.5C708.066 784.55 704.284 788.535 700.38 793.455C696.517 798.396 692.918 803.662 689.563 809.232C686.31 814.986 683.484 820.679 681.105 826.311C678.706 831.963 677.161 837.29 676.47 842.332C676.083 844.345 675.9 846.276 675.9 848.106C675.9 851.969 676.653 854.816 678.177 856.645C679.682 858.496 681.614 859.41 683.952 859.41C686.554 859.37 689.563 858.109 692.979 855.669Z" fill="#585F26"/>
</g>
<mask id="mask32_5_279" style="mask-type:luminance" maskUnits="userSpaceOnUse" x="187" y="541" width="178" height="360">
<path d="M364.352 541.305H187.381V900.441H364.352V541.305Z" fill="white"/>
</mask>
<g mask="url(#mask32_5_279)">
<mask id="mask33_5_279" style="mask-type:luminance" maskUnits="userSpaceOnUse" x="188" y="614" width="172" height="141">
<path d="M188.784 614.173H359.147V754.705H188.784V614.173Z" fill="white"/>
</mask>
<g mask="url(#mask33_5_279)">
<path d="M355.247 642.007C356.325 644.121 356.894 646.622 356.955 649.489C356.955 651.827 356.65 654.043 356.061 656.157C354.699 660.996 352.259 664.981 348.741 668.112C345.264 671.203 341.3 673.48 336.867 674.944C332.475 676.367 327.962 677.119 323.367 677.221C329.71 680.149 334.285 684.093 337.111 689.013C339.978 693.954 341.422 699.667 341.422 706.173C341.462 710.402 340.608 714.875 338.819 719.592C337.03 724.309 334.224 728.741 330.442 732.848C326.64 736.914 321.943 740.106 316.372 742.444C314.461 743.258 311.818 743.929 308.402 744.477C304.986 745.006 301.367 745.311 297.585 745.372C296.976 745.372 296.366 745.311 295.715 745.209C295.064 745.148 294.454 745.128 293.926 745.128C290.713 744.904 286.769 744.254 282.052 743.176C277.375 742.078 273.35 740.493 269.934 738.378C266.132 736.04 262.716 733.173 259.686 729.757C258.385 731.872 256.291 734.474 253.424 737.565C250.537 740.655 246.775 743.42 242.119 745.86C237.443 748.3 231.709 749.804 224.878 750.414C224.268 750.577 223.658 750.658 223.007 750.658C222.357 750.658 221.726 750.679 221.137 750.74C213.919 750.74 208.083 749.296 203.651 746.429C199.198 743.542 195.986 739.862 193.973 735.369C191.98 730.937 190.943 726.342 190.882 721.625C190.882 721.035 190.923 720.527 190.964 720.08C191.025 719.653 191.045 719.226 191.045 718.778C191.492 712.272 193.302 706.295 196.494 700.805C199.625 695.336 203.692 690.233 208.693 685.516C213.736 680.759 219.225 676.367 225.203 672.341C231.221 668.275 237.321 664.432 243.502 660.793C244.905 652.173 247.182 645.158 250.334 639.73C253.526 634.26 256.698 630.093 259.849 627.205C262.98 624.339 265.318 622.407 266.843 621.431C268.998 619.967 271.316 618.91 273.756 618.26C276.237 617.609 278.595 617.284 280.832 617.284C282.235 617.284 283.556 617.365 284.817 617.528C286.057 617.69 287.094 618.077 287.907 618.666C290.612 620.089 292.157 622.306 292.543 625.335C292.746 625.823 292.868 626.27 292.868 626.636C292.909 631.19 291.283 635.46 287.989 639.404C284.675 643.308 280.262 647.049 274.732 650.627C269.242 654.206 263.143 657.825 256.433 661.444C256.372 663.456 256.23 665.652 256.027 668.031C255.864 670.369 255.783 672.789 255.783 675.269C255.783 676.794 255.803 678.4 255.864 680.067C255.966 681.694 256.067 683.32 256.189 684.947C258.182 709.629 266.376 725.935 280.75 733.905C284.492 736.121 287.948 737.666 291.161 738.541C294.353 739.395 297.26 739.842 299.863 739.842C303.38 739.781 306.613 739.11 309.541 737.809C314.36 735.898 318.284 733.173 321.333 729.595C324.424 725.976 326.721 722.032 328.246 717.803C329.751 713.533 330.483 709.487 330.442 705.685C330.442 705.36 330.463 704.933 330.524 704.384C330.564 703.855 330.605 703.367 330.605 702.92C330.605 702.33 330.564 701.761 330.524 701.212C330.463 700.683 330.442 700.053 330.442 699.342C329.893 694.259 328.653 690.274 326.701 687.387C324.79 684.52 322.594 682.426 320.114 681.125C317.613 679.783 315.315 678.908 313.201 678.522C311.086 678.095 309.663 677.872 308.971 677.872C305.169 677.872 301.652 678.685 298.399 680.311C295.186 681.897 292.624 683.971 290.673 686.573C288.721 689.176 287.765 692.022 287.826 695.113C287.826 696.15 288.07 697.593 288.558 699.423C289.087 701.273 290.063 702.9 291.486 704.302C292.95 705.726 294.942 706.417 297.504 706.417C298.683 706.417 299.822 706.234 300.92 705.848C301.347 705.644 301.693 705.502 301.977 705.441C302.892 705.441 303.543 705.848 303.929 706.661C304.031 706.946 304.092 707.23 304.092 707.555C304.092 708.531 303.705 709.243 302.953 709.67C301.266 710.707 299.476 711.215 297.585 711.215C293.356 711.053 290.063 709.955 287.745 707.881C285.407 705.766 283.8 703.327 282.946 700.561C282.072 697.796 281.604 695.357 281.564 693.242V692.185C281.767 687.915 283.15 683.93 285.711 680.23C288.314 676.55 291.12 673.948 294.17 672.423C298.439 670.105 302.486 668.56 306.288 667.787C310.13 667.035 313.79 666.649 317.267 666.649C320.723 666.608 324.119 666.527 327.433 666.405C330.727 666.303 333.98 665.713 337.193 664.615C342.011 662.826 345.691 660.285 348.253 656.971C350.856 653.616 352.157 650.465 352.157 647.537C352.157 646.358 351.933 645.341 351.506 644.528L350.693 643.064C350.307 642.474 349.819 641.966 349.229 641.519C348.619 641.092 347.867 640.828 346.952 640.706C345.651 640.441 345 639.547 345 638.022C345.203 636.843 346.017 636.233 347.44 636.233C350.734 636.558 353.336 638.489 355.247 642.007ZM273.268 625.254C272.069 626.067 270.462 627.571 268.47 629.727C266.518 631.902 264.566 634.891 262.614 638.672C260.662 642.413 259.056 647.252 257.816 653.148C262.899 650.444 267.697 647.74 272.211 645.016C276.704 642.251 280.425 639.445 283.353 636.558C286.321 633.691 287.989 630.784 288.314 627.856C288.314 627.592 288.253 627.429 288.151 627.368C288.09 627.327 288.07 627.246 288.07 627.124C288.07 624.908 287.297 623.363 285.793 622.489C284.593 622.001 283.475 621.757 282.458 621.757C281.157 621.757 279.714 622.082 278.148 622.733C276.623 623.383 274.996 624.237 273.268 625.254ZM219.022 742.2C220.527 742.688 221.991 743.034 223.414 743.258C224.878 743.461 226.26 743.583 227.562 743.583C232.38 743.583 236.691 742.444 240.493 740.167C244.275 737.89 247.528 735.308 250.252 732.441C252.956 729.574 254.929 727.318 256.189 725.691C247.995 713.614 243.522 699.586 242.77 683.646L242.363 675.513C242.363 674.436 242.384 673.399 242.445 672.423C242.485 671.406 242.526 670.43 242.526 669.495C232.543 675.899 224.003 683.076 216.907 691.046C209.791 698.976 205.684 707.779 204.546 717.477C204.424 718.087 204.383 718.677 204.383 719.266C204.383 719.876 204.383 720.527 204.383 721.218C204.383 723.719 204.749 726.321 205.521 729.026C206.335 731.689 207.799 734.169 209.913 736.508C212.028 738.886 215.057 740.777 219.022 742.2Z" fill="#585F26"/>
</g>
</g>
</svg>
