<svg width="682" height="1369" viewBox="0 0 682 1369" fill="none" xmlns="http://www.w3.org/2000/svg">
<mask id="mask0_4_208" style="mask-type:luminance" maskUnits="userSpaceOnUse" x="0" y="0" width="682" height="1369">
<path d="M0 0H681.859V1368.88H0V0Z" fill="white"/>
</mask>
<g mask="url(#mask0_4_208)">
<mask id="mask1_4_208" style="mask-type:luminance" maskUnits="userSpaceOnUse" x="-239" y="-67" width="1164" height="1511">
<path d="M33.9344 -66.3823L924.767 116.682L652.134 1443.31L-238.699 1260.25L33.9344 -66.3823Z" fill="white"/>
</mask>
<g mask="url(#mask1_4_208)">
<mask id="mask2_4_208" style="mask-type:luminance" maskUnits="userSpaceOnUse" x="-239" y="-67" width="1164" height="1511">
<path d="M33.9344 -66.3823L924.767 116.682L652.134 1443.31L-238.699 1260.25L33.9344 -66.3823Z" fill="white"/>
</mask>
<g mask="url(#mask2_4_208)">
<path d="M446.27 276.02C408.778 121.237 386.9 10.186 381.817 6.16038L381.716 6.11972C377.995 4.31022 370.919 4.14756 365.958 5.34712C252.383 32.6523 137.832 58.4123 23.6056 84.7212C18.9292 85.8395 14.3544 86.7544 9.49504 87.6286C6.54687 88.4012 3.19207 89.1332 1.95181 91.8373C0.975866 94.1347 1.40284 96.5338 1.78915 99.0346C2.7651 105.175 4.473 111.823 6.1809 118.106C8.90541 129.247 11.2436 140.511 13.9071 151.693C100.766 525.955 188.947 899.953 275.44 1273.63C281.763 1301.17 288.716 1328.32 295.507 1355.58C296.158 1359.3 296.199 1363.12 298.212 1366.05C301.587 1370.83 307.137 1365.97 311.956 1365.63C405.464 1344.66 499.134 1323.58 592.479 1302.25C606.508 1299.08 620.537 1296.01 634.607 1292.88C644.773 1290.74 654.939 1287.98 665.166 1286.17C669.212 1285.4 673.991 1286.56 677.61 1286.19C687.044 1273.75 529.348 649.611 446.27 276.02ZM668.704 1273.83C666.224 1277.59 660.287 1278.04 655.976 1278.99C642.354 1282.35 628.548 1286.07 614.926 1289.2C530.811 1307.19 446.433 1326.77 362.116 1345.05C345.748 1348.73 329.34 1351.94 313.054 1355.83C310.065 1356.5 307.544 1357.13 305.409 1355.66C303.437 1354.5 302.502 1350.5 302.136 1347.79C292.356 1298.29 278.591 1249.33 267.327 1200.07C225.26 1017.92 182.278 835.868 139.641 653.84C111.44 533.071 82.0605 412.241 55.649 291.126C39.058 231.271 25.2728 167.897 11.1216 106.374C10.166 102.999 9.37304 100.051 10.5523 98.2214C11.7316 96.3102 13.6631 95.9239 16.3063 95.0293C24.2155 92.9758 32.3484 91.1663 40.3389 89.3162C133.582 67.5208 227.212 47.291 320.414 25.7803C336.375 22.1003 352.6 19.0302 368.52 15.2689C371.143 14.6793 373.319 14.598 374.904 15.5535L375.047 15.6552C377.832 17.5867 378.015 21.5717 379.012 25.394C379.561 27.9557 379.988 30.5785 380.455 33.1606C388.69 78.5811 401.296 123.188 411.746 168.141C424.657 223.118 436.633 277.911 449.544 332.826C457.677 365.458 465.83 398.416 472.844 431.393C538.192 707.007 602.543 981.462 666.671 1256.42C667.525 1261.81 671.266 1268.83 668.704 1273.81V1273.83ZM530.201 889.238C516.538 827.227 502.855 765.541 487.972 703.734C485.918 695.073 486.589 684.053 479.798 677.628L479.615 677.486C474.369 673.785 467.599 678.177 461.824 679.275C377.263 699.159 291.421 715.465 208.018 738.765C203.118 741.144 204.989 746.938 205.863 751.37C220.888 823.893 239.411 895.805 254.599 968.185C257.181 980.384 260.333 992.603 263.22 1004.68C264.684 1009.5 264.521 1016.51 268.933 1019.42C272.146 1021.23 275.968 1020.93 279.628 1020.32C357.927 1000.55 437.243 984.796 515.684 965.603C522.008 963.977 528.209 962.92 534.715 961.456C542.848 959.748 545.207 954.95 543.417 947.224C540.368 927.644 534.532 908.492 530.201 889.238ZM327.266 1000.29C323.301 1000.92 318.442 1002.3 317.344 997.381C314.843 989.737 307.686 967.84 304.881 959.321C303.579 956.068 303.457 951.676 307.239 956.027L307.381 956.19C314.538 966.437 321.838 976.359 329.645 986.118C331.312 988.232 332.898 990.469 334.627 992.481C335.724 993.925 337.9 995.491 337.534 997.097C336.294 999.272 329.95 999.455 327.246 1000.29H327.266ZM392.553 984.796C391.109 985.914 388.852 986.28 387.002 986.687C377.08 988.883 367.056 991.485 357.094 993.64C352.559 994.759 347.192 997.178 344.081 992.116C339.425 985.101 332.654 979.022 327.348 972.455C317.324 960.215 310.289 945.028 305.816 929.657C304.311 924.981 303.844 919.796 303.661 915.263C302.603 909.061 304.271 902.616 308.581 898.082C311.123 894.768 315.819 895.053 318.971 893.365C320.943 892.186 322.041 890.865 322.814 892.756L322.854 892.857C323.891 896.639 320.801 900.868 322.692 904.751C324.399 908.37 328.263 910.871 330.946 913.941C335.867 919.552 340.584 924.818 345.077 931.019C354.105 943.564 356.097 956.352 368.541 967.718C370.879 969.873 373.807 972.862 376.551 974.102C378.402 974.732 377.405 972.862 376.49 971.601C373.725 967.921 368.602 964.851 366.528 960.48C363.356 952.225 371.814 961.984 373.888 963.733C377.71 967.026 380.902 970.991 384.034 974.834C385.457 976.46 386.86 978.005 388.568 979.347C390.255 980.832 394.159 982.946 392.553 984.796ZM355.284 806.143C363.864 808.014 370.838 815.028 369.293 823.588C369.09 826.455 369.964 830.46 372.77 831.822C375.921 832.005 376.592 826.251 377.039 823.73C377.629 821.168 377.71 819.217 379.235 818.363C380.537 817.936 382 818.058 383.322 817.631C385.03 817.265 386.86 816.106 388.669 816.268C390.459 816.411 391.455 819.501 390.906 822.998C390.601 825.438 389.34 829.525 390.804 831.456L390.906 831.537C393.773 833.591 397.677 825.235 402.719 826.983C404.915 827.573 406.968 829.118 409.205 829.464C413.149 830.175 418.72 827.085 421.038 831.741C423.864 837.739 415.487 845.647 411.726 849.937C409.55 852.174 407.456 854.797 405.952 855.468C402.129 856.769 401.743 850.019 398.957 848.596C396.396 846.908 393.203 849.043 390.276 850.344C386.697 852.052 382.773 853.353 379.174 854.736C377.385 855.386 375.23 856.301 373.38 855.691C369.964 853.963 368.378 850.425 365.084 847.884C361.851 844.184 357.48 842.13 354.735 838.166C353.393 836.01 352.803 833.266 351.949 830.846C350.486 826.597 348.249 823.202 346.013 819.257C344.122 815.638 341.621 812.121 339.771 808.502C338.754 806.469 338.673 804.436 341.804 804.334C345.992 804.212 351.035 805.228 355.284 806.123V806.143ZM353.759 789.878C355.67 790.63 358.415 791.708 360.306 792.44C361.709 793.03 362.583 793.172 362.726 793.843L362.766 793.985C362.97 795.591 361.485 796.628 359.899 796.1C356.524 795.429 352.539 794.595 351.604 791.688C350.974 789.634 351.441 788.76 353.759 789.878ZM425.389 833.266C425.288 831.68 424.271 829.728 424.596 828.223C424.82 827.471 425.735 827.715 426.569 828.793L426.67 828.935C428.439 831.232 427.585 834.77 427.016 837.535C426.142 843.269 422.563 847.457 419.94 851.747C418.253 854.776 416.545 858.05 413.414 859.859C412.194 860.672 409.794 861.038 409.266 859.697C408.636 856.525 413.312 854.105 415.243 851.991C417.988 849.49 419.696 846.583 421.18 843.533C422.929 840.077 425.918 837.007 425.369 833.266H425.389ZM392.004 905.056C392.248 901.925 391.658 898.733 391.902 895.582C392.146 892.247 393.447 888.039 393.346 884.582C393.346 882.163 392.898 879.906 392.756 877.466C392.573 872.871 393.732 867.179 394.484 862.685C394.81 860.713 395.887 857.318 398.246 859.026L398.368 859.107C401.418 861.343 402.048 866.243 402.231 869.923C402.658 875.962 403.288 881.573 404.081 887.795C404.386 890.438 404.671 893.244 404.65 895.866C404.711 901.518 402.678 905.727 402.577 911.196C402.373 914.998 403.532 919.573 401.641 923.049C399.73 926.79 390.743 918.15 390.54 915.913C389.442 912.253 391.821 908.716 392.004 905.056ZM408.209 874.905L408.331 875.067C409.002 876.429 408.737 879.032 408.636 880.658C408.453 881.838 408.595 882.651 407.68 882.813C406.846 882.813 405.321 882.752 405.22 881.695C405.26 880.292 405.728 875.616 405.87 873.99C405.992 872.526 407.822 874.417 408.209 874.905ZM335.806 824.34C337.453 820.599 338.876 813.28 342.475 820.64C344.528 825.174 348.127 829.464 349.998 833.713C351.523 837.108 352.092 842.638 355.101 844.204C357.114 845.302 359.615 845.424 361.323 847.03C364.21 850.202 366.365 854.207 370.025 856.667C381.309 866.406 391.516 847.864 397.107 852.804C397.107 854.065 395.44 854.858 394.139 855.773C392.797 856.525 391.516 857.399 390.438 858.538C387.795 861.079 382.712 864.718 380.211 868.48C375.962 873.746 375.697 882.488 373.929 889.36C373.4 891.698 372.851 895.968 371.407 896.944L371.306 896.985C370.411 897.554 368.48 895.765 367.544 894.728C364.718 891.841 361.282 886.514 358.151 884.257C354.877 881.939 351.421 882.183 347.985 880.557C343.349 877.995 338.835 874.742 335.46 870.269C332.959 867.016 331.922 863.214 329.462 859.9C327.266 857.257 323.566 853.251 320.13 854.675C318.584 855.508 317.446 857.44 316.165 858.7C314.213 860.876 313.176 858.741 311.407 856.179C310.777 855.285 310.187 854.41 309.537 853.536C304.799 848.718 305.633 840.178 310.818 836.925C311.387 836.62 312.037 836.539 312.505 836.986C314.335 838.938 312.586 845.79 313.115 848.738C313.176 850.852 314.559 853.333 316.328 850.812C318.015 848.352 318.849 843.106 320.048 840.585C321.634 838.511 322.244 844.977 326.982 838.369C330.011 833.977 333.549 829.159 335.785 824.34H335.806ZM344.386 885.965L344.244 886.107C341.905 887.652 339.791 890.763 337.168 892.288C334.87 893.345 332.349 895.521 330.052 895.358C327.022 895.053 326.778 890.539 328.344 888.649C329.32 887.449 330.865 887.673 332.329 887.652C334.789 887.673 337.168 886.819 339.242 885.497C341.031 884.542 344.122 880.963 345.118 881.756C346.134 882.895 345.342 884.989 344.386 885.965ZM319.621 862.685L319.743 862.563C321.309 861.12 320.923 857.562 322.915 856.769C324.216 856.708 325.07 858.151 325.965 859.005C328.12 861.506 330.662 863.519 332.349 865.877C333.956 867.971 335.033 871.306 336.395 873.868C337.209 875.555 338.185 877.182 338.469 878.971C339.039 881.878 334.2 882.915 331.556 883.403C326.982 884.46 323.139 881.492 318.95 880.191C315.555 879.072 310.35 878.788 307.991 877.527C304.982 875.901 305.735 872.871 304.86 869.374C304.555 867.91 304.128 866.447 303.864 865.206C301.77 857.013 316.267 865.654 319.621 862.685ZM411.543 942.527C411.218 943.808 409.977 944.621 409.205 943.198C408.432 941.815 409.144 939.396 408.941 937.891C408.859 936.509 407.477 935.045 407.294 933.581C407.151 932.707 407.924 931.914 408.798 932.178C410.465 932.687 410.425 934.821 411.197 936.102L411.299 936.326C412.58 938.176 412.255 940.474 411.543 942.527ZM428.561 943.605C426.589 943.767 424.779 940.148 423.641 938.603C421.892 935.919 419.432 933.967 416.585 932.178C414.756 930.735 409.815 929.698 409.164 928.193C409.428 925.855 415.914 927.99 417.114 928.864L417.317 928.986C420.205 930.877 431.286 940.108 428.541 943.605H428.561ZM450.215 869.537C446.27 868.825 442.712 869.659 439.154 870.879C435.738 871.855 432.241 873.339 429.883 876.226C428.358 877.975 427.219 880.313 425.898 882.122C424.352 884.318 423.254 883.586 423.702 881.228C424.861 876.999 428.988 873.359 432.058 870.777C433.197 869.842 434.417 869.11 435.799 868.561C441.96 866.04 450.032 863.722 455.664 868.297L455.745 868.398C457.006 870.757 451.455 869.72 450.194 869.517L450.215 869.537ZM520.442 954.99C517.372 955.6 512.187 957.898 510.622 954.136C509.564 950.273 511.049 946.065 510.439 942.08C509.89 935.818 507.938 927.909 505.864 921.443C493.97 891.881 480.306 859.981 457.189 837.251C449.666 829.911 440.903 823.161 430.289 821.982C422.461 820.436 426.142 811.308 424.8 805.777C423.986 800.003 422.197 793.233 420.835 787.662C419.249 781.908 418.212 775.728 415.203 770.502C412.417 765.968 407.761 763.61 403.878 760.316C395.216 751.411 386.921 750.293 375.636 755.05C368.927 757.592 360.977 761.19 353.84 764.606C347.029 767.839 340.238 771.295 335.318 777.435C332.207 781.075 332.065 785.954 331.333 790.509C330.479 794.351 328.669 793.599 325.03 792.013C318.117 788.963 309.598 788.435 302.115 790.224C290.16 791.749 278.774 798.519 271.759 808.36C264.379 818.871 260.617 822.754 263.037 836.173C263.403 839.324 263.322 842.842 263.444 846.095C263.972 853.638 265.66 859.229 263.505 866.386C262.081 872.465 260.007 878.686 259.459 884.928C259.093 889.198 260.231 892.918 262.122 896.903C264.582 902.393 267.673 907.15 272.451 910.668C275.826 913.392 278.347 916.462 276.294 920.671C273.935 927.014 272.939 940.006 277.066 945.719C278.754 947.956 280.99 949.704 283.145 951.473C288.351 955.295 290.973 962.92 295.507 966.965C297.337 968.592 299.594 969.548 301.444 971.113C304.006 973.146 305.104 976.399 305.796 979.53C306.792 983.902 307.91 988.049 309.476 992.319C310.736 995.918 314.05 1001.45 309.313 1003.81C307.89 1004.56 305.694 1005.01 303.884 1005.33C297.154 1006.51 290.119 1008.08 283.43 1009.93C280.726 1010.39 273.772 1013.36 273.772 1010.6C260.394 950.68 217.818 762.614 214.667 747.914C214.484 747.121 214.748 746.816 215.907 746.206C294.877 729.372 374.03 708.532 453.021 690.498C457.209 689.563 461.682 688.953 465.932 687.997C469.225 687.204 473.515 686.859 475.223 689.949L475.325 690.112C479.534 700.033 480.245 712.07 482.95 722.601C495.495 776.419 507.531 830.826 520.361 884.481C524.488 903.084 528.148 921.443 532.092 939.945C532.723 943.32 534.248 946.37 533.516 949.643C531.665 954.035 524.508 953.465 520.442 954.99ZM308.154 823.527L308.012 823.71C305.389 826.292 302.603 831.151 299.33 832.94C298.72 833.225 297.236 833.733 297.256 832.717C297.48 831.72 298.761 830.663 299.574 829.891C303.783 826.414 305.389 821.392 308.52 817.224C309.699 815.76 310.614 813.951 311.631 812.467C311.692 812.406 311.936 812.04 312.058 812.202C312.607 814.337 310.289 821.392 308.154 823.527ZM400.238 355.984C402.739 355.415 404.894 354.52 405.972 352.812C407.7 349.803 406.521 346.001 405.85 342.768C402.882 326.524 398.896 310.197 395.155 294.034C384.644 243.226 371.509 192.234 360.591 141.141C356.931 123.961 353.169 106.598 348.513 89.6821C347.212 85.3109 346.866 79.923 343.613 76.5683L343.471 76.426C338.632 71.9734 330.885 73.5796 324.908 75.0841C260.312 91.1053 196.409 105.805 131.813 120.362C116.645 123.961 101.559 127.946 86.2489 130.935C80.8812 132.582 73.094 133.456 69.8409 137.949C68.2143 140.674 68.7633 144.272 69.4749 147.302C82.1622 202.502 93.6905 258.007 106.764 313.003C114.287 344.863 121.18 376.885 128.967 408.704C130.41 416.511 137.323 417.08 143.708 415.474C151.413 413.502 158.713 411.204 166.439 409.618C244.453 392.398 322.488 374.242 400.218 355.984H400.238ZM197.405 384.184C196.002 385.322 196.795 382.13 196.815 381.337C196.998 379.467 197.466 376.742 197.445 375.116C197.425 373.53 196.144 371.355 195.819 369.667C195.534 368.325 196.043 368.61 196.734 369.931L196.835 370.135C199.479 375.055 202.102 379.751 197.384 384.184H197.405ZM241.302 382.029C240.224 383.777 237.764 384.875 235.121 385.627C229.631 387.213 223.41 388.108 217.798 389.368C214.809 389.653 204.907 394.39 207.042 388.474C213.081 378.084 209.584 373.713 204.704 364.178C203.667 361.819 202.772 359.501 201.431 357.285C200.089 355.008 198.482 352.812 197.222 350.474C195.168 346.977 194.945 342.911 195.412 338.418C195.677 336.242 195.961 332.948 196.957 331.261C197.222 330.895 197.547 330.712 197.974 330.753C199.357 330.773 201.37 333.416 203.85 334.372C205.09 334.88 206.351 335.144 207.713 335.266C210.072 335.469 212.735 335.124 215.134 334.758C218.327 334.453 221.275 333.314 223.694 334.961L223.837 335.063C225.971 336.852 226.907 340.085 228.676 342.565C232.315 347.689 234.308 353.402 238.008 358.647C239.086 360.152 240.326 361.575 241.241 363.141C242.786 365.56 242.786 368.427 242.563 371.212C242.176 374.709 243.01 379.629 241.322 382.029H241.302ZM234.104 334.738L234.165 334.982C235.101 338.723 237.134 342.301 239.533 345.269C240.509 346.611 241.261 347.729 241.282 348.197C241.343 348.624 240.773 348.583 239.858 348.075C235.101 344.822 232.112 337.381 231.644 331.627C231.644 323.698 235.853 314.02 237.886 305.826C238.272 304.728 238.781 302.187 239.391 301.943C239.269 311.702 231.177 324.531 234.104 334.738ZM265.436 368.224C263.972 370.785 260.821 373.977 258.198 374.16C258.137 373.388 259.581 371.843 260.028 370.948C261.553 368.793 262.224 365.946 263.281 363.73C264.969 360.376 267.835 357.488 266.066 353.341C265.761 352.08 261.024 345.188 264.867 346.692L265.009 346.794C271.129 351.45 268.303 361.921 265.436 368.203V368.224ZM281.804 375.279C278.794 375.888 275.846 376.742 274.647 375.949C273.691 375.401 273.63 373.916 274.118 371.7C274.565 369.728 275.297 367.451 275.806 365.235C276.416 362.673 276.944 360.091 277.208 357.509C277.859 351.958 275.785 346.753 273.223 341.752C271.333 337.787 268.954 334.595 265.822 331.525C263.525 329.289 261.268 326.951 259.886 324.003C257.649 319.245 257.059 312.373 254.132 307.656C251.326 303.305 246.609 300.499 245.104 295.193C243.457 289.032 241.058 280.615 245.206 275.39C247.117 272.787 251.021 270.409 251.773 275.024L251.814 275.227C254.01 288.077 258.361 299.91 265.619 310.95C268.303 315.057 272.227 318.33 274.321 322.701C275.704 326.158 277.127 328.862 279.425 332.237C283.084 338.011 287.476 344.924 291.278 350.921C294.633 356.594 299.106 362.409 300.997 366.902C302.583 373.428 286.195 374.12 281.804 375.258V375.279ZM250.472 182.597C254.985 180.198 261.085 178.47 265.274 174.993C269.808 170.52 272.186 170.073 278.022 173.712L278.205 173.834C284.833 178.124 289.448 184.468 292.498 191.807C293.8 195.142 293.657 199.005 294.125 202.217C295.629 209.841 293.901 215.798 289.794 222.081C286.846 227.245 280.787 231.657 274.769 230.539C270.662 229.888 266.148 229.176 262.549 227.062C256.348 222.955 249.13 216.815 248.215 209.048C248.012 206.893 248.378 204.758 248.56 202.603C248.825 199.614 248.764 196.26 248.317 193.23C247.585 189.388 246.507 184.772 250.492 182.597H250.472ZM250.268 174.871C251.183 174.302 252.424 174.18 253.44 173.793C255.351 173.285 255.9 171.313 257.08 170.053C257.791 169.463 259.133 169.056 259.886 169.727L259.967 169.849C260.17 170.235 259.845 170.784 259.621 171.191C257.812 174.241 254.904 177.555 251.488 177.331C250.106 177.331 248.642 175.908 250.289 174.871H250.268ZM296.178 227.082L296.28 227.123C297.419 227.957 298.151 231.576 298.476 234.544C299.066 239.464 297.175 244.811 293.983 248.552C288.92 253.839 280.563 254.53 274.26 251.317C270.174 249.223 268.14 241.05 268.73 236.496C269.401 234.666 271.617 235.479 275.114 235.317C276.843 235.256 278.571 235.378 280.299 235.337C283.064 235.337 285.951 234.158 288.371 232.49C291.522 230.661 294.186 226.167 296.199 227.062L296.178 227.082ZM262.447 258.698L262.61 258.86C263.444 259.714 264.257 260.507 265.538 261.077C267.103 261.829 271.231 262.581 270.438 264.797C269.137 266.037 266.9 264.777 265.761 263.821C265.07 263.211 264.521 262.561 263.789 262.032C262.163 260.833 259.113 260.426 257.995 258.494C256.368 254.814 261.37 257.275 262.447 258.698ZM317.446 364.848C315.86 367.248 311.489 368.142 308.967 368.081C304.921 367.675 304.942 360.945 303.437 357.895C300.164 349.295 295.711 343.704 290.424 336.161C287.009 331.464 284.304 326.28 280.929 321.603C277.513 316.846 272.268 313.918 270.092 308.327C266.026 298.71 259.865 290.923 256.592 280.9C255.636 278.155 254.071 275.024 255.351 272.198C259.093 267.257 268.323 270.775 272.654 273.174L272.857 273.296C281.743 278.948 289.428 289.683 295.975 299.361C297.52 301.74 298.781 303.915 299.981 306.334C306.731 321.095 312.932 339.332 316.226 355.903C316.755 358.952 318.645 362.063 317.466 364.848H317.446ZM326.473 357.732C322.366 366.678 320.577 354.561 319.499 350.86C316.49 340.715 311.651 330.488 308.093 320.343C306.365 315.118 305.897 309.791 302.847 305.237C299.533 300.601 298.09 295.172 294.653 290.435C292.559 287.609 289.489 285.271 288.94 281.611C288.29 276.671 289.428 271.466 287.598 267.054C286.521 263.943 284.203 260.304 285.829 257.031C287.171 254.367 290.79 253.839 293.23 255.384L293.413 255.506C297.744 257.905 295.873 262.622 297.236 266.607C299.757 273.479 304.881 280.33 308.439 286.796C311.285 293.749 316.063 300.54 320.211 306.639C324.542 312.861 319.438 316.155 319.133 322.112C319.133 323.82 319.703 325.629 320.313 327.296C321.899 331.485 323.078 336.059 324.603 340.349C326.982 346.123 329.015 351.897 326.473 357.732ZM348.879 334.168C346.216 333.558 345.24 328.272 344.711 325.629C344.061 321.949 343.166 318.513 341.702 315.138C338.083 306.721 333.691 298.913 331.048 289.947C330.092 286.999 328.893 284.132 329.076 281.083C329.177 279.782 329.543 279.253 330.153 279.639L330.235 279.7C330.641 280.005 331.068 280.737 331.495 281.754C332.512 284.6 333.732 288.056 334.931 291.045C338.957 302.166 344.305 312.719 347.842 323.82C348.249 325.995 350.994 332.908 348.879 334.168ZM150.397 403.865C147.347 404.475 137.994 407.402 137.039 404.861C132.017 382.191 125.49 353.26 118.536 321.746C105.646 263.699 92.0639 202.746 79.214 144.984C79.153 144.699 79.092 144.455 79.0513 144.211C78.5634 141.893 78.2787 142.544 80.9219 141.832C89.8274 139.82 98.0822 137.868 107.394 135.753C175.832 120.037 272.593 97.7334 336.375 83.2574H336.395C339.425 95.3343 388.69 314.711 395.745 345.615C395.908 346.489 396.233 346.936 395.399 347.241C393.976 347.79 392.288 348.055 390.723 348.38C384.969 349.844 380.272 351.287 379.195 343.907C376.673 323.982 373.908 301.821 368.378 282.872C364.576 269.738 359.554 254.997 347.517 247.21C335.785 239.688 336.619 253.046 332.593 261.605C330.58 266.119 324.806 278.216 327.958 265.976C328.933 261.91 330.255 256.36 331.272 252.029C331.922 248.654 333.447 245.299 331.739 242.209C330.519 240.237 327.185 239.017 324.318 237.329C322.936 236.577 321.39 235.784 319.947 235.276C315.23 233.446 314.01 237.939 312.363 242.433C312.18 243.144 309.516 249.508 309.476 246.987C309.679 243.266 312.505 238.163 311.326 234.28C310.411 231.962 306.67 231.677 303.884 230.051C298.537 227.225 298.7 220.414 299.716 215.066C301.973 207.442 309.069 199.066 303.722 191.177C301.668 188.473 299.106 186.114 297.724 182.963C296.524 180.584 296.422 177.758 295.548 175.278C290.872 164.258 276.111 156.817 264.216 156.512C256.958 156.085 253.949 163.119 248.54 166.82C242.583 171.171 237.784 177.697 238.354 185.22C238.821 190.913 240.387 196.748 239.533 202.502C238.15 209.597 236.971 217.791 243.559 222.67C246.385 224.826 249.862 225.659 252.993 227.306C257.812 229.624 261.065 234.93 260.556 240.176C260.028 244.608 257.385 248.552 255.026 252.253C252.912 255.79 250.126 257.925 247.341 261.585C245.897 263.435 244.433 265.651 242.563 267.013C237.947 270.165 235.182 264.309 231.481 260.69C230.241 259.389 228.899 258.169 227.476 257.051C220.868 251.846 213.142 248.247 206.493 243.104C202.813 240.196 199.458 236.719 195.575 235.296C191.895 233.954 188.499 233.283 183.904 232.125C172.783 229.725 159.709 224.948 150.661 233.263C147.835 236.231 147.164 240.603 144.887 243.917C143.118 246.601 140.617 248.674 138.808 251.358C135.249 257.173 134.151 266.302 134.273 273.438C134.66 279.192 136.469 284.254 138.279 290.374C143.24 304.627 142.894 319.794 140.109 334.27C139.072 340.044 137.384 346.001 137.405 351.918C137.405 355.455 137.832 359.115 137.893 362.693C137.852 368.589 137.344 374.608 139.722 380.321C142.162 385.709 145.415 391.157 149.014 395.752C152.308 399.493 158.265 401.831 150.356 403.865H150.397ZM165.504 296.738C159.546 294.888 154.199 290.7 150.6 285.454C148.892 282.648 148.75 279.497 148.811 276.305C148.852 271.934 148.099 267.562 147.347 263.089C145.802 256.583 143.525 248.39 149.99 243.978C153.345 241.782 158.55 242.839 162.982 243.043C166.154 243.266 169.265 243.266 172.457 243.165C178.008 243.083 183.864 240.623 188.804 243.957L188.987 244.079C194.274 247.597 197.445 252.558 200.658 257.966C201.959 260.182 203.281 262.459 203.687 265.001C204.318 276.589 200.15 288.219 189.638 294.054C182.522 297.958 173.576 298.69 165.504 296.738ZM167.944 298.954C165.971 303.447 157.838 299.544 156.354 295.396C156.395 294.664 160.99 296.535 162.332 296.779C163.531 297.124 164.731 297.49 165.707 297.775C167.09 298.182 167.964 298.304 167.944 298.852V298.974V298.954ZM198.706 245.421L198.848 245.564C199.499 246.214 200.048 247.048 201.004 247.902C201.837 248.634 202.772 249.142 203.159 249.955C203.606 250.789 203.423 252.232 203.037 252.964C202.163 254.753 195.453 246.133 194.904 244.628C194.009 241.904 198.116 244.608 198.686 245.401L198.706 245.421ZM166.215 391.91C164.06 390.222 162.535 387.437 160.746 385.322C158.082 382.069 155.277 380.422 153.853 376.478C152.43 372.656 151.739 367.268 151.108 363.1C150.458 358.993 148.974 355.374 150.438 351.531C150.865 350.596 151.454 350.169 151.82 350.555L151.881 350.616C152.776 352.487 152.43 355.76 152.877 358.159C153.284 361.372 154.219 364.666 154.748 367.878C155.643 373.062 156.862 376.153 160.014 380.687C162.129 383.899 165.321 386.928 167.334 390.161C168.614 392.276 168.147 393.394 166.215 391.91ZM181.81 330.427C180.732 331.159 180.468 329.106 180.509 328.252C180.671 324.125 183.376 319.855 180.875 316.968C180.102 315.931 178.516 314.711 178.394 313.45C178.374 312.82 179.289 312.658 180.326 313.267L180.529 313.389C182.278 314.609 184.148 316.886 184.087 318.838C184.047 320.18 183.742 321.461 183.538 322.823C183.05 325.446 182.644 329.777 181.81 330.448V330.427ZM190.167 296.677C192.322 294.624 195.27 293.078 197.323 290.862C201.349 286.674 203.606 280.94 205.111 275.512C207.551 269.189 208.648 277.159 208.791 281.022L208.831 281.266C209.645 287.589 211.698 294.095 214.585 299.706C218.571 308.063 231.258 316.48 224.487 326.646C223.084 328.679 220.97 330.143 218.571 330.753C213.528 332.216 207.266 333.355 202.61 330.244C198.95 327.601 202.386 323.23 201.736 319.591C201.268 314.853 199.763 308.937 196.856 305.46C194.985 302.593 186.019 301.028 190.167 296.677ZM422.258 668.072C435.047 665.043 447.429 662.44 460.096 658.923C464.691 657.419 471.279 657.317 474.105 653.088C475.955 649.957 475.386 646.114 474.776 642.597C474.105 638.998 473.231 635.379 472.296 631.659C451.15 552.569 438.239 470.186 416.606 392.011C415.487 387.335 416.077 381.805 412.743 378.064L412.6 377.922C408.392 373.774 401.133 375.827 395.887 377.291C323.119 395.163 250.736 411.957 178.15 428.608C169.773 430.662 161.153 433.508 152.816 435.317C143.179 436.68 137.344 436.354 137.954 448.187C154.85 525.04 172.681 602.402 189.984 678.685C191.915 687.306 193.765 695.906 195.88 704.445C196.693 708.369 197.547 713.412 201.065 715.567C206.209 718.393 213.081 715.546 218.754 714.794C286.46 699.423 354.45 683.911 422.258 668.072ZM275.419 621.716C274.281 622.326 271.556 623.689 270.438 625.396C266.432 630.764 262.122 637.351 259.377 643.349C257.791 646.704 256.856 651.217 254.802 654.206C253.501 656.097 252.546 655.182 253.217 653.047C253.44 652.336 253.766 651.604 254.132 650.892C259.682 642.272 257.385 639.791 255.555 630.764C254.071 619.582 252.2 608.135 252.993 597.461C253.359 592.907 248.865 590.426 248.012 585.852C246.853 579.956 254.782 575.523 259.479 578.797L259.662 578.919C264.44 582.843 260.76 589.938 263.464 594.94C265.213 599.616 268.405 607.261 270.458 612.018C271.211 613.747 271.739 615.536 272.796 617.061C274.037 618.768 275.765 620.131 276.009 620.781C276.212 621.168 276.009 621.33 275.419 621.696V621.716ZM213.732 536.955C213.772 537.89 213.65 538.906 213.589 539.842C213.467 540.411 213.549 541.834 212.939 541.651C211.739 540.492 210.722 538.134 209.726 536.65C208.262 534.311 207.591 532.888 208.404 530.164C208.831 528.619 210.58 521.238 212.857 522.946L212.939 523.068C213.915 525.122 212.857 528.09 212.674 530.326C212.308 532.929 213.63 534.454 213.732 536.955ZM221.437 499.28C222.23 498.833 223.145 499.077 224.04 499.138C227.273 499.606 229.387 496.149 232.437 496.719L232.518 496.82C232.945 497.898 231.746 499.565 231.359 500.683C230.709 502.269 230.058 502.35 227.903 502.106C226.053 501.984 223.877 501.842 222.088 501.7C220.482 501.74 220.299 500.094 221.437 499.301V499.28ZM217.371 519.408C217.92 517.111 218.408 514.59 219.282 512.435C221.864 505.237 231.461 506.559 237.622 503.591C242.766 501.293 247.32 496.962 252.18 502.33L252.322 502.472C254.579 504.729 257.181 506.742 259.662 508.856C261.288 510.28 263.098 511.337 263.403 513.411C263.606 514.224 260.963 514.122 259.479 514.387C251.387 515.444 247.483 524.959 249.618 532.38C250.716 536.65 253.501 540.411 255.372 544.172C256.612 546.714 257.446 549.275 257.161 551.959C256.795 557.103 252.647 561.047 247.829 562.43C244.067 563.731 240.041 564.829 236.768 563.792C233.271 562.694 230.079 560.681 227.252 558.364C221.62 552.955 218.042 543.339 217.879 535.287C217.635 529.696 216.009 525.162 217.391 519.408H217.371ZM265.538 518.006L265.66 518.148C267.429 520.445 266.29 523.658 266.209 526.423C266.107 528.232 266.331 529.94 266.432 531.77C266.859 535.328 265.375 540.269 262.203 541.915C258.483 543.318 254.843 537.951 253.298 535.186C251.102 530.53 250.797 524.288 254.497 520.262C256.917 517.294 262.488 514.915 265.538 518.006ZM234.836 575.564C233.006 575.625 230.892 575.91 229.184 575.503C225.24 574.669 224.203 566.943 224.609 563.487C225.504 561.434 230.119 565.378 232.376 565.947C234.043 566.639 235.731 567.065 237.52 567.411C241.261 568.062 245.592 568.834 248.642 567.655C251.834 566.984 256.937 560.051 259.865 563.202L259.947 563.345C263.057 569.993 256.327 574.181 250.695 575.991C245.592 577.78 240.041 574.913 234.836 575.564ZM236.219 591.626C234.633 595.021 229.733 592.073 226.419 591.321C223.735 590.569 222.271 588.292 219.811 587.092C214.992 584.469 216.517 584.408 222.657 586.523C225.727 587.478 229.713 588.718 232.6 589.613C234.816 590.325 236.3 590.63 236.219 591.524L236.199 591.626H236.219ZM312.566 492.164L312.729 492.307C318.096 496.922 322.814 502.92 326.677 509.243C329.584 513.512 332.207 517.538 331.516 522.621C330.662 530.387 329.747 538.378 324.582 544.579C322.305 547.405 319.621 550.292 316.409 551.959C310.411 554.562 303.234 555.355 297.398 552.264C293.434 550.231 288.534 547.73 286.358 543.725C284.63 540.472 284.874 536.69 284.711 533.132C284.731 530.428 283.593 528.192 284.06 525.63C284.67 522.479 289.448 519.856 291.644 522.661C293.088 525.305 293.8 528.7 296.056 530.977C299.554 535.023 306.06 537.056 311.245 535.735C321.045 532.299 329.218 522.539 322.529 512.638C317.69 505.929 302.949 502.777 296.646 509.263C294.044 511.845 292.376 515.241 289.103 517.091C285.911 519.103 281.011 518.819 281.865 514.509C282.414 511.052 284.996 508.145 286.805 504.892C289.042 501.11 290.038 496.637 291.99 492.754C295.65 485.78 307.707 487.203 312.566 492.144V492.164ZM306.873 479.742C309.74 480.189 313.379 480.474 315.596 482.263L315.779 482.405C317.547 484.154 320.394 485.983 320.943 488.342C321.024 489.135 320.435 489.765 319.621 489.643C317.812 489.379 316.592 487.346 315.372 486.166C312.525 483.32 307.808 483.767 304.128 482.71C303.539 482.547 302.908 482.324 302.786 481.714C302.563 480.657 304.698 479.498 306.873 479.742ZM327.205 555.538C328.1 559.563 327.429 564.117 325.233 567.696C322.061 574.568 316.307 574.059 310.147 571.396C306.629 569.79 304.555 566.578 301.729 563.934C300.631 562.552 295.019 558.12 296.727 556.513C299.655 555.375 307.036 559.136 310.838 557.957L311.001 557.916C314.233 557.103 326.148 549.906 327.205 555.538ZM299.31 510.503C303.051 507.555 309.781 508.185 313.44 511.256L313.644 511.418C319.235 515.993 319.845 520.933 315.148 526.423C310.98 531.119 303.051 532.766 298.984 527.521C296.504 524.939 295.365 521.909 295.934 518.331C296.28 515.627 297.256 512.17 299.31 510.503ZM282.109 530.082C281.621 534.881 278.835 539.821 274.565 542.708C273.264 543.664 270.641 544.396 269.625 543.522C269.076 543.054 269.32 542.261 270.214 541.407C271.373 540.289 273.122 539.293 274.403 538.195C280.157 533.336 278.733 523.597 273.081 518.514C272.105 517.396 270.336 515.261 272.918 516.176L273.081 516.257C274.301 516.704 275.826 517.985 277.107 519.164C280.767 522.153 282.901 525.101 282.109 530.082ZM267.286 562.572C264.847 559.726 264.725 555.517 265.518 551.634C265.741 549.845 267.327 549.214 268.425 550.902L268.527 551.065C269.076 552.305 268.628 553.748 268.588 555.212C268.181 557.876 269.218 559.319 269.869 561.556C270.255 563.792 268.527 564.219 267.286 562.572ZM296.91 653.678C294.755 657.866 291.99 661.749 290.241 666.1C289.489 668.296 285.585 677.628 285.402 671.691C286.053 665.307 290.811 659.899 293.535 654.166C296.544 648.086 298.13 641.153 292.58 636.315C289.733 633.265 286.602 629.666 283.186 627.308C277.981 624.075 279.038 619.704 279.953 614.377C282.312 600.531 282.414 602.727 276.416 590.487C274.992 586.97 273.63 583.31 271.983 579.834C271.394 578.878 268.364 570.949 270.479 571.579L270.54 571.62C271.515 572.494 272.125 574.283 272.674 575.625C274.24 580.24 277.005 585.038 278.957 589.593C279.608 590.772 281.336 595.692 282.881 594.432C283.755 593.354 284.142 591.24 284.874 589.959C286.541 587.377 287.964 593.476 288.879 594.94C289.692 596.607 290.506 597.786 291.807 599.169C301.688 607.2 300.956 614.275 293.82 624.116C286.643 635.217 306.731 634.241 296.91 653.678ZM307.097 597.99C305.45 591.484 304.169 584.266 300.164 578.553C298.11 575.076 293.8 571.701 292.275 568.184C292.071 567.126 293.922 567.757 296.077 569.465L296.26 569.607C299.086 571.925 301.485 575.198 303.722 578.37C306.182 582.009 308.723 585.547 309.882 589.735C311.041 594.045 310.472 599.718 311.854 604.008C313.542 609.192 318.015 613.686 320.231 618.545C321.797 622.306 317.751 619.317 316.694 618.077C313.786 615.068 312.647 611.063 310.818 607.525C309.211 604.496 307.91 601.344 307.097 597.969V597.99ZM312.261 642.333C311.123 643.41 309.699 645.321 307.93 645.24C306.71 644.935 307.239 643.471 308.012 642.638C311.489 639.608 312.342 635.42 313.034 631.049C313.237 630.154 313.522 628.833 314.416 628.528C318.93 629.625 314.62 640.279 312.403 642.17L312.261 642.333ZM316.775 681.247C315.738 680.678 315.169 679.478 314.762 678.36C313.603 674.924 312.139 671.468 311.123 667.91C310.94 666.527 307.524 660.916 310.635 661.485L310.797 661.546C312.79 662.684 314.01 665.287 315.189 667.239C316.816 670.166 316.836 672.647 318.544 675.168C319.438 676.652 321.228 677.892 321.634 679.56C321.777 681.654 318.198 682.182 316.775 681.247ZM417.073 658.882C415.162 660.977 410.689 661.566 407.558 661.139C403.126 660.306 401.621 655.365 399.486 651.949C395.237 644.488 390.052 637.88 384.725 630.988C383.668 629.747 382.814 628.467 381.451 627.958C381.289 627.938 381.106 627.857 380.882 627.999L380.821 628.04C379.805 629.036 380.658 631.516 381.106 632.858C383.851 640.279 390.581 646.46 393.529 654.023C394.301 656.544 398.307 660.773 396.599 662.705C393.752 665.185 388.852 665.673 385.152 666.669C373.4 669.252 361.262 671.488 349.53 674.09C342.841 674.965 335.745 680.251 329.055 677.587C323.81 675.005 321.533 668.967 318.605 664.209C316.409 660.346 315.352 655.67 315.453 651.4C315.433 646.643 320.801 646.907 323.627 643.898C326.046 640.909 327.429 636.945 329.36 633.773C329.747 632.96 329.848 632.817 330.133 632.126C333.305 624.624 333.793 615.902 329.401 608.847C323.688 601.243 317.141 603.621 314.965 591.463C313.4 586.014 317.446 583.575 321.716 581.48C324.725 579.793 326.799 577.414 328.832 574.995C331.414 572.087 333.224 568.082 333.854 563.955C334.281 561.962 333.915 559.543 334.809 557.855C335.318 557.367 335.948 557.794 336.619 558.384C341.661 562.958 339.283 571.213 342.597 577.272C343.979 580.017 346.744 582.578 349.794 582.802C352.132 583.026 353.617 582.68 354.735 584.002C356.911 587.092 358.618 591.158 360.814 594.371C365.694 601.792 368.642 612.608 373.319 620.659C376.063 625.376 379.866 624.441 378.727 619.602C377.548 615.942 374.722 612.262 373.115 608.562C367.28 595.611 360.774 582.375 358.801 568.346C358.517 565.602 358.74 563.019 358.7 560.559C358.578 556.717 357.764 552.935 359.371 549.479C364.413 542.668 372.363 552.589 375.494 557.022C377.995 560.58 379.093 564.178 380.15 568.448C381.329 573.287 382.427 577.678 384.867 582.233C386.209 584.835 387.754 587.56 388.344 590.386C388.913 592.846 388.669 595.387 388.751 597.908C388.873 602.219 390.011 605.655 390.499 610.331C390.743 614.905 391.15 619.643 394.301 623.221C398.673 628.589 402.8 634.241 406.989 639.791C409.916 643.695 412.661 647.781 415.386 651.787C416.789 653.779 418.72 657.378 417.073 658.903V658.882ZM347.903 547.669L348.086 547.852C351.95 552.223 351.34 558.73 349.774 564.158C348.798 565.541 347.863 562.613 347.72 561.759C347.09 558.913 348.249 556.208 347.598 553.443C347.293 551.431 346.134 549.56 345.443 547.69C344.772 545.636 346.358 546.043 347.903 547.669ZM197.181 603.886C192.24 610.758 189.252 620.964 189.333 629.646V629.808C189.313 631.171 189.191 634.098 187.808 630.805C173.921 570.562 161.132 509.67 147.225 449.001C147.062 448.106 146.757 446.825 147.774 446.54C161.153 443.328 345.911 398.924 393.752 387.416C399.12 386.136 402.739 385.241 404.264 384.895C406.338 384.794 406.806 389.104 407.538 392.011C426.569 475.289 445.925 558.974 464.752 642.312C466.257 649.693 459.893 650.567 454.566 651.685C448.568 653.169 442.306 654.857 436.247 656.016C428.134 657.886 425.288 654.45 421.973 647.883C418.883 643.004 415.304 637.555 411.523 633.102C407.111 627.958 399.73 624.502 399.506 617.142C397.006 598.681 393.285 572.982 384.257 556.676C380.699 551.004 375.433 544.274 369.15 542.119C364.169 540.208 358.496 543.481 353.495 542.444C350.181 541.651 348.025 539.049 345.382 536.223C343.024 533.539 341.397 530.286 341.051 526.829C340.685 521.198 339.689 515.423 338.469 509.995C337.514 503.835 336.212 497.837 332.492 492.225C329.421 487.305 325.07 483.178 320.211 480.128C313.461 475.167 307.91 472.341 299.35 473.581C294.877 474.049 290.465 476.733 286.033 478.054C282.149 479.193 277.635 478.847 274.525 481.694C272.369 483.544 271.17 486.248 270.072 488.81C269.259 490.599 268.201 492.673 266.249 493.039C263.932 493.648 260.231 491.046 257.995 489.359C253.176 486.105 244.677 480.677 239.106 481.694C235.426 483.32 232.213 486.512 228.167 487.59C221.397 488.81 216.964 494.258 213.142 499.951C209.807 504.465 208.73 509.853 209.096 515.261C209.197 519.449 207.266 523.027 205.599 526.728C203.789 531.587 205.334 539.333 209.116 543.379C210.661 545.128 212.471 546.551 213.894 548.442C215.988 551.044 216.964 554.562 217.452 557.855C217.818 562.776 220.807 568.102 219.933 572.474C219.181 575.686 216.11 577.922 213.854 580.484C210.641 584.164 206.819 588.414 204.44 591.646C201.553 595.448 199.723 599.799 197.181 603.865V603.886ZM215.907 706.478C214.26 707.475 211.515 708.186 209.441 708.024C204.846 707.393 205.395 701.192 204.196 697.695C200.272 683.036 196.795 667.93 192.769 653.108C192.383 651.787 192.301 647.558 194.03 649.591L194.091 649.693C198.564 664.067 204.867 680.495 212.247 693.832C213.549 696.597 215.094 699.22 216.578 701.721C217.513 703.469 217.92 705.32 215.907 706.478ZM230.201 667.34C233.25 664.616 237.845 663.091 241.282 661.648C242.725 661.16 244.27 660.326 245.734 660.428C245.897 660.468 245.917 660.448 246.1 660.651L246.121 660.733C246.365 661.566 245.592 663.132 245.063 664.128C242.38 668.967 238.293 672.423 235.711 677.079C234.369 679.275 233.393 682.487 231.603 684.154C229.896 684.968 230.546 680.942 231.847 678.807C233.23 676.286 235.223 674.233 236.971 671.915C238.882 669.455 240.59 665.836 236.626 667.259C234.674 668.032 231.725 670.512 229.855 671.346C225.707 672.972 228.655 668.377 230.201 667.34ZM468.636 1081.7C468.941 1077.69 467.883 1074.21 467.294 1070.17C466.359 1062.04 466.481 1053.48 458.754 1048.56L458.571 1048.41C453.183 1044.77 445.477 1042.94 439.195 1045.83C435.006 1047.8 432.607 1051.99 429.984 1055.51C427.687 1058.31 427.239 1063.05 424.637 1065.37C422.238 1066.63 419.351 1063.4 415.813 1061.91C414.349 1061.22 412.783 1060.67 411.197 1060.33C404.386 1059.11 396.884 1060.73 394.911 1068.13C393.63 1072.16 392.593 1076.47 393.061 1080.23C396.66 1095.48 408.92 1105.95 420.754 1115.34C428.785 1122.01 436.186 1128.89 443.607 1135.88C446.128 1138.34 447.999 1141.35 450.825 1143.34C458.754 1148.12 457.453 1129.9 458.998 1125.57C461.519 1113.39 467.375 1093.24 468.636 1081.68V1081.7ZM452.594 1123.36C451.862 1126.77 451.841 1131.04 451.374 1134.23C450.723 1137.47 449.198 1136.06 447.572 1134.13C438.666 1122.75 426.264 1113.47 415.67 1104.1C412.987 1101.82 410.221 1099.73 407.761 1097.29C404.101 1093.59 401.214 1088.53 398.713 1083.97C395.623 1078.63 397.331 1071.16 401.865 1067.36C405.098 1065.11 409.55 1066.24 413.922 1067.59C415.894 1068.26 417.724 1069.21 419.391 1070.47C423.559 1073.95 426.772 1076.74 429.334 1070.96C431.408 1066.1 432.546 1060.57 436.003 1056.4C440.516 1050.43 449.056 1048.09 454.749 1053.21L454.932 1053.37C459.974 1057.81 460.483 1064.64 461.641 1070.74C462.068 1073.34 462.597 1076.1 462.394 1078.79C461.174 1090.89 455.156 1109.94 452.594 1123.38V1123.36ZM342.434 869.334C343.552 868.276 345.301 868.012 346.805 867.687C351.848 866.589 355.264 861.791 360.428 860.266C362.156 859.778 364.779 858.599 366.385 859.432L366.446 859.493C366.507 860.754 364.779 861.933 364.067 862.97C362.217 864.922 360.794 867.301 358.659 868.927C355.142 871.55 349.998 873.217 345.281 873.522C342.658 873.908 340.218 871.529 342.434 869.334ZM361.546 624.421C360.021 626.291 357.012 627.816 354.959 629.341C351.746 631.598 349.815 632.614 346.948 631.801C344.833 631.293 342.617 629.605 342.597 627.287C342.841 624.278 346.256 623.465 348.737 621.696C350.892 620.375 354.633 619.46 356.606 619.256C357.419 619.236 358.069 619.419 358.781 619.887L358.944 619.988C360.245 621.046 362.726 622.997 361.546 624.421Z" fill="#585F26"/>
</g>
</g>
</g>
</svg>
