<svg width="678" height="499" viewBox="0 0 678 499" fill="none" xmlns="http://www.w3.org/2000/svg">
<mask id="mask0_81_644" style="mask-type:luminance" maskUnits="userSpaceOnUse" x="6" y="4" width="665" height="487">
<path d="M6.66699 4H670.667V490.667H6.66699V4Z" fill="white"/>
</mask>
<g mask="url(#mask0_81_644)">
<mask id="mask1_81_644" style="mask-type:luminance" maskUnits="userSpaceOnUse" x="-13" y="-23" width="703" height="544">
<path d="M21.8288 520.38L-12.1973 22.8646L655.813 -22.8229L689.839 474.693L21.8288 520.38Z" fill="white"/>
</mask>
<g mask="url(#mask1_81_644)">
<mask id="mask2_81_644" style="mask-type:luminance" maskUnits="userSpaceOnUse" x="-13" y="-23" width="703" height="544">
<path d="M21.8288 520.38L-12.1973 22.8646L655.813 -22.8229L689.839 474.693L21.8288 520.38Z" fill="white"/>
</mask>
<g mask="url(#mask2_81_644)">
<mask id="mask3_81_644" style="mask-type:luminance" maskUnits="userSpaceOnUse" x="-13" y="-23" width="703" height="544">
<path d="M21.8288 520.38L-12.1973 22.8646L655.813 -22.8229L689.839 474.693L21.8288 520.38Z" fill="white"/>
</mask>
<g mask="url(#mask3_81_644)">
<path d="M322.23 5.17188C352.969 3.06771 382.391 26.875 411.131 30.3854C441.99 34.1667 476.433 18.4792 503.474 28C533.094 38.3229 549.724 72.125 573.146 88.2083C599.214 106.073 636.917 111.354 652.568 134.979C669.464 160.349 658.693 195.75 660.745 225.781C662.797 255.813 678.292 289.411 665.006 316.844C652.578 342.396 615.938 352.62 592.693 373.995C571.677 393.115 559.808 428.87 531.865 443.13C506.36 456.104 470.115 445.391 440.058 453.339C412.063 460.729 386.297 488.313 355.417 490.422C324.677 492.526 295.256 468.719 266.521 465.208C235.662 461.427 201.219 477.115 174.177 467.594C144.552 457.271 127.922 423.464 104.5 407.385C78.4326 389.521 40.7347 384.24 25.0785 360.615C8.18262 335.245 18.9587 299.844 16.9014 269.813C14.8493 239.781 -0.6455 206.177 12.641 178.745C25.0733 153.198 61.7139 142.974 84.9587 121.599C105.969 102.479 117.839 66.724 145.782 52.4635C171.287 39.4896 207.537 50.2031 237.594 42.2552C265.584 34.8646 291.49 7.27084 322.23 5.17188Z" fill="#F8F8EB"/>
</g>
</g>
</g>
</g>
<mask id="mask4_81_644" style="mask-type:luminance" maskUnits="userSpaceOnUse" x="98" y="97" width="2" height="2">
<path d="M98.667 97.3333H100V98.6667H98.667V97.3333Z" fill="white"/>
</mask>
<g mask="url(#mask4_81_644)">
<mask id="mask5_81_644" style="mask-type:luminance" maskUnits="userSpaceOnUse" x="-13" y="-23" width="703" height="544">
<path d="M21.8288 520.38L-12.1973 22.8646L655.813 -22.8229L689.839 474.693L21.8288 520.38Z" fill="white"/>
</mask>
<g mask="url(#mask5_81_644)">
<mask id="mask6_81_644" style="mask-type:luminance" maskUnits="userSpaceOnUse" x="-13" y="-23" width="703" height="544">
<path d="M21.8288 520.38L-12.1973 22.8646L655.813 -22.8229L689.839 474.693L21.8288 520.38Z" fill="white"/>
</mask>
<g mask="url(#mask6_81_644)">
<mask id="mask7_81_644" style="mask-type:luminance" maskUnits="userSpaceOnUse" x="-13" y="-23" width="703" height="544">
<path d="M21.8288 520.38L-12.1973 22.8646L655.813 -22.8229L689.839 474.693L21.8288 520.38Z" fill="white"/>
</mask>
<g mask="url(#mask7_81_644)">
<path d="M99.7767 98.1302C99.7662 97.9896 99.7558 97.849 99.7454 97.7083C99.6256 98 99.7767 98.1302 99.7767 98.1302Z" fill="#F6D3CC"/>
</g>
</g>
</g>
</g>
<mask id="mask8_81_644" style="mask-type:luminance" maskUnits="userSpaceOnUse" x="138" y="452" width="5" height="3">
<path d="M138.667 452H142.667V454.667H138.667V452Z" fill="white"/>
</mask>
<g mask="url(#mask8_81_644)">
<mask id="mask9_81_644" style="mask-type:luminance" maskUnits="userSpaceOnUse" x="-13" y="-23" width="703" height="544">
<path d="M21.8288 520.38L-12.1973 22.8646L655.813 -22.8229L689.839 474.693L21.8288 520.38Z" fill="white"/>
</mask>
<g mask="url(#mask9_81_644)">
<mask id="mask10_81_644" style="mask-type:luminance" maskUnits="userSpaceOnUse" x="-13" y="-23" width="703" height="544">
<path d="M21.8288 520.38L-12.1973 22.8646L655.813 -22.8229L689.839 474.693L21.8288 520.38Z" fill="white"/>
</mask>
<g mask="url(#mask10_81_644)">
<mask id="mask11_81_644" style="mask-type:luminance" maskUnits="userSpaceOnUse" x="-13" y="-23" width="703" height="544">
<path d="M21.8288 520.38L-12.1973 22.8646L655.813 -22.8229L689.839 474.693L21.8288 520.38Z" fill="white"/>
</mask>
<g mask="url(#mask11_81_644)">
<path d="M141.417 454.536L139.917 453.099C140.662 453.75 140.979 454.286 141.417 454.536Z" fill="#F6D3CC"/>
</g>
</g>
</g>
</g>
<mask id="mask12_81_644" style="mask-type:luminance" maskUnits="userSpaceOnUse" x="9" y="329" width="2" height="5">
<path d="M9.33398 329.333H10.6673V333.333H9.33398V329.333Z" fill="white"/>
</mask>
<g mask="url(#mask12_81_644)">
<mask id="mask13_81_644" style="mask-type:luminance" maskUnits="userSpaceOnUse" x="-13" y="-23" width="703" height="544">
<path d="M21.8288 520.38L-12.1973 22.8646L655.813 -22.8229L689.839 474.693L21.8288 520.38Z" fill="white"/>
</mask>
<g mask="url(#mask13_81_644)">
<mask id="mask14_81_644" style="mask-type:luminance" maskUnits="userSpaceOnUse" x="-13" y="-23" width="703" height="544">
<path d="M21.8288 520.38L-12.1973 22.8646L655.813 -22.8229L689.839 474.693L21.8288 520.38Z" fill="white"/>
</mask>
<g mask="url(#mask14_81_644)">
<mask id="mask15_81_644" style="mask-type:luminance" maskUnits="userSpaceOnUse" x="-13" y="-23" width="703" height="544">
<path d="M21.8288 520.38L-12.1973 22.8646L655.813 -22.8229L689.839 474.693L21.8288 520.38Z" fill="white"/>
</mask>
<g mask="url(#mask15_81_644)">
<path d="M9.66699 330.229C9.84407 330.781 9.9222 331.896 10.1253 332.865C10.042 331.609 9.96387 330.49 9.66699 330.229Z" fill="#F6D3CC"/>
</g>
</g>
</g>
</g>
<mask id="mask16_81_644" style="mask-type:luminance" maskUnits="userSpaceOnUse" x="416" y="470" width="2" height="4">
<path d="M416 470.667H417.333V473.333H416V470.667Z" fill="white"/>
</mask>
<g mask="url(#mask16_81_644)">
<mask id="mask17_81_644" style="mask-type:luminance" maskUnits="userSpaceOnUse" x="-13" y="-23" width="703" height="544">
<path d="M21.8278 520.38L-12.1982 22.8646L655.812 -22.8229L689.838 474.693L21.8278 520.38Z" fill="white"/>
</mask>
<g mask="url(#mask17_81_644)">
<mask id="mask18_81_644" style="mask-type:luminance" maskUnits="userSpaceOnUse" x="-13" y="-23" width="703" height="544">
<path d="M21.8278 520.38L-12.1982 22.8646L655.812 -22.8229L689.838 474.693L21.8278 520.38Z" fill="white"/>
</mask>
<g mask="url(#mask18_81_644)">
<mask id="mask19_81_644" style="mask-type:luminance" maskUnits="userSpaceOnUse" x="-13" y="-23" width="703" height="544">
<path d="M21.8278 520.38L-12.1982 22.8646L655.812 -22.8229L689.838 474.693L21.8278 520.38Z" fill="white"/>
</mask>
<g mask="url(#mask19_81_644)">
<path d="M416.88 471.625L416.489 472.073C416.89 471.766 417.031 471.755 416.88 471.625Z" fill="#F6D3CC"/>
</g>
</g>
</g>
</g>
<mask id="mask20_81_644" style="mask-type:luminance" maskUnits="userSpaceOnUse" x="469" y="441" width="4" height="2">
<path d="M469.334 441.333H472.001V442.667H469.334V441.333Z" fill="white"/>
</mask>
<g mask="url(#mask20_81_644)">
<mask id="mask21_81_644" style="mask-type:luminance" maskUnits="userSpaceOnUse" x="-13" y="-23" width="703" height="544">
<path d="M21.8288 520.38L-12.1973 22.8646L655.813 -22.8229L689.839 474.693L21.8288 520.38Z" fill="white"/>
</mask>
<g mask="url(#mask21_81_644)">
<mask id="mask22_81_644" style="mask-type:luminance" maskUnits="userSpaceOnUse" x="-13" y="-23" width="703" height="544">
<path d="M21.8288 520.38L-12.1973 22.8646L655.813 -22.8229L689.839 474.693L21.8288 520.38Z" fill="white"/>
</mask>
<g mask="url(#mask22_81_644)">
<mask id="mask23_81_644" style="mask-type:luminance" maskUnits="userSpaceOnUse" x="-13" y="-23" width="703" height="544">
<path d="M21.8288 520.38L-12.1973 22.8646L655.813 -22.8229L689.839 474.693L21.8288 520.38Z" fill="white"/>
</mask>
<g mask="url(#mask23_81_644)">
<path d="M470.026 442.026L471.709 442.052C470.865 441.969 470.302 442.011 470.026 442.026Z" fill="#F6D3CC"/>
</g>
</g>
</g>
</g>
<mask id="mask24_81_644" style="mask-type:luminance" maskUnits="userSpaceOnUse" x="661" y="333" width="4" height="2">
<path d="M661.334 333.333H664.001V334.667H661.334V333.333Z" fill="white"/>
</mask>
<g mask="url(#mask24_81_644)">
<mask id="mask25_81_644" style="mask-type:luminance" maskUnits="userSpaceOnUse" x="-13" y="-23" width="703" height="544">
<path d="M21.8288 520.38L-12.1973 22.8646L655.813 -22.8229L689.839 474.693L21.8288 520.38Z" fill="white"/>
</mask>
<g mask="url(#mask25_81_644)">
<mask id="mask26_81_644" style="mask-type:luminance" maskUnits="userSpaceOnUse" x="-13" y="-23" width="703" height="544">
<path d="M21.8288 520.38L-12.1973 22.8646L655.813 -22.8229L689.839 474.693L21.8288 520.38Z" fill="white"/>
</mask>
<g mask="url(#mask26_81_644)">
<mask id="mask27_81_644" style="mask-type:luminance" maskUnits="userSpaceOnUse" x="-13" y="-23" width="703" height="544">
<path d="M21.8288 520.38L-12.1973 22.8646L655.813 -22.8229L689.839 474.693L21.8288 520.38Z" fill="white"/>
</mask>
<g mask="url(#mask27_81_644)">
<path d="M662.912 333.406C662.772 333.417 662.772 333.417 662.912 333.406C662.652 333.708 662.522 333.854 662.392 334.005L662.912 333.406Z" fill="#F6D3CC"/>
</g>
</g>
</g>
</g>
<mask id="mask28_81_644" style="mask-type:luminance" maskUnits="userSpaceOnUse" x="670" y="317" width="5" height="6">
<path d="M670.666 317.333H674.666V322.667H670.666V317.333Z" fill="white"/>
</mask>
<g mask="url(#mask28_81_644)">
<mask id="mask29_81_644" style="mask-type:luminance" maskUnits="userSpaceOnUse" x="-13" y="-23" width="703" height="544">
<path d="M21.8278 520.38L-12.1982 22.8646L655.812 -22.8229L689.838 474.693L21.8278 520.38Z" fill="white"/>
</mask>
<g mask="url(#mask29_81_644)">
<mask id="mask30_81_644" style="mask-type:luminance" maskUnits="userSpaceOnUse" x="-13" y="-23" width="703" height="544">
<path d="M21.8278 520.38L-12.1982 22.8646L655.812 -22.8229L689.838 474.693L21.8278 520.38Z" fill="white"/>
</mask>
<g mask="url(#mask30_81_644)">
<mask id="mask31_81_644" style="mask-type:luminance" maskUnits="userSpaceOnUse" x="-13" y="-23" width="703" height="544">
<path d="M21.8278 520.38L-12.1982 22.8646L655.812 -22.8229L689.838 474.693L21.8278 520.38Z" fill="white"/>
</mask>
<g mask="url(#mask31_81_644)">
<path d="M673.411 318.656C673.172 319.234 672.932 319.813 672.687 320.391C672.448 320.969 672.067 321.557 671.833 322.271C672.828 320.38 673.182 319.375 673.411 318.656Z" fill="#F6D3CC"/>
</g>
</g>
</g>
</g>
<mask id="mask32_81_644" style="mask-type:luminance" maskUnits="userSpaceOnUse" x="665" y="145" width="4" height="3">
<path d="M665.334 145.333H668.001V148H665.334V145.333Z" fill="white"/>
</mask>
<g mask="url(#mask32_81_644)">
<mask id="mask33_81_644" style="mask-type:luminance" maskUnits="userSpaceOnUse" x="-13" y="-23" width="703" height="544">
<path d="M21.8288 520.38L-12.1973 22.8646L655.813 -22.8229L689.839 474.693L21.8288 520.38Z" fill="white"/>
</mask>
<g mask="url(#mask33_81_644)">
<mask id="mask34_81_644" style="mask-type:luminance" maskUnits="userSpaceOnUse" x="-13" y="-23" width="703" height="544">
<path d="M21.8288 520.38L-12.1973 22.8646L655.813 -22.8229L689.839 474.693L21.8288 520.38Z" fill="white"/>
</mask>
<g mask="url(#mask34_81_644)">
<mask id="mask35_81_644" style="mask-type:luminance" maskUnits="userSpaceOnUse" x="-13" y="-23" width="703" height="544">
<path d="M21.8288 520.38L-12.1973 22.8646L655.813 -22.8229L689.839 474.693L21.8288 520.38Z" fill="white"/>
</mask>
<g mask="url(#mask35_81_644)">
<path d="M666.537 146.234C666.714 146.781 666.891 147.333 667.068 147.88C666.881 147.193 666.704 146.646 666.537 146.234Z" fill="#F6D3CC"/>
</g>
</g>
</g>
</g>
<mask id="mask36_81_644" style="mask-type:luminance" maskUnits="userSpaceOnUse" x="9" y="316" width="2" height="3">
<path d="M9.33398 316H10.6673V318.667H9.33398V316Z" fill="white"/>
</mask>
<g mask="url(#mask36_81_644)">
<mask id="mask37_81_644" style="mask-type:luminance" maskUnits="userSpaceOnUse" x="-13" y="-23" width="703" height="544">
<path d="M21.8288 520.38L-12.1973 22.8646L655.813 -22.8229L689.839 474.693L21.8288 520.38Z" fill="white"/>
</mask>
<g mask="url(#mask37_81_644)">
<mask id="mask38_81_644" style="mask-type:luminance" maskUnits="userSpaceOnUse" x="-13" y="-23" width="703" height="544">
<path d="M21.8288 520.38L-12.1973 22.8646L655.813 -22.8229L689.839 474.693L21.8288 520.38Z" fill="white"/>
</mask>
<g mask="url(#mask38_81_644)">
<mask id="mask39_81_644" style="mask-type:luminance" maskUnits="userSpaceOnUse" x="-13" y="-23" width="703" height="544">
<path d="M21.8288 520.38L-12.1973 22.8646L655.813 -22.8229L689.839 474.693L21.8288 520.38Z" fill="white"/>
</mask>
<g mask="url(#mask39_81_644)">
<path d="M9.66225 317.88C9.77683 317.453 9.73516 316.896 9.70912 316.474C9.6987 316.339 9.55808 316.344 9.66225 317.88Z" fill="#F6D3CC"/>
</g>
</g>
</g>
</g>
<mask id="mask40_81_644" style="mask-type:luminance" maskUnits="userSpaceOnUse" x="81" y="389" width="9" height="5">
<path d="M81.334 389.333H89.334V393.333H81.334V389.333Z" fill="white"/>
</mask>
<g mask="url(#mask40_81_644)">
<mask id="mask41_81_644" style="mask-type:luminance" maskUnits="userSpaceOnUse" x="-13" y="-23" width="703" height="544">
<path d="M21.8288 520.38L-12.1973 22.8646L655.813 -22.8229L689.839 474.693L21.8288 520.38Z" fill="white"/>
</mask>
<g mask="url(#mask41_81_644)">
<mask id="mask42_81_644" style="mask-type:luminance" maskUnits="userSpaceOnUse" x="-13" y="-23" width="703" height="544">
<path d="M21.8288 520.38L-12.1973 22.8646L655.813 -22.8229L689.839 474.693L21.8288 520.38Z" fill="white"/>
</mask>
<g mask="url(#mask42_81_644)">
<mask id="mask43_81_644" style="mask-type:luminance" maskUnits="userSpaceOnUse" x="-13" y="-23" width="703" height="544">
<path d="M21.8288 520.38L-12.1973 22.8646L655.813 -22.8229L689.839 474.693L21.8288 520.38Z" fill="white"/>
</mask>
<g mask="url(#mask43_81_644)">
<path d="M82.2666 390.099C83.1416 390.604 84.2874 390.943 85.2926 391.297C86.4385 391.641 87.4489 391.99 88.1624 392.224C87.2979 391.859 86.4229 391.359 85.4124 391.01C84.5583 390.787 83.5479 390.432 82.2666 390.099Z" fill="#F6D3CC"/>
</g>
</g>
</g>
</g>
<mask id="mask44_81_644" style="mask-type:luminance" maskUnits="userSpaceOnUse" x="98" y="397" width="4" height="3">
<path d="M98.667 397.333H101.334V400H98.667V397.333Z" fill="white"/>
</mask>
<g mask="url(#mask44_81_644)">
<mask id="mask45_81_644" style="mask-type:luminance" maskUnits="userSpaceOnUse" x="-13" y="-23" width="703" height="544">
<path d="M21.8288 520.38L-12.1973 22.8646L655.813 -22.8229L689.839 474.693L21.8288 520.38Z" fill="white"/>
</mask>
<g mask="url(#mask45_81_644)">
<mask id="mask46_81_644" style="mask-type:luminance" maskUnits="userSpaceOnUse" x="-13" y="-23" width="703" height="544">
<path d="M21.8288 520.38L-12.1973 22.8646L655.813 -22.8229L689.839 474.693L21.8288 520.38Z" fill="white"/>
</mask>
<g mask="url(#mask46_81_644)">
<mask id="mask47_81_644" style="mask-type:luminance" maskUnits="userSpaceOnUse" x="-13" y="-23" width="703" height="544">
<path d="M21.8288 520.38L-12.1973 22.8646L655.813 -22.8229L689.839 474.693L21.8288 520.38Z" fill="white"/>
</mask>
<g mask="url(#mask47_81_644)">
<path d="M100.407 398.823C100.256 398.693 99.9694 398.573 99.8184 398.443C99.9694 398.573 100.12 398.703 100.407 398.823Z" fill="#F6D3CC"/>
</g>
</g>
</g>
</g>
<mask id="mask48_81_644" style="mask-type:luminance" maskUnits="userSpaceOnUse" x="24" y="345" width="2" height="3">
<path d="M24 345.333H25.3333V348H24V345.333Z" fill="white"/>
</mask>
<g mask="url(#mask48_81_644)">
<mask id="mask49_81_644" style="mask-type:luminance" maskUnits="userSpaceOnUse" x="-13" y="-23" width="703" height="544">
<path d="M21.8278 520.38L-12.1982 22.8646L655.812 -22.8229L689.838 474.693L21.8278 520.38Z" fill="white"/>
</mask>
<g mask="url(#mask49_81_644)">
<mask id="mask50_81_644" style="mask-type:luminance" maskUnits="userSpaceOnUse" x="-13" y="-23" width="703" height="544">
<path d="M21.8278 520.38L-12.1982 22.8646L655.812 -22.8229L689.838 474.693L21.8278 520.38Z" fill="white"/>
</mask>
<g mask="url(#mask50_81_644)">
<mask id="mask51_81_644" style="mask-type:luminance" maskUnits="userSpaceOnUse" x="-13" y="-23" width="703" height="544">
<path d="M21.8278 520.38L-12.1982 22.8646L655.812 -22.8229L689.838 474.693L21.8278 520.38Z" fill="white"/>
</mask>
<g mask="url(#mask51_81_644)">
<path d="M24.3174 345.37C24.3434 345.787 24.3851 346.344 24.5622 346.896C24.5518 346.755 24.5309 346.474 24.3747 346.208C24.3538 345.927 24.3382 345.646 24.3174 345.37Z" fill="#F6D3CC"/>
</g>
</g>
</g>
</g>
<mask id="mask52_81_644" style="mask-type:luminance" maskUnits="userSpaceOnUse" x="0" y="0" width="678" height="499">
<path d="M0 0H677.333V498.667H0V0Z" fill="white"/>
</mask>
<g mask="url(#mask52_81_644)">
<mask id="mask53_81_644" style="mask-type:luminance" maskUnits="userSpaceOnUse" x="-13" y="-23" width="703" height="544">
<path d="M21.8278 520.38L-12.1982 22.8646L655.812 -22.8229L689.838 474.693L21.8278 520.38Z" fill="white"/>
</mask>
<g mask="url(#mask53_81_644)">
<mask id="mask54_81_644" style="mask-type:luminance" maskUnits="userSpaceOnUse" x="-13" y="-23" width="703" height="544">
<path d="M21.8278 520.38L-12.1982 22.8646L655.812 -22.8229L689.838 474.693L21.8278 520.38Z" fill="white"/>
</mask>
<g mask="url(#mask54_81_644)">
<mask id="mask55_81_644" style="mask-type:luminance" maskUnits="userSpaceOnUse" x="-13" y="-23" width="703" height="544">
<path d="M21.8278 520.38L-12.1982 22.8646L655.812 -22.8229L689.838 474.693L21.8278 520.38Z" fill="white"/>
</mask>
<g mask="url(#mask55_81_644)">
<path d="M361.724 480.026C356.744 481.073 351.583 481.563 345.937 481.109C343.114 480.88 340.271 480.375 337.291 479.875C334.297 479.24 331.297 478.458 328.286 477.542C322.265 475.708 316.208 473.318 310.276 470.776C304.359 468.375 298.427 465.833 292.807 463.693C290.244 463.167 287.093 462.255 283.515 461.24C280.073 460.214 276.224 459.354 272.109 458.651L271.463 457.432C270.328 457.229 269.198 457.167 268.073 457.104C266.942 457.042 265.817 456.979 264.687 456.911C261.979 456.255 269.906 457.26 265.067 456.328C264.239 456.521 263.265 456.589 262.432 456.786C262.135 456.526 257.906 456.255 255.093 456.167C253.687 456.125 252.698 456.052 252.687 455.911C252.687 455.911 252.958 455.75 253.515 455.714C253.797 455.693 254.213 455.667 254.776 455.625C255.333 455.589 255.89 455.552 256.593 455.505C247.89 455.536 239.526 456.391 231.458 457.5C226.172 458.146 228.463 458.828 222.604 459.37C221.328 459.177 224.672 458.807 224.093 458.568C215.307 459.448 210.614 460.609 205.911 461.635C203.557 462.078 201.349 462.651 198.703 462.969C196.062 463.292 192.979 463.359 189.307 463.052L190.562 462.964C189.864 463.016 189.166 463.063 188.317 462.979C187.468 462.896 186.76 462.802 185.922 462.859C184.369 462.688 183.229 462.484 183.239 462.625C184.125 463.266 184.687 463.229 185.802 463.151C186.364 463.115 186.922 463.073 187.619 463.026C188.328 463.12 189.307 463.052 190.312 463.406C190.062 463.844 188.666 463.938 187.26 463.896C186.552 463.802 185.989 463.839 185.432 463.88C185.01 463.906 184.734 463.927 184.75 464.203C181.323 463.318 179.364 463.453 176.494 462.526C174.172 461.422 171.286 460.214 168.656 458.708C166.026 457.208 163.666 455.542 162.312 454.234C160.119 452.979 157.109 452.063 152.781 448.286C151.541 446.547 151.828 446.672 151.968 446.661C152.109 446.651 151.958 446.521 150.13 444.401L149.13 444.188C147.468 442.479 146.864 441.818 146.698 441.406C146.536 441.135 146.677 441.13 146.817 441.12C143.343 437.568 143.422 438.682 139.297 433.776C140.192 434.557 141.088 435.333 142.114 435.969C138.797 432.688 137.567 431.083 133.161 426.193C133.432 426.036 135.26 428.156 136.484 429.615C134.718 426.37 132.114 425.281 130.885 423.682C131.062 424.234 134.114 427.813 132.192 426.401C130.057 423.88 126.958 421.708 125.677 419.406C126.713 420.182 127.609 420.958 128.505 421.74C127.302 420.563 126.406 419.781 125.807 419.26C125.213 418.74 124.765 418.349 124.463 418.089C123.718 417.438 122.812 416.516 119.948 413.625C120.244 413.885 120.229 413.609 120.515 413.729C118.448 412.188 116.198 410.094 113.661 407.88C113.062 407.359 112.317 406.708 111.718 406.188C110.984 405.677 110.375 405.021 109.64 404.505C108.901 403.995 108.156 403.344 107.416 402.833C106.682 402.323 105.797 401.682 105.057 401.172L106.375 401.922C103.593 400.292 101.88 399.844 100.416 398.964C102.187 400.245 102.786 400.766 103.083 401.026C103.244 401.297 102.963 401.318 102.994 401.734C100.755 399.781 98.7288 398.938 96.2757 397.984C93.8278 397.026 90.9476 395.964 86.8643 393.714C87.1299 393.557 89.2757 394.115 91.4788 395.505C93.0413 395.818 94.1611 395.745 95.307 396.083C96.583 396.281 98.0205 396.74 100.63 397.969C97.432 396.359 93.5153 394.526 94.5049 394.599C94.083 394.625 93.5361 394.802 93.1143 394.833C91.2236 393.839 89.6299 393.104 88.1716 392.365C87.057 392.438 91.7288 395.068 87.1143 393.276C81.9216 391.245 84.8643 391.188 83.8851 391.255C80.2757 389.818 79.5726 389.724 78.7236 389.641C78.0153 389.552 77.2966 389.318 73.958 387.724C74.6768 387.953 75.9632 388.286 76.5518 388.667C71.8955 386.318 64.8486 383.854 63.8955 382.234C64.7445 382.318 64.8747 382.167 66.7497 382.88L66.6195 383.031C72.0622 384.625 62.1559 381.37 64.2497 381.229C64.2966 381.927 57.9111 378.854 55.1403 377.359L55.7757 378.443C53.1924 377.635 51.9111 377.302 51.4632 376.911C50.8851 376.672 51.1507 376.51 51.2757 376.224C51.4059 376.073 51.6663 375.776 51.208 375.245C50.7497 374.714 49.7236 374.083 47.5309 372.828C46.0778 372.089 45.4997 371.844 45.3486 371.714C45.208 371.724 45.4997 371.844 45.9372 372.099C46.6768 372.609 47.7028 373.24 45.9684 372.516C45.0778 371.875 44.3434 371.365 43.6091 370.854C42.8695 370.344 42.2705 369.823 41.6768 369.302C41.0778 368.781 40.333 368.13 39.4476 367.49C38.6976 366.839 37.6663 366.068 36.4684 365.026C35.8643 364.365 35.0882 363.297 34.4736 362.495C33.8486 361.557 33.5101 360.74 33.6299 360.448C33.333 360.188 33.0257 359.786 32.7132 359.391C32.4059 358.99 31.958 358.599 31.6403 358.057C31.3226 357.521 31.0153 357.12 30.557 356.589C30.2393 356.047 29.9216 355.51 29.6038 354.969C28.333 352.813 27.3538 350.776 26.5986 349.984C27.4945 352.87 28.5726 354.198 29.5049 355.536C29.9736 356.208 30.4372 356.88 31.0622 357.818C31.6872 358.755 32.4632 359.828 33.4059 361.307C32.8226 360.927 32.2341 360.542 31.6455 360.161C31.4841 359.896 31.1872 359.635 31.0309 359.365C30.8695 359.094 30.7132 358.823 30.4111 358.563C30.0934 358.026 29.6403 357.495 29.3226 356.953C29.0049 356.417 28.5466 355.885 28.2184 355.203C27.9007 354.667 27.5726 353.984 27.2549 353.448C25.9632 351.01 24.9632 348.693 24.5726 347.036C24.6195 347.734 24.6455 348.151 24.3382 347.75C24.1716 347.344 24.0049 346.932 23.833 346.526C23.6663 346.115 23.4997 345.703 23.4788 345.427C23.3122 345.016 23.1507 344.745 23.1247 344.328C22.9632 344.057 22.9372 343.641 22.7757 343.37C22.5882 342.677 22.2705 342.141 22.2236 341.443C22.0465 340.891 21.859 340.203 21.682 339.656C21.0986 337.307 20.5153 334.964 20.2601 331.193C20.7497 330.177 21.0465 334.505 21.6872 337.688C21.609 336.573 21.5413 335.594 21.4841 334.755C21.4268 333.917 21.3799 333.219 21.1924 332.531C21.1663 332.109 21.1351 331.693 21.1091 331.276C21.0778 330.854 21.0413 330.297 20.9997 329.74C20.9268 328.62 20.8278 327.224 20.833 325.255C21.1038 325.099 21.1924 326.354 21.1455 327.76C21.2445 329.161 21.3486 330.698 21.6559 331.094C21.3226 328.313 21.1455 325.656 21.0934 322.854L21.2341 322.844C20.7653 322.177 20.8018 320.63 20.9372 318.516C21.0726 316.401 21.3174 313.859 21.2757 311.193C21.557 305 21.5882 301.349 21.3747 298.276C21.1768 295.344 20.7341 292.99 20.6351 289.484C20.932 287.641 21.3122 287.052 21.5101 287.88C20.8799 291.01 21.2601 290.427 21.4788 291.531C21.5986 287.177 22.7913 282.042 23.1038 284.547C23.0465 277.531 22.5674 286.969 22.4216 282.766C22.4788 279.536 22.5518 276.443 22.4684 273.224C21.9893 274.38 22.0778 277.74 21.4632 272.87C21.3226 270.776 21.2132 269.24 21.0986 267.563C20.984 265.885 20.8538 263.932 20.3903 261.297C20.7288 262.115 20.8278 259.443 21.3903 263.615C21.2132 260.958 20.6559 256.927 19.9893 255.427C20.1924 258.365 19.7497 256.005 19.1559 253.521C18.5674 251.036 17.8174 248.281 17.9684 250.516C17.6976 248.568 17.5622 246.615 17.2913 244.667C17.5153 245.917 17.9424 246.026 18.2184 247.974C18.6611 246.255 17.0518 243.281 16.6403 241.344C16.359 239.26 15.4476 234.13 15.557 233.698C15.0153 231.911 14.2965 227.609 14.5205 226.755C13.9215 224.13 13.9528 226.651 13.6143 225.833C13.1247 222.781 12.6455 219.865 12.2965 216.802C12.6768 216.214 13.6038 215.448 13.9736 216.688C13.5778 215.031 13.2809 214.771 12.9632 214.229C12.8018 213.958 12.6455 213.693 12.6038 213.13C12.4268 212.583 12.3695 211.745 12.2861 210.49C12.7965 211.854 12.8226 210.172 12.8695 208.766C13.0413 207.208 13.0986 205.943 13.6611 208.005C13.8434 206.594 13.9424 203.917 14.1611 200.958C14.3851 198.135 14.7445 195.161 15.0205 193.036C14.9736 192.339 14.9736 192.339 14.8538 192.63C14.734 192.917 14.4893 193.495 14.4007 194.203C14.307 194.911 14.083 195.771 13.984 196.339C13.8799 196.906 13.6299 197.344 13.484 197.214C13.5726 196.505 13.6559 195.656 13.7601 195.089C13.8486 194.38 13.9528 193.813 14.0413 193.104C14.2445 191.969 14.3122 190.844 14.5205 189.844C14.6351 189.417 14.5934 188.859 14.708 188.427C14.8174 188 14.9268 187.573 14.9007 187.151C14.984 186.307 15.0726 185.599 15.307 184.88C15.5361 184.161 15.6299 183.453 15.7288 182.885C15.9632 182.167 16.1924 181.453 16.4268 180.734C16.6559 180.016 17.0309 179.292 17.5309 178.411C17.7809 177.974 18.0309 177.536 18.2913 177.24C18.5413 176.802 18.7913 176.359 19.182 175.911L18.7913 176.359L18.4059 176.807L17.7705 177.833C18.1507 177.25 18.3955 176.672 18.6455 176.229C18.8955 175.792 19.1455 175.354 19.4059 175.057C19.6663 174.76 19.7861 174.469 19.9059 174.182C20.0309 173.891 20.1611 173.745 20.2809 173.453C20.5309 173.016 20.7913 172.719 21.0413 172.281C21.2913 171.839 21.682 171.391 22.0466 170.526C21.932 170.953 22.2132 170.938 22.8903 170.609C23.1611 170.448 23.5622 170.141 24.1038 169.823C24.6403 169.505 25.0309 169.057 25.7028 168.594C28.1038 166.745 31.7028 163.974 35.432 161.052C35.6872 160.609 34.4632 161.255 33.2445 161.901C32.1663 162.536 31.0778 163.031 31.4476 162.307L32.1924 160.849L33.5205 159.776C34.3226 159.161 35.2549 158.396 36.1924 157.771C36.6038 157.604 36.0726 158.057 35.4111 158.667C40.0726 154.979 45.0153 153.375 46.0309 151.766C47.9476 151.073 49.8538 150.24 51.7757 149.547L49.4476 150.406C49.958 149.672 55.6038 146.057 56.8174 145.271C62.583 141.37 64.9007 140.37 68.3018 138.734C67.7497 138.911 66.6507 139.266 66.3643 139.146C66.0726 139.026 66.4632 138.578 68.7445 137.021C69.0622 137.557 71.4893 136.13 73.9111 134.562C76.3278 132.995 78.5986 131.292 78.7601 131.562C80.6299 130.172 83.9893 127.979 83.8122 127.427L84.0049 128.255C83.9893 127.979 84.2288 127.401 84.8799 126.656C85.5309 125.906 86.4528 125.005 87.5049 123.948C89.6038 121.839 92.0882 119.146 94.0309 116.766C94.0986 117.745 95.2757 116.542 96.6924 114.62C97.333 113.734 98.1038 112.698 98.8851 111.802C99.6663 110.906 100.317 110.161 101.135 109.823C101.078 108.984 102.614 106.776 104.135 104.427C105.661 102.078 107.052 99.875 107.005 99.1771C109.541 95.2187 110.166 96.1562 111.099 95.3906L111.942 93.3698C112.864 92.4635 114.536 90.2448 116.328 87.7344C118.265 85.2187 120.328 82.5521 122.021 80.6094C122.76 79.1562 123.505 77.7031 124.25 76.25C124.786 75.9323 125.177 75.4844 125.718 75.1667C125.838 74.875 126.609 73.8385 126.989 73.2552C127.369 72.6667 127.625 72.2292 126.692 72.9948L128.385 71.0521C127.771 70.2552 130.567 68.099 133.963 64.3542C134.901 63.7292 134.922 64.0104 134.14 64.9062C135.989 63.2344 135.51 64.3906 136.729 63.7448C135.916 64.224 137.343 62.4427 138.375 61.1094C139.406 59.776 139.896 58.7604 137.078 60.6354C136.369 60.5417 139.422 57.9479 141.718 56.6667C142.276 56.6302 142.838 56.5937 143.547 56.6823L144.588 55.4896L145.635 54.4375C146.036 54.1302 146.448 53.9583 146.854 53.7917C147.265 53.625 147.677 53.4531 147.948 53.2969C148.625 52.9687 149.312 52.7812 149.864 52.6042C150.552 52.4167 151.104 52.2396 151.791 52.0521C152.479 51.8646 153.172 51.6771 153.859 51.4896C153.041 51.8229 152.359 52.151 151.682 52.4792C151.151 52.9375 150.75 53.2448 150.63 53.5312C150.51 53.8229 150.797 53.9427 151.484 53.7552C151.625 53.7448 151.906 53.7292 152.177 53.5677C152.453 53.5469 152.724 53.3906 153.005 53.3698C153.692 53.1823 154.375 52.8542 155.343 52.651C153.286 53.3542 151.927 54.0052 150.703 54.651C150.437 54.8125 150.166 54.9687 149.896 55.125C149.625 55.2865 149.354 55.4427 149.224 55.5937C148.828 55.901 148.286 56.2187 147.885 56.526C149.385 55.8646 150.062 55.5365 148.062 57.0781C150.771 55.6302 151.172 55.3229 151.573 55.0104C151.843 54.8542 151.974 54.7031 152.521 54.526C153.073 54.349 153.88 53.875 155.401 53.4896C155.286 53.9167 155.718 54.026 156.833 53.9531C157.39 53.9115 158.083 53.724 158.922 53.6667C159.75 53.4687 160.864 53.3958 162.255 53.1615L160.161 53.3021C159.458 53.349 158.76 53.3958 158.062 53.4479C158.192 53.2969 158.463 53.1406 158.744 53.1198C158.052 53.3073 157.494 53.3437 157.213 53.3646C156.937 53.3854 156.656 53.401 156.505 53.2708C156.646 53.2604 156.916 53.1042 157.198 53.0833C157.463 52.9271 157.744 52.9062 158.156 52.7396C158.833 52.4115 159.656 52.0729 160.619 51.8698C162.411 51.3229 164.067 50.9323 164.635 51.0312C162.948 51.0052 162.802 50.875 163.479 50.5521C164.161 50.224 165.547 49.9896 167.062 49.6042C170.109 48.974 173.604 48.7344 171.479 48.4583C172.156 48.1302 176.771 47.8177 177.354 48.1979C174.583 48.6667 175.708 48.7292 177.265 48.9062C178.823 49.0781 181.073 49.2083 180.677 49.5156C182.76 49.2292 176.297 49.1094 179.073 48.6406C182.286 48.4219 184.849 48.9479 186.692 49.2448L185.297 49.3385L190.375 49.6927C191.192 49.3542 185.416 49.0469 190.177 48.8646C191.453 49.0573 196.213 48.8698 196.093 49.1615C193.885 49.7344 195.479 50.4635 191.411 50.4635C193.093 50.4896 196.599 50.3906 199.119 50.3594C201.635 50.1875 203.312 50.0729 201.182 49.6562H205.25C202.698 49.2708 195.635 48.6302 203.776 48.6354L203.646 48.7865C205.463 48.6615 207.411 48.3854 209.354 48.1146L211.771 48.5104C211.76 48.3698 212.578 48.0312 214.687 48.0312C215.265 48.2708 217.229 48.276 217.109 48.5677C218.646 48.4583 219.765 48.3854 220.599 48.3281C221.437 48.2708 221.989 48.0937 222.271 48.0729C222.958 47.8854 223.088 47.7344 223.494 47.5677C226.979 47.1875 228.239 47.1042 226.739 47.7656C229.104 47.4635 232.307 47.1042 235.354 46.474C238.401 45.849 241.297 45.0885 242.963 44.8333C244.468 44.3073 245.151 43.9792 245.281 43.8333C245.552 43.6719 245.281 43.8333 244.859 43.8594C244.583 43.8802 244.172 44.0469 244.031 44.0573C243.89 44.0677 244.161 43.9062 244.974 43.4323C247.765 43.2396 252.823 41.2135 257.968 38.474C263.114 35.7344 268.494 32.2812 272.812 29.7396C269.89 30.0781 275.093 28.1823 276.088 26.2865C274.354 27.6719 284.791 22.1875 277.401 27.0417L281.979 24.2031C283.76 23.5208 281.88 24.7708 280.271 25.8646C278.661 26.9531 277.187 28.0365 279.786 27.0156C284.916 24 287.646 20.8646 294.052 18.0417C293.271 18.9375 294.349 18.3021 295.567 17.6562C296.791 17.0156 298.151 16.3594 297.5 17.1042C296.968 17.5625 296.146 17.901 295.338 18.375C294.531 18.8542 293.708 19.1875 292.76 19.6771L293.859 19.3177C299.562 16.5417 300.375 16.0677 300.343 15.6458C300.338 15.5104 300.177 15.2396 300.297 14.9479C300.416 14.6615 301.088 14.1927 302.578 13.3906C302.989 13.224 303.396 13.0521 303.807 12.8854C304.218 12.7187 304.484 12.5573 304.906 12.5312C305.593 12.3437 306.146 12.1667 306.552 11.9948C307.521 11.7917 307.942 11.7604 308.359 11.7344C309.067 11.8229 308.807 12.1198 309.099 12.2448C309.656 12.2031 310.896 11.8385 312.13 11.474C313.369 11.1094 314.75 10.7344 315.708 10.3854C313.51 11.099 311.432 11.5208 310.177 11.6094C308.916 11.6927 308.338 11.4531 309.281 10.8281C311.109 10.8437 313.724 10.1042 316.349 9.5C317.036 9.3125 317.588 9.13541 318.286 9.08854C318.833 8.91145 319.526 8.72395 319.942 8.6927C321.052 8.47916 321.88 8.28125 322.432 8.10416C319.755 8.0052 317.812 8.28125 316.411 8.375C315.026 8.60937 314.047 8.67708 313.229 9.01562C312.26 9.21874 311.432 9.41666 310.182 9.64062C309.494 9.82812 308.797 9.8802 307.828 10.0833C306.859 10.2917 305.89 10.5 304.51 10.875C303.843 11.3385 303.718 11.6302 302.911 12.1042C302.51 12.4115 301.968 12.7292 301.151 13.0677C300.333 13.401 299.244 13.901 297.734 14.4219C301.244 12.3594 297.286 14.0312 296.187 14.3906C296.885 14.3385 295.797 14.8385 294.578 15.4792C293.218 16.1354 291.593 16.9479 290.651 17.5729C289.823 17.7708 290.484 17.1667 290.734 16.724C290.984 16.2865 290.698 16.1667 287.708 17.6354L287.255 19.2083C284.948 20.349 287.729 17.9167 283.156 20.8906C284.208 19.8385 283.927 19.8594 284.182 19.4219C284.442 19.1198 285.099 18.5156 288.349 16.75C284.255 18.4323 281.286 20.1771 278.744 22.0365C276.203 23.8958 273.953 25.875 271.135 27.75C271.661 27.2917 271.656 27.151 272.182 26.6979C271.135 27.75 268.833 29.0312 267.083 30.1302C263.015 32.2344 269.875 27.8385 268.776 28.1927C266.619 29.4635 264.599 30.724 262.432 31.8542C262.291 31.8646 262.291 31.8646 262.291 31.8646C260.682 32.9531 259.062 33.9062 258.364 33.9583C260.093 32.5729 260.604 31.8385 261.797 30.776C259.656 32.3229 257.505 33.7344 255.354 35.1458C255.614 34.8437 254.109 35.3698 253.146 35.7135C252.599 35.8958 252.317 35.9115 252.312 35.7708C252.442 35.625 252.838 35.3177 254.057 34.6719C250.672 36.4479 247.265 37.9427 243.708 39.3073L242.552 38.8281C241.323 39.3333 240.646 39.6562 240.781 39.651C240.781 39.651 241.619 39.5937 243.13 39.0677C242.718 39.2344 242.031 39.4219 241.343 39.6094C240.651 39.7969 239.833 40.1354 239.015 40.474C237.364 41.0052 235.448 41.6979 233.791 42.0937C232.963 42.2865 232.135 42.4844 231.442 42.6719C230.755 42.8594 230.057 42.9062 229.5 42.9479C228.521 43.0156 227.953 42.9115 228.484 42.4531C224.198 43.4479 221.135 43.8021 217.922 44.0208C214.708 44.2396 211.213 44.4792 205.755 44.7135C209.937 44.2865 207.531 44.026 205.14 43.9115C202.885 43.7865 200.619 43.5208 204.958 43.3646C199.744 43.0156 198.672 43.7917 194.609 43.9271C190.791 43.4896 192.567 42.8073 196.619 42.5312L191.729 42.8646L191.859 42.7135L187.677 43.1406C183.161 42.75 186.781 42.3594 182.005 42.2656L181.073 43.0312L177.963 42.6823C179.109 43.026 176.453 43.2083 172.958 43.4479L173.088 43.2969C171.692 43.3906 170.307 43.625 168.911 43.724C170.984 43.3021 170.005 43.3646 168.75 43.4531C167.494 43.5365 165.953 43.6458 166.916 43.2969C166.078 43.3542 165.385 43.5417 164.687 43.5885C164.13 43.6302 163.578 43.8073 162.88 43.8542C162.192 44.0417 161.494 44.0885 160.526 44.2969C160.104 44.3229 159.557 44.5052 158.869 44.6927C158.317 44.8698 157.619 44.9167 156.802 45.25C157.229 45.3646 157.651 45.3333 158.078 45.4479C156.01 46.0104 155.052 46.3542 154.494 46.3906C153.942 46.5729 153.932 46.4323 153.922 46.2917C153.916 46.151 154.047 46 153.625 46.0312C153.208 46.0573 152.505 46.1094 150.869 46.7812L151.458 47.1615C150.906 47.3385 150.218 47.526 149.661 47.5677C149.109 47.7448 148.562 47.9219 148.01 48.099C146.911 48.4531 145.823 48.9479 144.875 49.4375C144.323 49.6146 143.927 49.9219 143.385 50.2396C142.984 50.5469 142.437 50.724 142.036 51.0312C141.088 51.5208 140.286 52.1354 139.474 52.6146C136.255 54.7969 133.614 57.224 130.677 59.3906C132.114 57.8854 132.635 57.2917 132.755 57C132.88 56.7135 132.609 56.8698 132.609 56.8698C130.229 59 127.187 61.7344 124.453 64.8646C121.718 68 119.135 71.2656 117.489 73.901C116.411 74.5365 115.88 74.9948 114.958 75.901C114.036 76.8073 112.864 78.151 110.791 80.6771C108.119 84.6458 107.734 85.2344 107.281 86.8125C105.859 88.5937 104.083 91.3802 102.552 93.5885C101.021 95.7969 99.7341 97.5729 99.458 97.5885C99.2549 98.724 97.0101 100.844 95.9059 103.167L95.3695 103.484L96.0674 103.437C93.1716 106.297 91.2497 108.958 89.3278 111.615C87.2653 114.281 85.1872 116.807 81.9788 119.135C82.2393 118.833 82.6299 118.385 82.8903 118.089C82.0986 118.844 81.307 119.599 80.5309 120.495C79.9788 120.672 80.8903 119.63 80.7341 119.359C76.8903 122.708 72.7393 125.661 68.3122 128.63C69.2601 128.141 70.208 127.656 71.0205 127.182C68.3382 129.047 66.7757 130.839 63.3799 132.474C65.7705 130.484 64.6924 131.12 62.8122 132.375C60.932 133.625 58.2341 135.214 57.6716 135.25L60.4841 133.234C56.583 135.745 56.583 135.745 57.1611 135.99C52.0518 139.281 53.0361 137.25 48.4997 140.651L51.8643 138.594C53.1038 138.229 50.8434 140.068 48.557 141.49C48.0049 141.667 46.2393 142.49 47.9841 141.385C45.9684 142.646 43.4059 144.224 41.1195 145.646C38.8278 147.062 36.8122 148.323 36.0205 149.083C33.7184 150.359 34.2288 149.625 35.2913 148.708C34.2236 149.484 33.4216 150.099 32.7497 150.568C32.083 151.036 31.5518 151.49 31.0101 151.807C30.0726 152.432 29.6715 152.745 29.1403 153.198C28.2132 153.964 27.1247 154.464 23.1716 158.24L23.1403 157.823C22.2184 158.724 21.4372 159.62 20.6559 160.516L18.5257 162.208C17.8695 162.812 17.1976 163.281 16.3955 163.896L18.0049 162.802C17.3486 163.411 16.8278 164.005 16.307 164.604C15.7861 165.198 15.4059 165.786 14.8851 166.385C14.3643 166.979 13.9788 167.568 13.4684 168.307C12.9476 168.901 12.4476 169.781 11.7965 170.526L12.3799 168.802C10.9893 171 9.83301 172.625 8.96322 174.229C8.58822 174.953 8.0778 175.693 7.70801 176.417C7.33822 177.146 6.95801 177.734 6.72363 178.448C6.34342 179.036 6.10905 179.755 5.87988 180.474C5.76009 180.76 5.64551 181.187 5.38509 181.49C5.27572 181.917 5.15593 182.208 5.04655 182.635C4.4528 184.219 4.0153 186.073 3.61947 188.484C3.37988 189.063 3.56217 187.646 3.64551 186.802C3.23926 189.073 3.06738 190.63 2.86426 191.766C2.76009 192.333 2.66113 192.901 2.54655 193.328C2.43717 193.76 2.3278 194.188 2.21322 194.615C1.99447 195.474 1.77051 196.328 1.70801 197.458C1.60384 198.026 1.65072 198.724 1.57259 199.573C1.62988 200.411 1.69759 201.385 1.77051 202.505C1.59342 201.958 1.37988 202.953 1.21322 202.542C1.30697 203.943 1.39551 205.198 1.62988 206.583L1.05176 206.344C1.40593 207.443 1.7653 208.542 2.11947 209.641C1.89551 210.495 1.81218 211.344 1.59342 212.203L1.97884 213.719C1.77572 214.854 1.70801 215.979 1.79655 217.24C1.87988 218.495 1.96842 219.755 2.2028 221.141C2.53613 223.922 3.00488 226.698 3.06738 229.641L3.68717 228.474C5.7028 235.354 7.23405 243.391 8.49447 251.583C9.06217 255.755 9.61947 259.786 9.90592 263.979C10.333 268.156 10.458 272.078 10.7445 276.271L10.1663 276.026C10.2445 277.146 10.4632 278.255 10.5361 279.37C10.6143 280.49 10.6924 281.604 10.9059 282.714C10.6143 284.557 10.432 284.01 10.3747 283.172C10.3174 282.333 10.234 281.073 9.99447 281.651C9.97884 283.479 10.0518 284.594 10.0986 285.297C10.1559 286.13 10.3278 286.542 10.3538 286.964C10.5622 287.927 10.6299 288.906 10.5049 293.266C9.82259 297.661 10.1195 291.75 9.97884 289.651C9.97363 293.724 9.76009 298.792 9.52572 303.578C9.29134 308.365 9.04134 312.875 8.8278 315.974C8.97884 316.104 9.01009 316.526 9.12988 316.234C9.18197 319.036 9.26009 322.26 9.34863 325.62C9.43717 328.984 9.67676 332.474 10.0361 335.677C9.89551 335.688 9.71842 335.141 9.54134 334.589C9.36426 334.042 9.30697 333.203 9.24967 332.365C9.40072 334.599 9.61947 337.813 10.3122 339.729C9.97884 338.911 9.65072 338.229 9.31217 337.411C9.62467 339.917 10.432 343.51 11.3434 346.536C11.8643 348.042 12.2497 349.563 12.6038 350.661C12.9632 351.755 13.1611 352.589 13.1768 352.865C13.1611 352.589 13.2913 352.438 13.5986 352.839C13.7549 353.109 14.057 353.365 14.2445 354.057C14.4007 354.328 14.5674 354.734 14.7288 355.005C14.8955 355.417 15.2028 355.813 15.3851 356.365C15.432 357.063 15.7757 358.021 16.4215 359.24C16.7393 359.781 17.0674 360.458 17.5309 361.13C17.9997 361.797 18.4684 362.469 18.9424 363.276C19.5518 363.938 20.0257 364.745 20.6455 365.547C21.2601 366.349 21.8643 367.005 22.6195 367.797C23.2393 368.599 23.9841 369.25 24.5934 369.906C25.1976 370.568 25.9424 371.219 26.4111 371.891C26.2601 371.76 25.8226 371.505 25.3747 371.115C24.9268 370.729 24.4684 370.198 24.0205 369.807C23.1195 368.885 22.5101 368.224 22.9684 368.755C23.5726 369.417 24.0518 370.224 24.6507 370.745C25.2549 371.406 25.8538 371.927 26.5882 372.438C27.1872 372.958 27.9216 373.469 28.5101 373.849C29.1091 374.37 29.833 374.74 30.4216 375.12L29.4163 374.771L31.0466 376.063L32.6716 377.214L33.557 377.854L34.432 378.354L36.1976 379.5C38.5361 380.88 40.7288 382.135 43.057 383.38C43.833 384.448 47.1715 386.047 50.0726 387.391C52.9736 388.734 55.5726 389.823 55.0153 389.859C59.9476 392.188 51.0674 387.604 57.2861 390.266C58.7705 391.427 63.057 392.536 62.5257 392.995L61.8122 392.76L66.1455 394.573L63.1507 393.932C66.9007 395.359 69.8903 396 70.2913 395.693C73.6507 397.568 78.6924 399.469 80.0361 400.635L78.7393 400.167C83.6507 402.214 87.3174 404.49 90.6924 406.646C94.0674 408.802 97.0153 410.844 100.515 412.708C100.963 413.099 100.833 413.25 99.7966 412.479C100.541 413.13 101.422 413.63 102.166 414.281L103.349 415.182L104.547 416.224L103.099 415.62C105.896 417.531 108.573 419.734 111.25 421.938L110.984 422.099C113.401 424.599 116.573 427.891 119.765 431.458C123.099 435.021 126.588 438.854 129.781 442.422L128.734 441.51C132.354 445.193 134.166 447.036 135.547 448.766C136.302 449.557 136.922 450.354 137.823 451.276C138.271 451.667 138.729 452.198 139.328 452.719C139.922 453.24 140.521 453.76 141.265 454.406C140.979 454.286 140.828 454.156 140.531 453.896C142.182 455.469 143.984 457.172 145.776 458.729L144.317 457.99C146.531 459.521 149.375 462.135 151.463 463.953C153.557 465.776 154.901 466.948 153.698 465.766C154.422 466.141 155.161 466.651 156.026 467.01C156.896 467.375 157.771 467.875 158.635 468.234C160.369 468.958 161.817 469.563 162.385 469.661C164.265 470.516 165.291 471.151 165.869 471.391C166.448 471.63 166.599 471.76 166.609 471.901C166.619 472.042 166.619 472.042 166.765 472.172C166.916 472.302 167.505 472.682 168.661 473.167C169.38 473.396 169.958 473.635 170.536 473.88C171.114 474.12 171.682 474.219 172.25 474.323C172.817 474.422 173.244 474.536 173.823 474.776C174.255 474.885 174.823 474.99 175.25 475.099C175.817 475.203 176.244 475.313 176.817 475.411C177.385 475.516 177.953 475.615 178.661 475.708C179.369 475.802 180.088 476.031 180.797 476.125C181.64 476.203 182.5 476.427 183.494 476.641L183.234 476.938C184.224 477.01 185.073 477.094 185.781 477.188C186.63 477.266 187.328 477.219 188.177 477.302C189.859 477.328 191.687 477.344 194.213 477.313L192.677 477.417C196.864 477.13 199.26 477.245 201.646 477.224C202.765 477.146 203.89 477.208 205.14 476.984C206.385 476.76 207.635 476.531 209.14 476.01C212.505 475.917 218.604 474.802 218.375 475.516C223.088 474.635 227.239 473.786 231.401 473.083C235.567 472.375 239.588 471.682 244.052 471.234C244.786 471.745 245.338 471.568 246.312 471.5C246.875 471.464 247.422 471.286 248.26 471.229C249.099 471.172 250.078 471.104 251.494 471.286L251.036 470.76C254.26 470.677 257.494 470.74 260.744 471.078C261.593 471.156 262.442 471.24 263.151 471.333C263.994 471.417 264.703 471.505 265.562 471.729C266.411 471.813 267.125 472.042 267.984 472.266C268.843 472.49 269.552 472.578 270.406 472.802C276.838 474.469 283.484 477.24 290.114 479.734L290.302 480.422L293.146 480.927C300.369 483.943 308.64 487.87 317.14 491.078C321.323 492.755 325.63 494.146 329.781 495.266C333.927 496.385 337.906 497.094 341.448 497.552C342.573 497.615 343.979 497.661 345.385 497.703C346.786 497.609 348.333 497.646 350.01 497.531C351.682 497.417 353.359 497.302 355.177 497.177C356.015 497.12 356.984 496.911 357.823 496.854C358.802 496.786 359.63 496.589 360.609 496.526L359.781 496.719C361.448 496.464 362.963 496.083 364.479 495.698C366 495.313 367.656 494.917 369.166 494.396C372.333 493.474 375.338 492.286 378.343 491.099C384.349 488.583 390.047 485.667 395.734 482.615C395.213 483.208 396.302 482.714 395.093 483.5C397.484 481.51 401.567 479.688 404.005 478.401L401 479.589C403.791 477.292 408.557 475.141 410.203 474.609L414.755 471.349C415.026 471.193 415.573 471.01 415.713 471.005L416.364 470.255L419.26 469.495C419.802 469.177 421.692 468.068 423.567 466.818C424.51 466.193 425.458 465.703 426.26 465.089C427.067 464.615 427.729 464.005 428.271 463.688C428.828 463.651 433.343 461.938 429.948 463.573C432.802 462.255 435.817 461.208 438.718 460.448C441.604 459.547 444.646 458.922 447.713 458.568C446.734 458.635 445.755 458.703 444.776 458.771C444.479 458.51 445.849 457.995 447.505 457.604C449.161 457.208 451.39 456.917 452.927 456.807C449.052 457.635 452.703 457.667 454.401 457.833C455.646 457.604 455.078 457.505 454.369 457.411C453.661 457.323 452.823 457.38 453.364 457.063C454.192 456.865 455.161 456.656 456.416 456.573C457.526 456.354 458.786 456.271 460.041 456.182C462.416 456.021 464.661 456.005 465.651 456.078L463.562 456.365C468.177 456.047 470.349 457.021 474.979 456.984C479.161 456.557 482.281 457.047 481.364 455.99C487.531 455.844 483.661 456.672 485.776 456.807C487.161 456.573 490.104 456.51 492.781 456.609C495.453 456.708 497.989 456.818 498.567 457.057C500.333 456.234 504.547 456.224 508.734 455.938C512.786 455.661 516.823 455.104 517.333 454.37C518.312 454.302 519.151 454.245 520.114 454.036C521.093 453.974 521.922 453.776 522.901 453.708C522.89 453.568 523.14 453.13 523.953 452.656C524.354 452.344 524.901 452.167 525.583 451.839C526.26 451.516 527.078 451.177 528.172 450.682C532.297 449.417 531.646 450.161 532.89 449.938L534.974 447.552C537.833 446.229 540.531 444.646 543.208 442.776C545.89 440.911 548.552 438.76 551.062 436.484C556.083 431.932 560.489 426.578 564.619 421.245C568.734 415.771 572.437 410.323 576.146 405.021C579.849 399.714 583.437 394.698 587.073 390.38C588.614 388.307 590.161 386.24 591.984 384.151C592.375 383.703 592.896 383.104 593.286 382.656C593.812 382.198 594.192 381.609 594.724 381.156C595.244 380.557 595.635 380.109 596.166 379.651C596.698 379.193 597.218 378.599 597.75 378.141C601.968 374.203 606.911 370.5 612.161 367.193L611.099 368.104C614.468 366.052 617.979 363.99 621.625 361.911C618.916 363.359 616.338 364.661 613.771 366.099C615.911 364.547 617.651 363.307 619.797 361.896C625.744 358.542 632.791 354.833 640.198 350.26C643.828 347.906 647.729 345.391 651.328 342.62C654.922 339.708 658.489 336.516 661.614 332.938C662.135 332.339 662.515 331.75 662.896 331.161C663.281 330.578 663.672 330.13 663.922 329.693C664.562 328.802 665.073 328.068 665.593 327.469C666.494 326.286 667.276 325.391 667.927 324.646C668.317 324.198 668.578 323.901 668.968 323.453C669.359 323.005 669.75 322.557 670.119 321.828C670.489 321.104 671.005 320.365 671.354 319.359C671.604 318.922 671.849 318.344 672.088 317.766C672.208 317.474 672.328 317.188 672.442 316.76C672.562 316.469 672.672 316.042 672.791 315.75C672.578 316.75 672.609 317.167 672.255 318.172C672.369 317.745 672.63 317.448 672.739 317.021C672.849 316.589 672.968 316.302 673.083 315.875C673.312 315.156 673.547 314.438 673.776 313.719C674.01 313 674.239 312.286 674.333 311.578C674.453 311.286 674.562 310.859 674.547 310.578C674.666 310.292 674.635 309.87 674.755 309.583C674.849 308.875 675.088 308.297 675.182 307.589C675.286 307.021 675.375 306.313 675.479 305.745C675.672 304.469 675.875 303.333 675.927 302.068C676.432 297.12 676.385 292.349 675.828 286.214C676.135 286.615 676.385 286.177 676.349 285.62C676.437 284.911 676.234 283.943 676.166 282.964C675.89 281.016 675.609 278.932 675.927 279.474L675.302 278.531C675.343 277.125 675.203 275.031 675.078 273.214C674.953 271.401 674.869 270.141 675.177 270.542C674.64 268.896 674.109 267.245 673.573 265.599L674.093 265C673.588 261.667 672.385 256.417 671.51 251.849C670.625 247.135 669.911 242.833 670.218 241.13C669.25 237.266 668.385 232.833 667.781 228.104C667.567 226.995 667.479 225.74 667.396 224.484C667.307 223.224 667.229 222.109 667.146 220.849C666.974 218.339 667.078 215.802 667.036 213.141C667.291 202.458 668.474 191.01 668.864 180.318C668.526 177.391 668.515 171.078 668.172 166.052C668.323 164.214 668.338 162.391 668.354 160.562C668.13 159.318 667.896 157.927 667.672 156.682C667.484 155.995 667.302 155.443 667.255 154.745C667.067 154.057 666.89 153.505 666.703 152.818C666.515 152.13 666.338 151.578 666.151 150.891C665.963 150.203 665.786 149.656 665.599 148.964C665.234 147.729 664.864 146.49 664.64 145.24C664.781 145.229 664.791 145.37 664.958 145.781C664.593 144.542 664.078 143.177 663.573 141.948C663.385 141.255 663.067 140.719 662.88 140.031C662.552 139.349 662.375 138.802 662.047 138.12C661.401 136.901 660.896 135.672 660.265 134.594C659.948 134.057 659.63 133.516 659.172 132.984C658.854 132.448 658.396 131.917 657.937 131.385C657.146 130.036 656.218 128.839 655.437 127.625C654.979 127.099 654.661 126.557 654.203 126.026C653.885 125.49 653.578 125.089 653.13 124.698C651.896 123.099 651.411 122.151 652.286 122.651C651.739 122.828 649.468 120.458 647.213 118.224C646.015 117.187 644.963 116.135 644.067 115.354C643.619 114.964 643.323 114.703 643.021 114.443C642.724 114.182 642.573 114.052 642.573 114.052C642.573 114.052 642.286 113.932 641.838 113.542C641.39 113.151 640.651 112.641 639.776 112.141C637.864 110.865 635.224 109.224 631.578 107.224C628.073 105.219 623.718 103.135 618.646 100.812C613.713 98.4844 608.083 96.2031 602.005 93.5312C596.067 90.849 589.698 88.0573 583.416 84.4167C582.677 83.9062 581.812 83.5469 581.073 83.0365C580.338 82.526 579.599 82.0104 578.734 81.651C577.994 81.1406 577.26 80.6302 576.521 80.1198C575.786 79.6094 575.047 79.0937 574.312 78.5833C571.494 76.3906 568.661 73.9219 565.791 71.026C560.073 65.3854 554.286 58.7656 548.052 51.7552C544.869 48.3229 541.677 44.75 538.203 41.1979C534.734 37.6458 530.994 34.2552 526.843 31.0312C518.541 24.5833 508.609 18.9479 497.359 16.6302C494.646 15.9687 491.823 15.7448 489.14 15.5052C487.734 15.4635 486.458 15.2708 485.052 15.224C484.354 15.2708 483.646 15.1823 483.088 15.2187L481.119 15.2135C475.791 15.2969 470.619 15.651 465.75 16.2656C455.869 17.5 446.432 19.1302 437.541 20.4375C428.635 21.6094 420.125 22.3333 412.359 21.7396C411.375 21.6667 410.385 21.5937 409.536 21.5104C409.109 21.401 408.552 21.4375 408.119 21.3281C407.692 21.2187 407.125 21.1146 406.703 21.1458C404.859 20.849 403.005 20.4167 401.151 19.9792C397.442 19.1094 393.713 17.9635 390.114 16.6667C382.927 14.2083 375.994 11.3177 369.515 8.95312C366.203 7.77604 363.036 6.58854 360.015 5.53125C356.854 4.48437 353.984 3.55729 350.994 2.92187C345.281 1.48958 340.026 0.583329 335.505 0.192703C334.948 0.229162 333.968 0.29687 333.119 0.213537C332.14 0.281246 331.156 0.208329 330.458 0.255203C328.781 0.369787 327.812 0.578121 328.958 0.92187C327.692 0.864579 326.562 0.802078 325.713 0.718745C324.729 0.645829 324.021 0.557287 323.312 0.463537C321.906 0.42187 321.057 0.338536 320.656 0.645828C324.166 0.687495 323.63 1.0052 323.099 1.46354C322.828 1.61979 322.567 1.91666 322.718 2.04687C322.869 2.17708 323.583 2.41145 325.281 2.57291C323.875 2.53124 322.484 2.76562 321.088 2.85937C320.677 3.03125 322.078 2.93229 323.474 2.83854C324.869 2.74479 326.276 2.78645 325.739 3.10416C326.14 2.79687 326.536 2.48958 326.927 2.04166C328.625 2.20833 329.901 2.40104 331.036 2.60416C332.036 2.81249 332.755 3.04687 333.333 3.28645C334.172 3.22916 334.869 3.18229 335.708 3.125C336.547 3.0677 337.244 3.02083 338.229 3.09375C339.218 3.16666 340.208 3.23958 341.625 3.42187C342.906 3.7552 344.474 4.0677 346.208 4.79166C345.5 4.70312 344.922 4.45833 344.203 4.22916C347.203 5.0052 348.083 5.5052 348.38 5.76562C348.677 6.02604 348.271 6.19791 348.849 6.4375L347.552 5.96354L350.005 6.91666L352.323 8.02083C350.588 7.30208 348.021 6.63541 346.312 6.32812C344.609 6.02604 343.911 6.07291 345.474 6.38541C347.198 6.96875 347.916 7.20312 348.208 7.32291C348.494 7.4427 348.208 7.32291 347.906 7.0625C347.317 6.68229 346.453 6.3177 349.036 7.125C352.333 8.16145 351.224 8.3802 350.958 8.53645C351.963 8.89062 352.823 9.10937 353.828 9.46354C354.833 9.8177 355.703 10.1771 356.708 10.5312C356.307 10.8385 352.958 9.10416 355.151 10.3542C357.583 11.0312 360.026 11.849 362.468 12.6615C363.281 14.2917 370.364 15.2083 373.062 17.6927C367.875 15.8021 373.375 18.2292 372.401 18.2969C376.448 19.9844 380.63 21.6667 384.817 23.3437C385.984 23.9635 381.385 22.4531 383.25 23.0312C385.442 24.2812 387.271 24.2969 388.562 24.7708C388.854 24.8906 389.578 25.2604 390.448 25.625C391.312 25.9844 392.463 26.3281 393.614 26.8125C394.765 27.151 395.771 27.5052 396.5 27.875C397.224 28.25 397.661 28.5 397.531 28.6458C401.849 30.1771 402.958 29.9583 403.807 30.0417C404.224 30.0156 404.64 29.9844 405.489 30.0677C405.911 30.0417 406.479 30.1406 407.057 30.3802C407.765 30.474 408.614 30.5573 409.609 30.7708C410.198 31.151 408.489 30.8437 407.078 30.6615C405.661 30.4792 404.661 30.2656 406.526 30.8385C409.5 31.1979 412.468 31.5573 415.422 31.6354C415.005 31.6615 414.593 31.8333 413.765 32.026C413.349 32.0573 412.927 32.0833 412.369 32.125C411.812 32.1615 411.104 32.0677 410.255 31.9896C416.208 32.8437 421.698 33.0312 426.614 33.1146C431.536 33.1979 436.156 33.0208 440.625 32.7187C445.099 32.4115 449.567 32.1042 454.021 31.5208C458.619 31.0677 463.343 30.3229 468.635 29.6771C471.599 29.8958 466.567 30.2396 464.51 30.9427C472.135 29.5781 477.474 29.6354 482.271 30.0104C482.838 30.1094 483.541 30.0625 484.109 30.1667C484.677 30.2656 485.244 30.3698 485.942 30.3177C487.078 30.5208 488.359 30.7135 489.494 30.9167C491.906 31.3125 494.468 31.8437 497.333 32.6302L497.724 32.1823C498.151 32.2917 498.729 32.5312 499.166 32.7812C499.604 33.0365 500.172 33.1354 500.614 33.3854C501.63 33.8802 502.635 34.2292 503.51 34.7292C503.948 34.9844 504.526 35.224 504.963 35.474C505.406 35.724 505.984 35.9635 506.422 36.2187L507.146 36.5885L507.875 36.9583C508.312 37.2083 508.901 37.5885 509.338 37.8437C513.151 40.2448 516.994 43.0729 520.729 46.3229C528.192 52.8281 535.333 60.7604 542.062 68.8646L540.651 66.7135C542.88 68.526 546.073 72.099 548.619 74.4479C548.781 74.7187 548.062 74.4844 548.073 74.625C547.942 74.776 548.411 75.4427 550.666 77.6771C549.89 76.6094 548.213 74.6146 548.937 74.9896C551.854 78.5781 555.807 83.0781 561.041 87.7708C561.781 88.2812 562.385 88.9427 563.135 89.5937C563.869 90.1042 564.614 90.7552 565.364 91.4062C566.109 92.0573 566.843 92.5677 567.734 93.2083C568.468 93.7187 569.354 94.3594 570.093 94.8698C573.328 97.0365 576.833 99.0417 580.479 101.036C587.625 104.901 595.286 108.167 602.661 111.307C610.036 114.453 617.13 117.615 623.255 120.99C631.692 125.323 639.349 130.552 644.317 137.51C644.937 138.307 645.562 139.25 646.047 140.198C646.354 140.599 646.531 141.146 646.849 141.687C647.166 142.224 647.338 142.635 647.656 143.177L648.317 144.672L648.984 146.172L649.317 146.99L649.656 147.807C649.833 148.359 650.01 148.906 650.187 149.458C650.901 151.656 651.474 153.859 651.906 156.078C652.349 158.432 652.64 160.656 652.802 163.031C653.593 172.521 653.021 182.661 652.312 192.818C651.958 197.891 651.614 203.109 651.406 208.313C651.203 213.521 651.135 218.719 651.5 224.026C651.385 222.349 651.458 221.365 651.557 220.792C651.661 220.224 651.791 220.078 651.948 220.344C652.265 220.885 652.531 222.693 652.552 225.078C652.224 228.469 652.432 231.542 652.635 234.474C652.974 237.396 653.448 240.172 654.057 242.938C655.13 248.339 656.619 253.708 657.187 259.984C658.406 265.516 659.479 270.911 660.114 276.063C660.432 278.708 660.744 281.214 660.916 283.724C661.088 286.24 661.109 288.625 661.135 291.01C661.015 293.401 660.901 295.797 660.635 298.057C660.573 299.188 660.229 300.333 660.166 301.458C659.963 302.594 659.76 303.734 659.406 304.74C658.849 306.88 658.156 309.036 657.453 311.047L656.859 312.63L656.255 314.078C656.005 314.516 655.76 315.094 655.51 315.531C655.26 315.969 655.021 316.547 654.771 316.984L654.062 316.891C653.291 317.927 652.771 318.526 652.255 319.26C652.005 319.698 651.744 320 651.494 320.438C651.244 320.875 650.854 321.323 650.333 321.917L650.323 321.781C647.963 324.188 645.198 326.901 642.411 329.198C639.619 331.495 636.948 333.5 635.057 334.609L635.244 335.302C633.364 336.552 632.817 336.729 632.276 337.047C631.739 337.365 631.187 337.542 629.317 338.932L629.297 338.656C627.828 339.734 626.369 340.958 624.896 342.042C624.859 341.484 622.021 343.083 618.791 345.125C615.562 347.172 611.791 349.536 610.026 350.359C607.474 352.073 603.718 354.578 599.567 357.526C595.557 360.469 591.156 363.854 587.312 367.208C586.906 367.375 585.974 368.141 584.781 369.203C583.593 370.266 582.14 371.63 580.703 373.13C577.687 376.286 574.583 380.146 572.26 383.115C567.89 389.026 563.338 396.354 558.364 403.708C555.812 407.391 553.255 411.073 550.541 414.49C547.828 417.901 545.104 421.177 542.208 424.042L542.927 424.271L542.135 425.026L541.349 425.781C540.817 426.24 540.297 426.839 539.765 427.297C539.755 427.156 539.213 427.474 539.604 427.026C539.198 427.193 538.797 427.5 538.396 427.807C538.265 427.958 537.994 428.115 537.729 428.276C537.458 428.432 537.328 428.583 537.057 428.745C536.656 429.052 536.125 429.51 535.724 429.818C535.328 430.125 534.797 430.583 534.396 430.891L533.734 431.495C533.463 431.656 533.198 431.813 533.067 431.964C532.666 432.271 532.125 432.589 531.724 432.896C530.786 433.521 529.974 434 529.146 434.198C531.224 433.771 531.588 432.906 533.593 431.505C535.083 430.703 535.234 430.833 534.583 431.578C533.932 432.323 532.323 433.417 530.286 434.396L530.276 434.26C529.875 434.568 529.474 434.875 529.073 435.182C528.677 435.49 528.276 435.797 527.875 436.109C527.583 435.984 526.744 436.042 526.057 436.229C525.64 436.26 525.229 436.427 524.942 436.307C524.661 436.328 524.38 436.344 524.234 436.214C521.224 437.401 518.338 438.302 515.442 439.063C512.547 439.823 509.63 440.302 506.578 440.792C500.599 441.62 494.161 441.922 486.427 441.75C487.25 441.411 484.442 441.464 481.771 441.365C479.093 441.266 476.573 441.302 478.218 440.766C468.557 441.146 479.823 441.641 475.38 442.365C472.708 442.266 469.781 442.604 469.333 442.214C470.583 441.99 467.041 441.531 469.286 441.516C467.041 441.531 464.948 441.672 462.703 441.688C462.13 441.583 463.531 441.49 464.218 441.302C460.864 441.531 457.651 441.75 454.578 441.964C453.041 442.068 451.505 442.172 449.974 442.417C448.448 442.661 446.911 442.766 445.385 443.01C442.323 443.359 439.416 443.979 436.38 444.75C433.343 445.521 430.328 446.568 427.468 447.885C427.067 448.193 428.307 447.828 429.536 447.323C430.776 446.958 432.005 446.453 431.614 446.901C428.755 448.219 426.567 449.068 424.927 449.745C423.291 450.417 422.062 450.922 420.833 451.427C418.375 452.438 416.047 453.297 411.198 456.297C411.718 455.698 412.39 455.234 413.052 454.625C409.958 456.661 408.922 457.854 403.625 460.464C402.354 460.411 407.635 457.521 410.041 455.813C408.286 456.776 405.187 458.672 402.896 460.094C400.604 461.51 399.276 462.583 400.786 462.063C396.755 464.719 395.099 465.115 392.781 466.115C392.791 466.255 396.729 464.302 394.588 465.854C391.739 467.307 388.218 469.234 384.562 471.167C380.906 473.104 377.099 474.906 373.682 476.266C373.672 476.125 373.104 476.021 373.64 475.703C372.432 476.49 371.474 476.833 370.656 477.172C369.833 477.51 369.146 477.698 368.307 477.755C367.468 477.813 366.64 478.005 365.672 478.214C365.114 478.25 364.562 478.432 363.875 478.62C363.521 479.625 362.692 479.823 361.724 480.026Z" fill="#F6D3CC"/>
</g>
</g>
</g>
</g>
<mask id="mask56_81_644" style="mask-type:luminance" maskUnits="userSpaceOnUse" x="20" y="318" width="3" height="8">
<path d="M20 318.667H22.6667V325.333H20V318.667Z" fill="white"/>
</mask>
<g mask="url(#mask56_81_644)">
<mask id="mask57_81_644" style="mask-type:luminance" maskUnits="userSpaceOnUse" x="-13" y="-23" width="703" height="544">
<path d="M21.8278 520.38L-12.1982 22.8646L655.812 -22.8229L689.838 474.693L21.8278 520.38Z" fill="white"/>
</mask>
<g mask="url(#mask57_81_644)">
<mask id="mask58_81_644" style="mask-type:luminance" maskUnits="userSpaceOnUse" x="-13" y="-23" width="703" height="544">
<path d="M21.8278 520.38L-12.1982 22.8646L655.812 -22.8229L689.838 474.693L21.8278 520.38Z" fill="white"/>
</mask>
<g mask="url(#mask58_81_644)">
<mask id="mask59_81_644" style="mask-type:luminance" maskUnits="userSpaceOnUse" x="-13" y="-23" width="703" height="544">
<path d="M21.8278 520.38L-12.1982 22.8646L655.812 -22.8229L689.838 474.693L21.8278 520.38Z" fill="white"/>
</mask>
<g mask="url(#mask59_81_644)">
<path d="M21.2806 319.474C21.2077 320.458 21.2858 321.578 21.2129 322.568C21.3535 322.557 21.4993 322.688 21.7389 324.073C21.4941 322.547 21.3848 321.01 21.2806 319.474Z" fill="#F6D3CC"/>
</g>
</g>
</g>
</g>
<mask id="mask60_81_644" style="mask-type:luminance" maskUnits="userSpaceOnUse" x="120" y="413" width="3" height="2">
<path d="M120 413.333H122.667V414.667H120V413.333Z" fill="white"/>
</mask>
<g mask="url(#mask60_81_644)">
<mask id="mask61_81_644" style="mask-type:luminance" maskUnits="userSpaceOnUse" x="-13" y="-23" width="703" height="544">
<path d="M21.8278 520.38L-12.1982 22.8646L655.812 -22.8229L689.838 474.693L21.8278 520.38Z" fill="white"/>
</mask>
<g mask="url(#mask61_81_644)">
<mask id="mask62_81_644" style="mask-type:luminance" maskUnits="userSpaceOnUse" x="-13" y="-23" width="703" height="544">
<path d="M21.8278 520.38L-12.1982 22.8646L655.812 -22.8229L689.838 474.693L21.8278 520.38Z" fill="white"/>
</mask>
<g mask="url(#mask62_81_644)">
<mask id="mask63_81_644" style="mask-type:luminance" maskUnits="userSpaceOnUse" x="-13" y="-23" width="703" height="544">
<path d="M21.8278 520.38L-12.1982 22.8646L655.812 -22.8229L689.838 474.693L21.8278 520.38Z" fill="white"/>
</mask>
<g mask="url(#mask63_81_644)">
<path d="M120.505 413.589C120.807 413.849 121.104 414.109 121.541 414.359C120.937 413.698 120.646 413.578 120.505 413.589Z" fill="#F6D3CC"/>
</g>
</g>
</g>
</g>
<mask id="mask64_81_644" style="mask-type:luminance" maskUnits="userSpaceOnUse" x="145" y="438" width="3" height="4">
<path d="M145.334 438.667H148.001V441.333H145.334V438.667Z" fill="white"/>
</mask>
<g mask="url(#mask64_81_644)">
<mask id="mask65_81_644" style="mask-type:luminance" maskUnits="userSpaceOnUse" x="-13" y="-23" width="703" height="544">
<path d="M21.8288 520.38L-12.1973 22.8646L655.813 -22.8229L689.839 474.693L21.8288 520.38Z" fill="white"/>
</mask>
<g mask="url(#mask65_81_644)">
<mask id="mask66_81_644" style="mask-type:luminance" maskUnits="userSpaceOnUse" x="-13" y="-23" width="703" height="544">
<path d="M21.8288 520.38L-12.1973 22.8646L655.813 -22.8229L689.839 474.693L21.8288 520.38Z" fill="white"/>
</mask>
<g mask="url(#mask66_81_644)">
<mask id="mask67_81_644" style="mask-type:luminance" maskUnits="userSpaceOnUse" x="-13" y="-23" width="703" height="544">
<path d="M21.8288 520.38L-12.1973 22.8646L655.813 -22.8229L689.839 474.693L21.8288 520.38Z" fill="white"/>
</mask>
<g mask="url(#mask67_81_644)">
<path d="M146.459 440.021C144.522 438.328 146.042 440.047 146.808 440.979C146.949 440.969 147.079 440.818 146.459 440.021Z" fill="#F6D3CC"/>
</g>
</g>
</g>
</g>
<mask id="mask68_81_644" style="mask-type:luminance" maskUnits="userSpaceOnUse" x="14" y="232" width="2" height="3">
<path d="M14.667 232H16.0003V234.667H14.667V232Z" fill="white"/>
</mask>
<g mask="url(#mask68_81_644)">
<mask id="mask69_81_644" style="mask-type:luminance" maskUnits="userSpaceOnUse" x="-13" y="-23" width="703" height="544">
<path d="M21.8288 520.38L-12.1973 22.8646L655.813 -22.8229L689.839 474.693L21.8288 520.38Z" fill="white"/>
</mask>
<g mask="url(#mask69_81_644)">
<mask id="mask70_81_644" style="mask-type:luminance" maskUnits="userSpaceOnUse" x="-13" y="-23" width="703" height="544">
<path d="M21.8288 520.38L-12.1973 22.8646L655.813 -22.8229L689.839 474.693L21.8288 520.38Z" fill="white"/>
</mask>
<g mask="url(#mask70_81_644)">
<mask id="mask71_81_644" style="mask-type:luminance" maskUnits="userSpaceOnUse" x="-13" y="-23" width="703" height="544">
<path d="M21.8288 520.38L-12.1973 22.8646L655.813 -22.8229L689.839 474.693L21.8288 520.38Z" fill="white"/>
</mask>
<g mask="url(#mask71_81_644)">
<path d="M14.9482 233.042C15.1305 233.589 15.2868 233.859 15.417 233.708C15.2399 233.161 15.0785 232.891 14.9482 233.042Z" fill="#F6D3CC"/>
</g>
</g>
</g>
</g>
<mask id="mask72_81_644" style="mask-type:luminance" maskUnits="userSpaceOnUse" x="20" y="290" width="2" height="5">
<path d="M20 290.667H21.3333V294.667H20V290.667Z" fill="white"/>
</mask>
<g mask="url(#mask72_81_644)">
<mask id="mask73_81_644" style="mask-type:luminance" maskUnits="userSpaceOnUse" x="-13" y="-23" width="703" height="544">
<path d="M21.8278 520.38L-12.1982 22.8646L655.812 -22.8229L689.838 474.693L21.8278 520.38Z" fill="white"/>
</mask>
<g mask="url(#mask73_81_644)">
<mask id="mask74_81_644" style="mask-type:luminance" maskUnits="userSpaceOnUse" x="-13" y="-23" width="703" height="544">
<path d="M21.8278 520.38L-12.1982 22.8646L655.812 -22.8229L689.838 474.693L21.8278 520.38Z" fill="white"/>
</mask>
<g mask="url(#mask74_81_644)">
<mask id="mask75_81_644" style="mask-type:luminance" maskUnits="userSpaceOnUse" x="-13" y="-23" width="703" height="544">
<path d="M21.8278 520.38L-12.1982 22.8646L655.812 -22.8229L689.838 474.693L21.8278 520.38Z" fill="white"/>
</mask>
<g mask="url(#mask75_81_644)">
<path d="M21.1771 291.271C21.0937 292.12 21.1614 293.099 21.2083 293.797C21.2552 292.391 21.2083 291.693 21.1771 291.271Z" fill="#F6D3CC"/>
</g>
</g>
</g>
</g>
<mask id="mask76_81_644" style="mask-type:luminance" maskUnits="userSpaceOnUse" x="33" y="158" width="3" height="2">
<path d="M33.334 158.667H36.0007V160H33.334V158.667Z" fill="white"/>
</mask>
<g mask="url(#mask76_81_644)">
<mask id="mask77_81_644" style="mask-type:luminance" maskUnits="userSpaceOnUse" x="-13" y="-23" width="703" height="544">
<path d="M21.8288 520.38L-12.1973 22.8646L655.813 -22.8229L689.839 474.693L21.8288 520.38Z" fill="white"/>
</mask>
<g mask="url(#mask77_81_644)">
<mask id="mask78_81_644" style="mask-type:luminance" maskUnits="userSpaceOnUse" x="-13" y="-23" width="703" height="544">
<path d="M21.8288 520.38L-12.1973 22.8646L655.813 -22.8229L689.839 474.693L21.8288 520.38Z" fill="white"/>
</mask>
<g mask="url(#mask78_81_644)">
<mask id="mask79_81_644" style="mask-type:luminance" maskUnits="userSpaceOnUse" x="-13" y="-23" width="703" height="544">
<path d="M21.8288 520.38L-12.1973 22.8646L655.813 -22.8229L689.839 474.693L21.8288 520.38Z" fill="white"/>
</mask>
<g mask="url(#mask79_81_644)">
<path d="M35.2712 158.677C35.1306 158.682 35.141 158.823 35.0004 158.833C34.0837 159.74 33.9535 159.891 34.0837 159.74C34.3598 159.719 34.8806 159.125 35.2712 158.677Z" fill="#F6D3CC"/>
</g>
</g>
</g>
</g>
<mask id="mask80_81_644" style="mask-type:luminance" maskUnits="userSpaceOnUse" x="77" y="130" width="3" height="4">
<path d="M77.334 130.667H80.0007V133.333H77.334V130.667Z" fill="white"/>
</mask>
<g mask="url(#mask80_81_644)">
<mask id="mask81_81_644" style="mask-type:luminance" maskUnits="userSpaceOnUse" x="-13" y="-23" width="703" height="544">
<path d="M21.8288 520.38L-12.1973 22.8646L655.813 -22.8229L689.839 474.693L21.8288 520.38Z" fill="white"/>
</mask>
<g mask="url(#mask81_81_644)">
<mask id="mask82_81_644" style="mask-type:luminance" maskUnits="userSpaceOnUse" x="-13" y="-23" width="703" height="544">
<path d="M21.8288 520.38L-12.1973 22.8646L655.813 -22.8229L689.839 474.693L21.8288 520.38Z" fill="white"/>
</mask>
<g mask="url(#mask82_81_644)">
<mask id="mask83_81_644" style="mask-type:luminance" maskUnits="userSpaceOnUse" x="-13" y="-23" width="703" height="544">
<path d="M21.8288 520.38L-12.1973 22.8646L655.813 -22.8229L689.839 474.693L21.8288 520.38Z" fill="white"/>
</mask>
<g mask="url(#mask83_81_644)">
<path d="M77.9955 132.74C78.6466 131.99 78.9018 131.552 78.7612 131.563C77.8185 132.188 77.2976 132.786 77.9955 132.74Z" fill="#F6D3CC"/>
</g>
</g>
</g>
</g>
</svg>
