<svg width="24" height="24" viewBox="0 0 24 24" fill="none" xmlns="http://www.w3.org/2000/svg">
<mask id="mask0_25_15314" style="mask-type:luminance" maskUnits="userSpaceOnUse" x="0" y="0" width="24" height="24">
<path d="M0 0H23.9948V23.9948H0V0Z" fill="white"/>
</mask>
<g mask="url(#mask0_25_15314)">
<path d="M7.06768 0.0832163C5.78122 0.145716 4.90622 0.348842 4.1406 0.650925C3.34893 0.958217 2.67705 1.37488 2.00518 2.04676C1.33851 2.71863 0.927055 3.39051 0.619763 4.18738C0.322889 4.95301 0.119764 5.83322 0.0624717 7.11447C0.010389 8.40092 -0.00523763 8.81238 -2.83002e-05 12.0884C0.0051797 15.3645 0.0208037 15.7759 0.083305 17.0624C0.145804 18.3436 0.348929 19.2186 0.651013 19.9895C0.958305 20.7811 1.36976 21.453 2.04164 22.1197C2.71351 22.7915 3.3906 23.203 4.18226 23.5103C4.9531 23.8072 5.8281 24.0103 7.11455 24.0624C8.40101 24.1197 8.80726 24.1353 12.0833 24.1249C15.3593 24.1197 15.7708 24.104 17.0573 24.0468C18.3437 23.9843 19.2187 23.7759 19.9843 23.479C20.776 23.1665 21.4479 22.7551 22.1198 22.0832C22.7864 21.4113 23.1979 20.7395 23.5052 19.9426C23.8021 19.177 24.0052 18.2968 24.0625 17.0155C24.1146 15.729 24.1302 15.3176 24.125 12.0415C24.1198 8.76551 24.1041 8.35926 24.0416 7.06759C23.9791 5.78634 23.776 4.91134 23.4739 4.14051C23.1666 3.34884 22.7552 2.67697 22.0833 2.0103C21.4114 1.33843 20.7343 0.926967 19.9427 0.619675C19.1718 0.3228 18.2968 0.124883 17.0104 0.0675913C15.7239 0.0103007 15.3125 -0.000117995 12.0416 0.00509134C8.7656 0.0102993 8.35414 0.0259243 7.06768 0.0832163ZM7.2083 21.8905C6.03122 21.8384 5.3906 21.6457 4.96872 21.479C4.40101 21.2603 3.99997 20.9999 3.5781 20.5832C3.15622 20.1613 2.8906 19.7603 2.67185 19.1978C2.50518 18.7707 2.30726 18.1353 2.25518 16.9582C2.19268 15.6874 2.17705 15.302 2.17185 12.0832C2.16664 8.86447 2.17705 8.48426 2.23435 7.20822C2.28643 6.03634 2.47914 5.39572 2.64581 4.96863C2.86456 4.40613 3.12497 4.00509 3.54685 3.58322C3.96872 3.15613 4.36976 2.89572 4.93226 2.67697C5.35414 2.5103 5.99476 2.31238 7.16664 2.25509C8.44268 2.1978 8.82289 2.18217 12.0416 2.17697C15.2656 2.17176 15.6458 2.18217 16.9166 2.23947C18.0937 2.29155 18.7291 2.48426 19.1562 2.65092C19.7187 2.86968 20.125 3.12488 20.5468 3.54676C20.9687 3.96863 21.2291 4.36967 21.4531 4.93217C21.6146 5.35926 21.8125 5.99467 21.8698 7.17176C21.9323 8.44259 21.9427 8.8228 21.9479 12.0468C21.9583 15.2655 21.9427 15.6457 21.8906 16.9165C21.8385 18.0936 21.6406 18.7343 21.4791 19.1613C21.2604 19.7238 21 20.1249 20.5781 20.5468C20.1562 20.9686 19.7552 21.2343 19.1927 21.453C18.7656 21.6197 18.1302 21.8176 16.9531 21.8697C15.6823 21.9322 15.3021 21.9478 12.0781 21.953C8.85935 21.9582 8.47914 21.9478 7.2083 21.8905ZM17.0416 5.61967C17.0416 6.41655 17.6927 7.06238 18.4896 7.06238C19.2916 7.05718 19.9375 6.41134 19.9375 5.60926C19.9323 4.81238 19.2864 4.16655 18.4843 4.16655C17.6875 4.16655 17.0364 4.81759 17.0416 5.61447M5.86976 12.078C5.87497 15.4999 8.65101 18.2655 12.0729 18.2551C15.4948 18.2499 18.2604 15.4738 18.2552 12.052C18.25 8.6353 15.4687 5.86447 12.0468 5.86967C8.63018 5.87488 5.85935 8.65613 5.86976 12.078ZM8.04164 12.0728C8.03643 9.85405 9.83331 8.04676 12.0521 8.04676C14.276 8.04155 16.0781 9.83843 16.0833 12.0572C16.0885 14.2759 14.2916 16.0832 12.0677 16.0832C9.84893 16.0884 8.04685 14.2915 8.04164 12.0728Z" fill="white"/>
</g>
</svg>
