<svg width="37" height="51" viewBox="0 0 37 51" fill="none" xmlns="http://www.w3.org/2000/svg">
<path d="M18.4844 0C8.27604 0 0 8.57812 0 19.1615C0 29.75 6.71354 30.5156 18.4844 50.8594C30.2188 30.5156 36.9688 29.7552 36.9688 19.1615C36.9688 8.57292 28.6927 0 18.4844 0ZM18.4844 26.4062C18.0208 26.3958 17.5573 26.3438 17.099 26.2448C16.6458 26.1458 16.2031 26 15.776 25.8125C15.3438 25.625 14.9427 25.401 14.5573 25.1354C14.1719 24.8646 13.8177 24.5677 13.4948 24.2292C13.1719 23.8906 12.8854 23.526 12.6302 23.1354C12.3802 22.7448 12.1667 22.3281 11.9948 21.8958C11.8229 21.4583 11.6979 21.0104 11.6146 20.5521C11.5312 20.0938 11.4948 19.6302 11.5 19.1615C11.4948 18.6979 11.5312 18.2344 11.6146 17.776C11.6979 17.3125 11.8281 16.8698 11.9948 16.4323C12.1667 16 12.3802 15.5885 12.6302 15.1927C12.8854 14.8021 13.1719 14.4375 13.5 14.099C13.8229 13.7656 14.1771 13.4635 14.5573 13.1979C14.9427 12.9323 15.349 12.7031 15.776 12.5156C16.2031 12.3333 16.6458 12.1875 17.099 12.0885C17.5573 11.9896 18.0208 11.9323 18.4844 11.9271C18.9531 11.9323 19.4115 11.9896 19.8698 12.0885C20.3281 12.1875 20.7656 12.3333 21.1979 12.5156C21.625 12.7031 22.0312 12.9323 22.4115 13.1979C22.7969 13.4635 23.151 13.7656 23.474 14.099C23.7969 14.4375 24.0885 14.8021 24.3385 15.1927C24.5885 15.5885 24.8021 16 24.974 16.4323C25.1458 16.8698 25.2708 17.3125 25.3542 17.776C25.4375 18.2344 25.4792 18.6979 25.4688 19.1615C25.4792 19.6302 25.4375 20.0938 25.3542 20.5521C25.276 21.0104 25.1458 21.4583 24.974 21.8958C24.8021 22.3281 24.5938 22.7448 24.3385 23.1354C24.0885 23.526 23.8021 23.8906 23.474 24.2292C23.151 24.5677 22.7969 24.8646 22.4115 25.1354C22.0312 25.401 21.625 25.625 21.1979 25.8125C20.7708 26 20.3281 26.1458 19.8698 26.2448C19.4167 26.3438 18.9531 26.3958 18.4844 26.4062Z" fill="white"/>
</svg>
