<svg width="323" height="1392" viewBox="0 0 323 1392" fill="none" xmlns="http://www.w3.org/2000/svg">
<path fill-rule="evenodd" clip-rule="evenodd" d="M322.522 1391.38C322.522 1391.38 322.022 1390.97 321.767 1390.77C207.871 1297.43 14.4079 1258.76 1.05372 1100.4C-20.264 847.599 288.845 868.948 297.377 704.932C306.877 522.151 132.267 411.276 112.075 240.641C102.429 159.141 148.257 86.6146 214.804 44.6562C214.965 44.5625 215.304 44.3385 215.304 44.3385L215.59 0C215.59 0 213.361 1.41667 212.262 2.14062C147.246 44.349 102.845 115.964 112.371 196.307C132.554 366.938 307.179 477.807 297.663 660.589C289.132 824.609 -19.9775 803.255 1.34018 1056.06C14.6318 1213.71 206.434 1252.76 320.522 1345.16C321.283 1345.79 322.809 1347.04 322.809 1347.04L322.522 1391.38Z" fill="#C3C68A"/>
</svg>
