<svg width="546" height="39" viewBox="0 0 546 39" fill="none" xmlns="http://www.w3.org/2000/svg">
<mask id="mask0_15_613" style="mask-type:luminance" maskUnits="userSpaceOnUse" x="0" y="0" width="277" height="39">
<path d="M0 0H276.87V38.9688H0V0Z" fill="white"/>
</mask>
<g mask="url(#mask0_15_613)">
<path d="M15.4427 16.0782C15.3854 14.9845 15.0208 14.0053 14.3438 13.146C13.6667 12.2918 12.8333 11.6407 11.8386 11.1928C10.8646 10.7241 9.83855 10.4637 8.76043 10.4116C7.6823 10.3595 6.63022 10.5157 5.61459 10.8855C5.13022 11.0835 4.67188 11.3387 4.25001 11.6512C4.03647 11.8074 3.83855 11.9793 3.65105 12.1668C3.55209 12.2553 3.45313 12.3387 3.36459 12.4324L3.10418 12.7345C2.40105 13.547 1.87501 14.4585 1.52605 15.4689C1.1823 16.4897 0.994801 17.5314 0.96876 18.6095C0.937509 19.6824 1.05209 20.7397 1.32293 21.7814C1.58855 22.8178 1.98439 23.8022 2.51043 24.7293L2.9323 25.4064L3.40626 26.0522C3.73439 26.4741 4.08855 26.8751 4.46355 27.2553C5.22397 28.021 6.04688 28.7032 6.94272 29.3022C7.84376 29.896 8.79168 30.4168 9.77605 30.8647C11.7708 31.7501 13.8438 32.3855 15.9948 32.7605C18.1511 33.146 20.3229 33.3387 22.5156 33.323C26.9167 33.3022 31.1719 32.5105 35.2813 30.948C37.3125 30.172 39.2604 29.2189 41.1198 28.0887C42.974 26.9532 44.7552 25.6616 46.5573 24.3543C48.3594 23.0522 50.1875 21.7397 52.1511 20.5782C54.1354 19.3699 56.25 18.4585 58.4896 17.8387C59.625 17.5366 60.7865 17.3335 61.9583 17.2397C63.1563 17.1355 64.3438 17.1772 65.5313 17.3751C66.7396 17.5678 67.9011 17.9272 69.0052 18.4585C69.2865 18.5991 69.5469 18.7397 69.8229 18.8855L70.224 19.1355L70.6146 19.422C71.1198 19.8022 71.5833 20.2293 72.0052 20.698C73.724 22.6407 74.625 24.9116 74.7136 27.5053C74.7656 28.8178 74.5208 30.0782 73.9844 31.2762C73.5573 32.2085 72.9636 33.0053 72.1927 33.6824C71.4271 34.3543 70.5521 34.8387 69.5729 35.1355C68.9271 35.3178 68.2656 35.4168 67.5886 35.4168C66.9323 35.4324 66.2813 35.3595 65.6406 35.2085C65.0156 35.0626 64.4063 34.8595 63.8229 34.5887C62.6719 34.0626 61.6406 33.3647 60.724 32.4897C60.2708 32.0574 59.8542 31.5939 59.4688 31.0991C59.0886 30.5939 58.75 30.0626 58.4531 29.5053C58.1615 28.9324 57.9219 28.3439 57.7292 27.7293C57.5521 27.1043 57.4323 26.4637 57.375 25.8126C57.2969 24.573 57.3802 23.3439 57.6302 22.1251C58.1823 19.7397 59.1979 17.5626 60.6719 15.6043C62.0781 13.7085 63.6979 12.0262 65.5417 10.547C67.349 9.1095 69.25 7.81262 71.2552 6.66158C75.2761 4.39596 79.5365 2.7345 84.0313 1.67721C88.4948 0.63033 93.0156 0.088663 97.599 0.0522057C102.151 0.010539 106.672 0.354289 111.161 1.08866C113.401 1.43762 115.62 1.89075 117.823 2.40116C120.031 2.91158 122.214 3.50012 124.375 4.16679C133.026 6.85429 141.245 10.4897 149.313 14.2762C157.385 18.0678 165.344 21.9741 173.469 25.323C177.521 27.021 181.625 28.521 185.786 29.8178C189.932 31.1564 194.115 32.1928 198.266 32.521C199.302 32.6095 200.328 32.6147 201.349 32.6043C202.365 32.573 203.375 32.4741 204.375 32.323C204.625 32.2918 204.87 32.2397 205.12 32.1928C205.365 32.146 205.609 32.1043 205.854 32.047C206.323 31.9168 206.807 31.823 207.271 31.6564C208.208 31.3595 209.12 30.9949 210.005 30.5574C211.766 29.6876 213.323 28.5366 214.672 27.1095C215.99 25.7293 216.938 24.1355 217.51 22.3178C217.568 22.0991 217.62 21.8751 217.677 21.6512L217.76 21.323L217.813 21.0366C217.932 20.2397 217.885 19.448 217.677 18.6668C217.583 18.3335 217.453 18.021 217.281 17.7241C217.146 17.5105 216.974 17.3335 216.766 17.1928C216.688 17.1407 216.599 17.0939 216.51 17.0574C216.464 17.0522 216.411 17.0366 216.37 17.0157C216.318 17.0157 216.281 17.0157 216.234 17.0157C216.057 17.0001 215.885 17.0262 215.719 17.1043C215.479 17.2293 215.271 17.396 215.089 17.5939C214.87 17.8543 214.693 18.1355 214.557 18.4428C214.417 18.7605 214.323 19.0887 214.276 19.4324C214.276 19.5157 214.276 19.5939 214.255 19.6772C214.24 19.7605 214.255 19.8335 214.255 19.9064V20.0262L214.281 20.1303C214.286 20.2085 214.302 20.2814 214.318 20.3595C214.411 20.7345 214.547 21.0991 214.729 21.448C215.156 22.2241 215.698 22.9116 216.359 23.5105C217.109 24.1876 217.906 24.8022 218.75 25.3543C222.328 27.7762 226.109 29.8178 230.094 31.4845C230.594 31.698 231.099 31.8803 231.604 32.0782C232.104 32.2762 232.604 32.4845 233.125 32.646C234.146 32.9949 235.167 33.3647 236.208 33.6616C238.266 34.3178 240.38 34.797 242.505 35.2605C246.781 36.0991 251.094 36.521 255.453 36.521L257.083 36.4897L257.901 36.4741L258.714 36.4324C259.797 36.3699 260.87 36.2762 261.932 36.1303C264.042 35.8647 266.063 35.297 268.005 34.4272C268.474 34.2085 268.932 33.9637 269.38 33.6928C269.604 33.5626 269.813 33.4116 270.026 33.2762L270.656 32.8126C271.469 32.1668 272.188 31.4272 272.813 30.5991C274.12 28.9168 274.786 27.0105 274.813 24.8803C274.818 23.8439 274.583 22.8647 274.109 21.9376C273.63 21.0001 272.979 20.198 272.161 19.5262C271.349 18.8439 270.422 18.3699 269.391 18.1095C268.339 17.8387 267.297 17.8803 266.271 18.2397L266.099 17.8178C267.198 17.3335 268.339 17.198 269.521 17.4168C270.698 17.6303 271.766 18.0887 272.724 18.7918C273.698 19.4949 274.49 20.3595 275.104 21.3907C275.245 21.6564 275.385 21.922 275.516 22.1928C275.641 22.4637 275.734 22.7605 275.828 23.0418C275.922 23.3282 275.99 23.6355 276.036 23.9324C276.089 24.2293 276.135 24.5262 276.151 24.823C276.234 26.0314 276.094 27.2137 275.74 28.3751C275.391 29.521 274.88 30.5887 274.208 31.5887C273.547 32.5835 272.766 33.4741 271.87 34.2657C271.641 34.4585 271.417 34.6512 271.182 34.8335C270.948 35.0157 270.703 35.1928 270.458 35.3595C269.974 35.6876 269.474 35.9949 268.953 36.2762C266.865 37.3491 264.656 38.0835 262.339 38.4793C261.203 38.6928 260.068 38.8439 258.932 38.9585L258.083 39.0366L257.234 39.0939L255.531 39.2085C250.974 39.396 246.448 39.1303 241.948 38.4064C237.432 37.6668 233.036 36.4845 228.76 34.8595C224.474 33.2189 220.396 31.1668 216.516 28.7032C215.484 28.0522 214.516 27.3178 213.604 26.5053C212.589 25.6095 211.75 24.5678 211.083 23.3855C210.74 22.7501 210.469 22.0782 210.281 21.3803C210.083 20.5939 210.021 19.8022 210.094 19.0001C210.245 17.4116 210.833 16.0105 211.854 14.7866C212.406 14.1407 213.063 13.6147 213.823 13.2241C214.677 12.797 215.583 12.6147 216.536 12.672C216.766 12.6928 217.005 12.7085 217.229 12.7553C217.453 12.8022 217.672 12.8647 217.891 12.9272C218.328 13.073 218.74 13.2657 219.13 13.5105C219.87 13.9897 220.479 14.5939 220.964 15.3282C221.766 16.6147 222.219 18.0157 222.313 19.5262C222.365 20.2345 222.349 20.9428 222.26 21.646C222.234 21.8282 222.208 22.0053 222.182 22.1772L222.073 22.6564C222 22.9741 221.932 23.297 221.849 23.6095C221.661 24.2345 221.443 24.8439 221.182 25.4428C221.047 25.7241 220.932 26.0418 220.781 26.3282L220.318 27.1772C219.672 28.2866 218.917 29.3126 218.047 30.2501C216.333 32.1043 214.354 33.6043 212.109 34.7501C211 35.323 209.859 35.797 208.672 36.172C208.089 36.3751 207.479 36.5053 206.875 36.6616C206.578 36.7345 206.276 36.7866 205.979 36.8491C205.682 36.9116 205.38 36.9637 205.083 37.0053C203.885 37.1876 202.682 37.297 201.469 37.3387C200.271 37.3543 199.078 37.3387 197.896 37.2501C197.302 37.2137 196.719 37.1355 196.13 37.0782C195.547 37.021 194.969 36.9272 194.391 36.823C193.234 36.6407 192.099 36.4012 190.969 36.146C188.724 35.6147 186.526 34.9897 184.38 34.2762C180.063 32.8855 175.844 31.2657 171.719 29.4741C167.594 27.6876 163.547 25.7866 159.521 23.8178L147.578 17.922C143.609 15.9897 139.615 14.0835 135.568 12.3491C134.563 11.896 133.542 11.4949 132.531 11.0678C132.021 10.8595 131.516 10.6407 131.005 10.4428L129.469 9.84908C127.427 9.04179 125.375 8.31783 123.292 7.65116C114.979 5.01575 106.302 3.39596 97.6198 3.39596C93.2813 3.37512 88.9896 3.83866 84.75 4.77616C80.5313 5.72408 76.5208 7.2345 72.724 9.31262C70.8542 10.3491 69.0677 11.5157 67.3698 12.8178C65.7083 14.1147 64.2344 15.5991 62.9479 17.271C61.6823 18.8907 60.8021 20.698 60.3021 22.6928C60.0938 23.6616 60.0156 24.6355 60.0573 25.6199C60.0938 26.0835 60.1719 26.5366 60.2917 26.9793C60.4271 27.4324 60.599 27.8699 60.8073 28.2918C61.724 30.073 63.0833 31.396 64.8906 32.2657C66.6146 33.0835 68.5886 33.1772 70.0625 32.2032C70.8333 31.7189 71.4115 31.0626 71.7969 30.2397C72.1979 29.3855 72.3854 28.4845 72.3646 27.5366C72.3177 25.5053 71.6354 23.7189 70.3125 22.1772C70 21.8178 69.6511 21.4949 69.2656 21.2032L68.9844 20.9897L68.6979 20.797C68.4896 20.6772 68.2656 20.5626 68.0469 20.4376C67.1458 19.9949 66.2031 19.6824 65.2136 19.5053C64.1823 19.3178 63.1458 19.2605 62.099 19.3439C61.0521 19.4116 60.0208 19.573 59 19.823C54.875 20.8282 51.2344 23.3126 47.6094 25.8647C45.7917 27.1355 43.9531 28.4168 41.9948 29.5835C40.0261 30.7345 37.974 31.698 35.8333 32.4793C31.5261 34.0366 27.0781 34.7918 22.5 34.7449C20.2292 34.7241 17.9792 34.4897 15.7552 34.047C13.5104 33.6147 11.3542 32.9168 9.28647 31.9532C8.25001 31.4689 7.25522 30.9012 6.31251 30.2553C5.36459 29.5939 4.4948 28.8491 3.69793 28.0157C3.30209 27.6043 2.92709 27.1668 2.58334 26.7032L2.07293 25.9897L1.62501 25.2397C1.06772 24.2189 0.651052 23.1407 0.385427 22.0053C0.119801 20.8803 0.0104267 19.7345 0.0729267 18.5782C0.119801 17.4116 0.34376 16.2814 0.734385 15.1876C1.14063 14.0835 1.73439 13.0939 2.52084 12.2241L2.8073 11.9012C2.91147 11.797 3.02084 11.7032 3.13022 11.6147C3.34376 11.4116 3.56772 11.2241 3.8073 11.047C4.28647 10.7085 4.80209 10.4324 5.35418 10.2241C6.46355 9.83866 7.59897 9.68762 8.76564 9.76575C9.9323 9.83866 11.0417 10.1407 12.0886 10.6668C13.1458 11.1772 14.0313 11.896 14.75 12.8282C15.4688 13.7866 15.8438 14.8647 15.8802 16.0574L15.4427 16.0782Z" fill="#92993D"/>
</g>
<mask id="mask1_15_613" style="mask-type:luminance" maskUnits="userSpaceOnUse" x="268" y="0" width="278" height="39">
<path d="M268.87 0H545.604V38.9688H268.87V0Z" fill="white"/>
</mask>
<g mask="url(#mask1_15_613)">
<path d="M530.135 16.0628C530.172 14.8649 530.552 13.792 531.266 12.8337C531.984 11.9014 532.87 11.1774 533.932 10.6722C534.979 10.1462 536.083 9.84409 537.25 9.76597C538.417 9.68784 539.557 9.84409 540.662 10.2243C541.214 10.4326 541.729 10.7087 542.208 11.0524C542.448 11.2243 542.672 11.4118 542.885 11.6201C542.995 11.7139 543.109 11.8076 543.214 11.9014L543.495 12.2243C544.281 13.0993 544.875 14.0889 545.281 15.1878C545.677 16.2868 545.896 17.417 545.948 18.5785C546.005 19.7399 545.896 20.8806 545.63 22.0108C545.365 23.1462 544.953 24.2191 544.391 25.2399L543.943 25.9899L543.443 26.6931C543.089 27.1566 542.714 27.5941 542.307 28.0056C541.51 28.8389 540.641 29.5837 539.693 30.2399C538.75 30.891 537.76 31.4587 536.724 31.9431C534.656 32.9066 532.495 33.6045 530.255 34.0368C528.026 34.4795 525.781 34.7087 523.51 34.7347C518.927 34.7816 514.484 34.0264 510.177 32.4639C508.037 31.6878 505.984 30.7243 504.016 29.5733C502.078 28.417 500.24 27.1306 498.427 25.8649C494.802 23.3128 491.162 20.8389 487.031 19.8285C486.016 19.5733 484.979 19.4118 483.932 19.3441C482.901 19.266 481.88 19.3233 480.865 19.5056C479.875 19.6826 478.927 19.9951 478.026 20.4378C477.807 20.5628 477.583 20.6774 477.37 20.7972L477.089 20.9899L476.802 21.2035C476.427 21.5003 476.078 21.8285 475.766 22.1931C474.443 23.7347 473.76 25.5212 473.714 27.5524C473.693 28.4951 473.88 29.4014 474.281 30.2556C474.667 31.0785 475.245 31.7295 476.01 32.2191C477.484 33.1931 479.464 33.0993 481.188 32.2764C482.995 31.4118 484.354 30.0889 485.271 28.3076C485.479 27.8858 485.651 27.4483 485.787 26.9951C485.906 26.5472 485.984 26.0941 486.016 25.6358C486.063 24.6514 485.984 23.6722 485.771 22.7087C485.276 20.7139 484.391 18.9066 483.13 17.2868C481.833 15.6045 480.344 14.1149 478.662 12.8181C476.964 11.5055 475.182 10.3285 473.307 9.28159C469.51 7.20347 465.505 5.69305 461.281 4.74513C457.042 3.80763 452.75 3.34409 448.412 3.36493C439.729 3.36493 431.052 4.98472 422.74 7.62013C420.661 8.2868 418.604 9.01076 416.563 9.81805L415.036 10.4274C414.526 10.6305 414.021 10.8441 413.51 11.0576C412.5 11.4795 411.479 11.8806 410.469 12.3337C406.427 14.0681 402.443 15.9743 398.458 17.9118L386.5 23.8024C382.49 25.7556 378.443 27.6722 374.307 29.4587C370.167 31.2451 365.958 32.8649 361.646 34.2608C359.5 34.9743 357.302 35.5941 355.052 36.1306C353.917 36.3858 352.781 36.6253 351.646 36.8076C351.078 36.9118 350.49 36.9795 349.906 37.0628C349.323 37.141 348.734 37.1931 348.141 37.2295C346.964 37.3285 345.766 37.3389 344.563 37.3181C343.354 37.2816 342.151 37.1722 340.958 36.9899C340.656 36.9483 340.354 36.891 340.057 36.8337C339.76 36.7712 339.458 36.7191 339.156 36.6462C338.563 36.4899 337.948 36.3649 337.365 36.1514C336.177 35.7764 335.036 35.3024 333.932 34.7347C331.677 33.5889 329.693 32.0889 327.974 30.2347C327.104 29.292 326.349 28.2712 325.703 27.1618L325.24 26.3128C325.089 26.0264 324.958 25.7191 324.839 25.4274C324.583 24.8285 324.365 24.2191 324.182 23.5941C324.099 23.2816 324.031 22.9587 323.958 22.641L323.849 22.1618C323.818 21.9951 323.797 21.8128 323.771 21.6358C323.682 20.9274 323.667 20.2243 323.719 19.516C323.813 18.0003 324.266 16.6045 325.068 15.3181C325.547 14.5785 326.161 13.9743 326.901 13.5003C327.292 13.2503 327.703 13.0576 328.141 12.9118C328.359 12.8493 328.583 12.792 328.802 12.7399C329.031 12.7035 329.266 12.6722 329.5 12.6566C330.448 12.5993 331.354 12.7868 332.208 13.2087C332.969 13.6045 333.62 14.1253 334.177 14.7764C335.198 15.9951 335.786 17.3962 335.938 18.9847C336.01 19.7868 335.948 20.5837 335.75 21.3649C335.563 22.0681 335.292 22.7347 334.948 23.3701C334.281 24.5524 333.443 25.5941 332.432 26.4899C331.521 27.3076 330.547 28.0472 329.516 28.7035C325.641 31.167 321.563 33.2243 317.276 34.8753C313 36.5003 308.604 37.6826 304.094 38.4222C299.589 39.1358 295.063 39.391 290.51 39.1983L288.813 39.0837L287.958 39.0264L287.109 38.9483C285.974 38.8337 284.839 38.6826 283.703 38.4691C281.385 38.0681 279.182 37.3337 277.089 36.266C276.568 35.9847 276.063 35.6826 275.573 35.3493C275.323 35.1826 275.083 35.0003 274.844 34.8285C274.604 34.6514 274.38 34.4431 274.156 34.2608C273.26 33.4639 272.479 32.5733 271.813 31.5785C271.146 30.5837 270.635 29.5108 270.286 28.3649C269.927 27.2087 269.792 26.0212 269.875 24.8128C269.875 24.5316 269.953 24.2191 269.99 23.9222C270.026 23.6253 270.125 23.3285 270.198 23.0368C270.271 22.7399 270.406 22.4691 270.51 22.1826C270.62 21.9014 270.797 21.6462 270.922 21.3858C271.536 20.3545 272.328 19.4847 273.297 18.7816C274.26 18.0785 275.328 17.6201 276.5 17.4066C277.682 17.1878 278.828 17.3181 279.932 17.7972L279.76 18.2191C278.734 17.8649 277.693 17.8181 276.641 18.0889C275.604 18.3493 274.682 18.8233 273.865 19.5108C273.047 20.1774 272.401 20.9847 271.922 21.9222C271.448 22.8493 271.214 23.8389 271.224 24.8806C271.25 27.0108 271.917 28.917 273.229 30.5993C273.849 31.4274 274.568 32.167 275.38 32.8128L276 33.2764C276.219 33.4118 276.427 33.5576 276.646 33.6931C277.094 33.9587 277.552 34.2035 278.026 34.4222C279.964 35.2972 281.99 35.8649 284.099 36.1253C285.156 36.2764 286.234 36.3701 287.313 36.4326L288.125 36.4691L288.943 36.4847L290.573 36.5212C294.932 36.516 299.25 36.0993 303.526 35.2608C305.646 34.8024 307.76 34.3181 309.823 33.6566C310.865 33.3753 311.885 32.9951 312.906 32.6462C313.422 32.4795 313.922 32.266 314.422 32.0785C314.927 31.891 315.438 31.6931 315.932 31.4795C319.927 29.8181 323.714 27.7764 327.292 25.3545C328.13 24.792 328.917 24.167 329.656 23.4847C330.318 22.891 330.859 22.2035 331.286 21.4222C331.464 21.0733 331.604 20.7087 331.698 20.3337C331.724 20.2399 331.719 20.1826 331.734 20.1097L331.755 20.0003V19.8858C331.755 19.8076 331.755 19.7347 331.755 19.6514C331.755 19.5681 331.74 19.4899 331.734 19.4066C331.688 19.0628 331.594 18.7347 331.453 18.4222C331.318 18.1097 331.141 17.8285 330.917 17.5681C330.74 17.3701 330.531 17.2035 330.292 17.0785C330.125 17.0003 329.953 16.9743 329.771 16.9899C329.729 16.9899 329.688 16.9899 329.641 16.9899C329.594 17.0108 329.547 17.0264 329.5 17.0316C329.406 17.0681 329.323 17.1149 329.24 17.167C329.042 17.3128 328.88 17.4899 328.75 17.6983C328.578 18.0003 328.448 18.3128 328.349 18.6462C328.25 19.0264 328.188 19.417 328.167 19.8076C328.146 20.2243 328.172 20.6358 328.24 21.042L328.286 21.3285L328.375 21.6566C328.432 21.8806 328.479 22.1045 328.542 22.3233C329.115 24.141 330.063 25.7399 331.38 27.1149C332.729 28.542 334.286 29.6931 336.047 30.5628C336.927 31.0003 337.839 31.3649 338.776 31.6618C339.245 31.8285 339.724 31.9222 340.198 32.0524C340.438 32.1097 340.688 32.1462 340.932 32.1983C341.177 32.2503 341.422 32.2972 341.677 32.3285C342.677 32.4795 343.682 32.5785 344.698 32.6097C345.719 32.6097 346.75 32.6097 347.781 32.5264C351.922 32.1983 356.099 31.1618 360.26 29.8233C364.422 28.5316 368.526 27.0316 372.583 25.3285C380.708 21.9795 388.656 18.0628 396.734 14.2868C404.807 10.5056 413.021 6.85972 421.677 4.17743C423.833 3.50555 426.016 2.91701 428.224 2.40659C430.427 1.89617 432.646 1.44305 434.885 1.09409C439.375 0.359718 443.891 0.0159669 448.432 0.0524256C453.016 0.0888829 457.537 0.625342 462 1.66701C466.5 2.72951 470.76 4.38576 474.787 6.65138C476.787 7.80763 478.688 9.10451 480.49 10.5472C482.333 12.0212 483.953 13.7087 485.359 15.5993C486.839 17.5576 487.849 19.7347 488.401 22.1253C488.651 23.3441 488.734 24.5733 488.656 25.8128C488.599 26.4639 488.484 27.0993 488.302 27.7243C488.109 28.3389 487.87 28.9326 487.578 29.5003C487.281 30.0628 486.943 30.5941 486.563 31.0941C486.177 31.5941 485.76 32.0576 485.307 32.4899C484.391 33.3597 483.359 34.0628 482.208 34.5889C481.625 34.8545 481.021 35.0576 480.391 35.2035C479.75 35.3545 479.104 35.4274 478.443 35.417C477.771 35.4118 477.109 35.3181 476.458 35.1306C475.479 34.8337 474.604 34.3493 473.839 33.6774C473.068 33.0056 472.474 32.2035 472.047 31.2764C471.51 30.0733 471.266 28.8181 471.318 27.5003C471.406 24.9066 472.307 22.641 474.026 20.6931C474.448 20.2243 474.912 19.7972 475.417 19.417L475.807 19.1358L476.214 18.8806C476.495 18.7295 476.755 18.5993 477.026 18.4535C478.135 17.9222 479.292 17.5628 480.5 17.3701C481.688 17.1774 482.875 17.1305 484.073 17.2347C485.25 17.3337 486.406 17.5316 487.542 17.8337C489.787 18.4587 491.901 19.3753 493.891 20.5889C495.849 21.7451 497.682 23.0628 499.484 24.3649C501.281 25.667 503.063 26.9639 504.922 28.0993C506.781 29.2347 508.729 30.1931 510.76 30.9691C514.875 32.5316 519.13 33.3233 523.526 33.3493C525.714 33.3597 527.88 33.1722 530.031 32.7816C532.182 32.4066 534.255 31.7764 536.25 30.8858C537.234 30.4431 538.182 29.9222 539.083 29.3285C539.979 28.7295 540.807 28.042 541.563 27.2764C541.938 26.8962 542.292 26.4951 542.62 26.0733L543.099 25.4274L543.526 24.7295C544.057 23.8024 544.453 22.8181 544.714 21.7764C544.984 20.7347 545.099 19.6774 545.068 18.5993C545.042 17.5264 544.859 16.4847 544.521 15.4639C544.167 14.4535 543.641 13.542 542.938 12.7295L542.677 12.4274C542.583 12.3337 542.484 12.2503 542.396 12.1618C542.208 11.9743 542.005 11.8024 541.797 11.641C541.37 11.3285 540.917 11.0785 540.427 10.8806C539.412 10.5108 538.365 10.3545 537.281 10.4066C536.203 10.4587 535.177 10.7191 534.203 11.1878C533.214 11.6358 532.38 12.2868 531.703 13.141C531.026 14.0003 530.656 14.9795 530.599 16.0733L530.135 16.0628Z" fill="#92993D"/>
</g>
</svg>
