<svg width="358" height="542" viewBox="0 0 358 542" fill="none" xmlns="http://www.w3.org/2000/svg">
<mask id="mask0_41_3" style="mask-type:luminance" maskUnits="userSpaceOnUse" x="130" y="0" width="157" height="282">
<path d="M286.667 0H130.667V281.333H286.667V0Z" fill="white"/>
</mask>
<g mask="url(#mask0_41_3)">
<mask id="mask1_41_3" style="mask-type:luminance" maskUnits="userSpaceOnUse" x="131" y="57" width="79" height="109">
<path d="M131.094 57.3333H209.333V165.333H131.094V57.3333Z" fill="white"/>
</mask>
<g mask="url(#mask1_41_3)">
<path d="M198.804 58.7362C202.247 59.8507 204.763 62.0851 206.346 65.4445C207.929 68.7935 208.721 72.9341 208.721 77.8612C208.721 84.1945 207.513 91.4132 205.096 99.507C202.679 107.606 199.33 115.752 195.054 123.945C188.065 137.252 180.731 147.278 173.054 154.028C165.372 160.778 157.669 164.153 149.95 164.153C146.684 164.153 143.518 163.596 140.45 162.486C137.283 161.262 134.929 158.929 133.388 155.486C131.856 152.054 131.096 147.83 131.096 142.799C131.096 136.465 132.252 129.273 134.575 121.215C136.908 113.163 140.263 104.997 144.638 96.7153C151.523 83.6893 158.919 73.8716 166.825 67.257C174.742 60.6476 182.565 57.3403 190.304 57.3403C193.273 57.3403 196.106 57.8091 198.804 58.7362ZM185.554 117.799C189.83 109.148 193.268 100.793 195.867 92.7362C198.476 84.6841 199.783 77.9549 199.783 72.5487C199.783 69.5799 199.315 67.1216 198.388 65.1737C197.455 63.2153 195.919 62.0018 193.783 61.5278C193.408 61.4341 193.033 61.3612 192.658 61.3195C192.294 61.2778 191.877 61.257 191.408 61.257C187.783 61.257 183.851 62.981 179.617 66.4237C175.377 69.8716 171.075 74.7101 166.7 80.9445C162.325 87.1841 158.086 94.4862 153.992 102.861C149.809 111.418 146.461 119.653 143.95 127.57C141.434 135.486 140.179 142.142 140.179 147.528C140.179 150.611 140.617 153.153 141.492 155.153C142.377 157.153 143.846 158.517 145.888 159.257C147.013 159.632 148.268 159.82 149.658 159.82C153.669 159.82 157.679 157.997 161.679 154.361C165.679 150.736 169.679 145.767 173.679 139.445C177.679 133.111 181.638 125.898 185.554 117.799Z" fill="#7A7D35"/>
</g>
<mask id="mask2_41_3" style="mask-type:luminance" maskUnits="userSpaceOnUse" x="204" y="56" width="83" height="110">
<path d="M204 56H286.255V165.333H204V56Z" fill="white"/>
</mask>
<g mask="url(#mask2_41_3)">
<path d="M264.298 56.6321H265.548C270.199 56.6321 273.97 57.4758 276.86 59.1529C279.746 60.8352 281.886 63.0227 283.277 65.7154C284.678 68.4133 285.381 71.3404 285.381 74.5071C285.381 78.606 284.35 82.6112 282.298 86.5279C281.641 87.7362 280.803 88.6685 279.777 89.3196C278.761 89.9758 277.74 90.2987 276.714 90.2987C275.881 90.2987 275.136 90.1112 274.485 89.7362C273.079 88.9029 272.381 87.4602 272.381 85.4029C272.381 83.9185 272.803 82.4758 273.652 81.0696C275.037 78.9342 276.662 77.7258 278.527 77.4446C279.178 75.7675 279.506 73.856 279.506 71.7154C279.506 68.9237 278.595 66.4185 276.777 64.1946C274.97 61.9602 271.881 60.6946 267.506 60.4029H266.381C264.423 60.4029 262.069 60.9446 259.319 62.0279C256.579 63.1008 253.423 65.1685 249.839 68.2362C246.256 71.3092 242.225 75.9133 237.756 82.0487C235.714 84.8404 233.574 88.3144 231.339 92.4654C229.1 96.606 227.006 100.767 225.048 104.945C226.907 102.528 229.303 100.132 232.235 97.7571C235.178 95.3821 238.652 93.83 242.652 93.0904C244.511 92.8144 246.324 92.6737 248.089 92.6737C253.49 92.856 257.589 94.1842 260.381 96.6529C263.173 99.1112 265.121 101.736 266.235 104.528C267.454 107.517 268.069 111.101 268.069 115.278C268.069 119.278 267.433 123.585 266.173 128.195C264.923 132.809 263.037 137.393 260.527 141.945C255.954 149.955 250.6 155.757 244.464 159.34C238.324 162.924 232.037 164.715 225.61 164.715C222.72 164.715 219.975 164.2 217.381 163.174C212.532 161.215 209.037 157.351 206.902 151.59C206.246 149.908 205.782 148.122 205.506 146.215C205.225 144.299 205.089 142.32 205.089 140.278C205.089 139.726 205.089 139.169 205.089 138.611C205.089 138.044 205.136 137.481 205.235 136.924C205.235 136.924 205.412 135.273 205.777 131.965C206.152 128.663 207.152 124.106 208.777 118.299C210.412 112.481 213.183 105.799 217.089 98.2571C219.699 93.1321 222.558 88.1529 225.673 83.3196C228.798 78.4758 232.287 74.0696 236.152 70.1112C240.011 66.1529 244.266 62.9654 248.923 60.5487C253.589 58.1321 258.714 56.83 264.298 56.6321ZM248.381 96.4446C248.381 96.4446 248.235 96.4237 247.944 96.3821C247.662 96.33 247.298 96.2987 246.839 96.2987C245.714 96.2987 244.152 96.5592 242.152 97.0696C240.152 97.5852 237.845 98.7258 235.235 100.486C232.636 102.252 229.964 104.903 227.214 108.445C224.475 111.986 221.85 116.83 219.339 122.965C217.558 127.34 216.298 131.351 215.548 134.986C214.808 138.611 214.444 141.913 214.444 144.882C214.444 149.726 215.277 153.497 216.944 156.195C218.621 158.887 220.631 160.471 222.964 160.945C223.339 161.038 223.704 161.09 224.069 161.09C224.444 161.09 224.819 161.09 225.194 161.09C229.569 161.09 233.735 159.268 237.694 155.632C241.652 152.007 245.49 146.84 249.214 140.132C252.464 134.372 254.782 129.09 256.173 124.299C257.574 119.497 258.277 115.231 258.277 111.507C258.277 106.955 257.365 103.398 255.548 100.84C253.74 98.2727 251.35 96.8092 248.381 96.4446Z" fill="#7A7D35"/>
</g>
</g>
<mask id="mask3_41_3" style="mask-type:luminance" maskUnits="userSpaceOnUse" x="37" y="141" width="321" height="283">
<path d="M357.333 141.333H37.3335V424H357.333V141.333Z" fill="white"/>
</mask>
<g mask="url(#mask3_41_3)">
<mask id="mask4_41_3" style="mask-type:luminance" maskUnits="userSpaceOnUse" x="37" y="144" width="181" height="191">
<path d="M37.9949 144H217.333V334.667H37.9949V144Z" fill="white"/>
</mask>
<g mask="url(#mask4_41_3)">
<path d="M202.196 154.802C205.748 155.552 208.957 157.427 211.821 160.427C214.681 163.427 216.113 167.552 216.113 172.802C216.113 173.275 216.113 173.796 216.113 174.364C216.113 174.921 216.061 175.484 215.967 176.052C215.217 182.234 212.868 188.468 208.925 194.76C204.993 201.041 199.889 207.062 193.613 212.822C187.332 218.588 180.16 223.812 172.092 228.489C170.967 238.062 169.582 247.718 167.946 257.468C166.306 267.218 164.035 276.031 161.134 283.906C157.936 292.432 153.665 300.187 148.321 307.177C142.988 314.161 136.894 319.854 130.05 324.26C125.175 327.453 119.55 329.869 113.175 331.51C106.8 333.145 100.847 333.968 95.3212 333.968C92.4983 333.968 89.4931 333.749 86.3004 333.322C83.1181 332.906 80.0764 332.281 77.1754 331.447C70.2275 329.281 63.7795 325.848 57.8212 321.156C51.8733 316.473 47.3108 310.718 44.1337 303.885C40.1858 295.161 38.217 285.552 38.217 275.052C38.217 263.609 40.5608 252.546 45.2587 241.864C47.3108 237.364 49.7014 232.958 52.4254 228.635C45.1025 221.333 40.9306 212.145 39.9045 201.072C39.8056 200.046 39.7379 199.067 39.6962 198.135C39.6545 197.192 39.6337 196.249 39.6337 195.302C39.6337 181.999 43.7587 170.937 52.0087 162.114C57.0608 156.588 63.3889 152.374 70.9879 149.468C78.5816 146.567 86.9723 145.114 96.1545 145.114H96.717C102.91 145.197 108.347 145.854 113.03 147.072C117.722 148.296 121.707 149.843 124.988 151.718C124.988 151.718 126.014 152.333 128.071 153.552C130.139 154.76 132.556 156.656 135.321 159.239C138.082 161.822 140.54 165.218 142.696 169.427C142.988 170.093 143.175 170.687 143.259 171.197C143.352 171.713 143.405 172.208 143.405 172.677C143.405 173.984 142.842 174.874 141.717 175.343C141.436 175.442 141.061 175.489 140.592 175.489C139.936 175.489 139.352 175.281 138.842 174.864C138.326 174.437 137.884 173.656 137.509 172.531C137.509 172.531 137.201 171.854 136.592 170.489C135.977 169.13 135.014 167.421 133.696 165.364C132.389 163.296 130.681 161.208 128.571 159.093C126.457 156.984 123.852 155.177 120.759 153.677C117.852 152.275 114.41 151.109 110.425 150.177C106.436 149.234 101.868 148.76 96.717 148.76H96.1545C87.5295 148.76 80.1441 150.104 74.0087 152.781C67.8681 155.447 62.4514 159.359 57.7587 164.51C50.0764 172.76 46.2379 183.124 46.2379 195.593C46.2379 196.15 46.2795 196.781 46.3629 197.489C46.4566 198.197 46.5556 199.302 46.6545 200.802C47.4045 209.802 50.4514 217.395 55.8004 223.572C62.3525 214.572 69.8525 207.213 78.3004 201.489C83.0764 198.213 88.3004 195.781 93.967 194.197C99.6441 192.604 105.113 191.802 110.363 191.802C116.082 191.802 121.196 192.739 125.696 194.614C131.222 196.947 135.415 200.838 138.28 206.281C141.139 211.713 142.571 218.135 142.571 225.552C142.571 226.208 142.571 226.838 142.571 227.447C142.571 228.062 142.519 228.739 142.425 229.489C142.144 232.395 141.722 235.249 141.155 238.052C144.623 237.025 147.998 235.859 151.28 234.552C154.556 233.234 157.79 231.822 160.988 230.322C161.264 228.447 161.519 226.645 161.759 224.906C161.993 223.171 162.201 221.416 162.384 219.635C163.227 211.859 164.332 204.546 165.696 197.697C167.056 190.854 168.623 184.572 170.405 178.864C172.28 172.864 174.764 168.088 177.863 164.531C180.957 160.963 184.285 158.38 187.842 156.781C191.41 155.187 194.832 154.385 198.113 154.385C199.613 154.385 200.972 154.525 202.196 154.802ZM121.321 197.552C119.54 196.802 117.686 196.291 115.759 196.01C113.842 195.734 111.946 195.593 110.071 195.593C104.165 195.593 98.3056 197.072 92.4879 200.031C86.6806 202.979 81.2014 206.984 76.0504 212.052C70.8941 217.109 66.2587 222.921 62.1337 229.489C62.4097 229.77 62.8264 230.093 63.3837 230.468C69.6754 235.067 76.7066 238.354 84.4879 240.322C92.2639 242.281 100.139 243.26 108.113 243.26C112.332 243.26 116.477 243.005 120.55 242.489C124.634 241.979 128.55 241.296 132.3 240.447L133.842 240.031C134.311 238.156 134.707 236.312 135.03 234.489C135.363 232.656 135.576 230.895 135.675 229.197C135.769 228.354 135.842 227.51 135.884 226.677C135.925 225.833 135.946 224.984 135.946 224.135C135.946 217.583 134.701 211.963 132.217 207.281C129.743 202.588 126.113 199.343 121.321 197.552ZM149.592 282.635C152.118 275.791 154.248 268.197 155.988 259.864C157.722 251.52 159.201 243.083 160.425 234.552C153.769 237.552 147.071 240.031 140.321 241.989C137.78 251.562 133.248 259.817 126.738 266.76C120.222 273.692 112.04 278.609 102.196 281.51C101.915 281.609 101.498 281.656 100.946 281.656C99.3473 281.656 98.4098 280.958 98.1337 279.552C98.1337 279.359 98.1025 279.218 98.0504 279.135C98.0087 279.041 97.9879 278.942 97.9879 278.843C97.9879 278.093 98.2431 277.442 98.7587 276.885C99.2691 276.317 100.186 275.937 101.509 275.739C102.811 275.463 105.123 274.718 108.446 273.51C111.78 272.291 115.28 270.13 118.946 267.031C122.222 264.13 125.009 260.635 127.3 256.552C129.602 252.468 131.457 248.275 132.863 243.968C124.79 245.843 116.217 246.781 107.134 246.781C98.592 246.781 90.1233 245.796 81.7379 243.822C73.3472 241.854 65.8733 238.666 59.3212 234.26C58.4722 235.76 57.6754 237.26 56.9254 238.76C56.1754 240.26 55.4254 241.812 54.6754 243.406C52.4254 248.38 50.7379 253.609 49.6129 259.093C48.4879 264.567 47.9254 270.072 47.9254 275.614C47.9254 280.572 48.3889 285.447 49.3212 290.239C50.2639 295.015 51.6754 299.468 53.5504 303.593C56.5504 309.968 60.1129 315.187 64.2379 319.26C68.3629 323.343 73.2379 326.093 78.8629 327.51C82.9879 328.536 86.9723 329.052 90.8212 329.052C97.2795 329.052 103.509 327.854 109.509 325.468C115.509 323.078 121.082 319.744 126.238 315.468C131.405 311.203 135.998 306.26 140.03 300.635C144.056 295.01 147.243 289.01 149.592 282.635ZM173.071 220.052L172.655 223.989C179.972 219.588 186.467 214.718 192.134 209.385C197.8 204.041 202.41 198.484 205.967 192.718C209.535 186.942 211.655 181.239 212.321 175.614C212.405 175.156 212.446 174.671 212.446 174.156C212.446 173.63 212.446 173.177 212.446 172.802C212.446 169.052 211.488 165.864 209.571 163.239C207.655 160.614 204.957 158.979 201.488 158.322C201.014 158.229 200.54 158.156 200.071 158.114C199.613 158.072 199.144 158.052 198.675 158.052C194.727 158.052 191.05 159.739 187.634 163.114C184.217 166.489 181.425 172.067 179.259 179.843C177.852 184.999 176.681 191.067 175.738 198.052C174.806 205.041 173.915 212.374 173.071 220.052Z" fill="#7A7D35"/>
</g>
<path d="M241.992 256.489C242.544 256.77 242.825 257.281 242.825 258.031C242.825 258.406 242.773 258.687 242.679 258.864C240.429 262.906 237.919 266.874 235.159 270.76C232.393 274.65 229.325 278.192 225.95 281.385C222.575 284.567 218.794 287.093 214.617 288.968C210.45 290.843 205.742 291.781 200.492 291.781C194.961 291.781 190.747 290.822 187.846 288.906C184.94 286.979 182.971 284.609 181.929 281.802C180.898 278.984 180.388 276.26 180.388 273.635C180.388 272.885 180.409 272.208 180.45 271.593C180.502 270.984 180.58 270.4 180.679 269.843C181.231 265.9 182.263 262.083 183.763 258.385C185.263 254.677 187.325 250.671 189.95 246.364C191.544 243.739 193.513 240.927 195.846 237.927C198.19 234.927 200.846 232.067 203.804 229.343C206.763 226.624 209.898 224.395 213.221 222.656C216.554 220.921 219.955 220.052 223.429 220.052C223.981 220.052 224.914 220.13 226.221 220.281C227.539 220.421 228.95 220.817 230.45 221.468C231.95 222.124 233.211 223.249 234.242 224.843C235.56 226.624 236.221 228.822 236.221 231.447C236.221 232.671 236.075 233.942 235.784 235.26C235.502 236.567 234.992 237.874 234.242 239.177C232.086 243.4 229.461 246.802 226.367 249.385C223.284 251.958 219.935 253.947 216.325 255.364C212.711 256.77 209.101 257.775 205.492 258.385C201.877 258.999 198.523 259.395 195.429 259.572C195.054 260.229 194.726 260.927 194.45 261.677C194.169 262.427 193.893 263.177 193.617 263.927C192.117 268.052 191.367 271.666 191.367 274.76C191.367 279.083 192.601 282.249 195.075 284.26C197.56 286.275 200.586 287.281 204.159 287.281H205.284C211.284 287.005 217.065 284.447 222.638 279.614C228.221 274.781 233.872 267.302 239.596 257.177C239.872 256.624 240.388 256.343 241.138 256.343C241.513 256.343 241.794 256.395 241.992 256.489ZM224.679 224.552C222.898 224.552 220.815 225.609 218.429 227.718C216.039 229.833 213.554 232.505 210.971 235.739C208.398 238.979 205.914 242.4 203.513 246.01C201.122 249.624 199.039 252.927 197.263 255.927C200.356 255.552 203.872 254.802 207.804 253.677C211.747 252.552 215.565 250.729 219.263 248.197C222.971 245.656 225.856 242.187 227.929 237.781C229.138 235.062 229.742 232.624 229.742 230.468C229.742 226.525 228.054 224.552 224.679 224.552Z" fill="#7A7D35"/>
<path d="M317.085 239.322C317.736 239.796 318.064 240.359 318.064 241.01C318.064 241.208 317.965 241.489 317.772 241.864C313.741 249.27 308.845 254.822 303.085 258.531C297.319 262.229 291.527 264.874 285.71 266.468C280.277 275.65 274.678 282.192 268.918 286.093C263.152 289.984 257.835 291.927 252.96 291.927C252.012 291.927 251.116 291.833 250.272 291.656C249.439 291.463 248.647 291.218 247.897 290.927C246.199 289.999 244.928 288.666 244.085 286.927C243.251 285.192 242.835 283.385 242.835 281.51C242.835 281.51 242.902 280.927 243.043 279.76C243.178 278.583 243.694 277.15 244.585 275.468C245.47 273.775 246.944 272.156 249.001 270.614C251.069 269.072 253.98 267.88 257.73 267.031C259.048 266.755 260.501 266.525 262.085 266.343C263.678 266.15 265.418 265.958 267.293 265.76C268.319 265.666 269.418 265.546 270.585 265.406C271.762 265.27 272.965 265.15 274.189 265.052C274.366 264.677 274.574 264.354 274.814 264.072C275.048 263.796 275.215 263.468 275.314 263.093C277.465 259.525 279.616 255.656 281.772 251.489C283.939 247.322 285.741 243.296 287.189 239.406C288.647 235.505 289.376 232.291 289.376 229.76C289.376 227.135 288.439 225.546 286.564 224.989C286.189 224.895 285.782 224.822 285.355 224.781C284.939 224.729 284.491 224.697 284.022 224.697C280.465 224.697 276.152 226.416 271.085 229.843C266.027 233.26 261.298 238.859 256.897 246.635L212.168 326.51H200.501L259.418 221.177H271.085L266.73 229.052C273.574 223.052 280.423 220.052 287.272 220.052C289.98 220.052 292.387 221.067 294.501 223.093C296.611 225.109 297.668 228.458 297.668 233.135C297.668 236.416 296.965 240.4 295.564 245.093C294.157 249.775 291.772 255.302 288.397 261.677C293.449 259.999 298.298 257.468 302.939 254.093C307.574 250.718 311.491 246.031 314.689 240.031C314.965 239.463 315.48 239.177 316.23 239.177C316.605 239.177 316.887 239.229 317.085 239.322ZM249.439 286.989C250.564 287.463 251.59 287.697 252.522 287.697C254.965 287.697 257.71 286.296 260.751 283.489C263.803 280.671 267.486 275.838 271.793 268.989L267.585 269.427C265.793 269.51 264.126 269.65 262.585 269.843C261.043 270.025 259.657 270.26 258.439 270.552C255.241 271.208 252.824 272.192 251.189 273.51C249.548 274.817 248.423 276.15 247.814 277.51C247.199 278.874 246.803 279.927 246.626 280.677C246.527 280.958 246.48 281.374 246.48 281.927C246.48 283.718 246.923 284.989 247.814 285.739C248.699 286.489 249.241 286.906 249.439 286.989Z" fill="#7A7D35"/>
<mask id="mask5_41_3" style="mask-type:luminance" maskUnits="userSpaceOnUse" x="297" y="184" width="60" height="108">
<path d="M297.333 184H356.964V292H297.333V184Z" fill="white"/>
</mask>
<g mask="url(#mask5_41_3)">
<path d="M352.37 221.177C353.589 221.177 354.204 221.791 354.204 223.01C354.204 224.234 353.589 224.843 352.37 224.843H333.954L316.224 257.052C313.599 261.927 311.464 266.171 309.829 269.781C308.188 273.38 307.131 276.401 306.662 278.843C306.662 279.026 306.641 279.234 306.599 279.468C306.558 279.708 306.537 279.963 306.537 280.239C306.537 281.562 306.912 283 307.662 284.552C308.412 286.093 309.813 287.052 311.87 287.427C312.146 287.51 312.62 287.552 313.287 287.552C314.87 287.552 316.714 287.109 318.829 286.218C320.938 285.333 323.167 283.713 325.516 281.364C328.516 278.562 331.396 275.093 334.162 270.968C336.922 266.843 339.62 262.437 342.245 257.739C342.521 257.187 343.037 256.906 343.787 256.906C344.162 256.906 344.443 256.958 344.641 257.052C345.193 257.427 345.474 257.989 345.474 258.739C345.474 259.114 345.433 259.395 345.349 259.573C342.433 264.729 339.308 269.791 335.974 274.76C332.652 279.734 329.068 283.838 325.224 287.073C321.391 290.312 317.172 291.927 312.579 291.927C307.98 291.927 304.297 290.755 301.537 288.406C298.771 286.062 297.391 282.635 297.391 278.135C297.391 275.51 297.902 272.51 298.933 269.135C299.959 265.76 301.599 262.062 303.849 258.031L322.412 224.843H310.891C309.667 224.843 309.058 224.234 309.058 223.01C309.058 221.791 309.667 221.177 310.891 221.177H324.391L344.349 185.323H356.037L336.058 221.177H352.37Z" fill="#7A7D35"/>
</g>
</g>
<mask id="mask6_41_3" style="mask-type:luminance" maskUnits="userSpaceOnUse" x="0" y="262" width="320" height="280">
<path d="M320 262.667H0V541.333H320V262.667Z" fill="white"/>
</mask>
<g mask="url(#mask6_41_3)">
<mask id="mask7_41_3" style="mask-type:luminance" maskUnits="userSpaceOnUse" x="0" y="318" width="103" height="109">
<path d="M0.5625 318.667H102.667V426.667H0.5625V318.667Z" fill="white"/>
</mask>
<g mask="url(#mask7_41_3)">
<path d="M77.5616 319.802C82.447 319.802 86.7387 320.708 90.4366 322.511C94.1293 324.302 96.8116 326.49 98.4783 329.073C99.5876 330.823 100.374 332.672 100.832 334.615C101.291 336.563 101.52 338.547 101.52 340.573C101.52 342.88 101.26 345.125 100.749 347.302C100.249 349.469 99.5824 351.469 98.7491 353.302C95.9835 359.219 92.4991 364.047 88.2908 367.781C84.0929 371.521 79.5043 374.568 74.5199 376.927C69.5304 379.276 64.4262 381.302 59.2074 383.011C53.9991 384.719 48.9679 386.406 44.1241 388.073C39.2751 389.74 34.9574 391.818 31.1658 394.302C27.2908 396.802 23.7804 399.672 20.6449 402.906C17.5043 406.13 14.8272 409.219 12.6033 412.177C14.3533 411.167 16.2699 410.339 18.3533 409.698C20.4366 409.047 22.671 408.719 25.0616 408.719H26.8741C30.1918 408.901 33.3012 409.479 36.2074 410.448C39.1241 411.417 41.8012 412.386 44.2491 413.344C46.6918 414.313 48.796 414.938 50.5616 415.219C51.197 415.313 51.796 415.365 52.3533 415.365C52.9054 415.365 53.4626 415.365 54.0199 415.365C58.7283 415.365 62.8116 414.162 66.2699 411.761C69.7387 409.36 72.0251 405.25 73.1241 399.427C73.3168 398.417 73.9626 397.906 75.0616 397.906C76.0876 398.281 76.6033 398.979 76.6033 399.99C75.671 404.797 73.9835 409.156 71.5408 413.073C69.0929 417 66.1137 420.12 62.6033 422.427C59.0876 424.729 55.2126 425.886 50.9783 425.886H50.1449C46.072 425.703 42.4887 424.896 39.3949 423.469C36.3116 422.037 33.447 420.625 30.8116 419.24C28.1866 417.849 25.4835 417.156 22.7074 417.156H21.6033C17.447 417.156 14.1033 417.729 11.5616 418.886C9.01994 420.037 7.17619 421.24 6.01994 422.49C4.8689 423.74 4.29077 424.552 4.29077 424.927C4.01473 425.662 3.50952 426.031 2.76994 426.031C2.67619 426.031 2.5616 426 2.4366 425.948C2.30119 425.906 2.1814 425.886 2.08244 425.886C1.4314 425.511 1.10327 424.912 1.10327 424.094C1.10327 423.813 1.13452 423.646 1.1866 423.594C1.22827 423.552 1.2491 423.479 1.2491 423.386C1.53036 422.828 2.2439 421.469 3.39494 419.302C4.55119 417.136 6.16577 414.458 8.2491 411.281C10.322 408.089 12.8324 404.74 15.7908 401.24C18.7491 397.729 22.1658 394.448 26.0408 391.406C29.1762 388.906 33.0304 386.485 37.6033 384.136C42.171 381.776 46.9679 379.443 51.9991 377.136C57.0408 374.833 61.9366 372.438 66.6866 369.948C71.447 367.448 75.6501 364.75 79.2908 361.844C82.9418 358.927 85.6449 355.714 87.3949 352.198C88.2283 350.547 88.9626 348.521 89.6033 346.115C90.2543 343.714 90.5824 341.219 90.5824 338.636C90.5824 337.985 90.5512 337.36 90.4991 336.761C90.4574 336.167 90.3949 335.589 90.3116 335.031C89.8376 332.271 88.6554 329.823 86.7699 327.698C84.8793 325.573 81.9001 324.276 77.8324 323.802H76.0408C72.6241 323.802 69.6449 324.339 67.1033 325.406C64.5616 326.464 62.4158 327.735 60.6658 329.219C58.9158 330.693 57.4835 332.073 56.3741 333.365C54.2491 335.948 52.6501 338.542 51.5824 341.136C50.5251 343.719 49.8585 345.61 49.5824 346.802C49.6762 346.802 49.7699 346.833 49.8533 346.886C49.947 346.927 50.046 346.948 50.1449 346.948C51.9887 347.781 52.9158 349.531 52.9158 352.198C52.9158 353.589 52.5876 354.927 51.9366 356.219C51.296 357.693 50.3533 358.875 49.1033 359.761C47.8533 360.636 46.6293 361.073 45.4366 361.073C44.7804 361.073 44.1762 360.938 43.6241 360.656C41.7751 359.823 40.8533 358.068 40.8533 355.386C40.8533 355.208 40.8741 354.979 40.9158 354.698C40.9679 354.422 40.9991 354.146 40.9991 353.865C41.2751 352.115 41.8533 349.833 42.7283 347.011C43.6033 344.193 44.8949 341.24 46.6033 338.156C48.3116 335.063 50.5043 332.172 53.1866 329.49C56.046 326.813 59.4366 324.526 63.3533 322.636C67.2804 320.75 72.0199 319.802 77.5616 319.802Z" fill="#7A7D35"/>
</g>
<path d="M157.748 321.177C161.165 322.292 163.654 324.511 165.227 327.844C166.795 331.167 167.581 335.271 167.581 340.156C167.581 346.438 166.378 353.594 163.977 361.636C161.587 369.667 158.269 377.74 154.019 385.865C147.087 399.063 139.81 409.005 132.185 415.698C124.571 422.391 116.935 425.74 109.269 425.74C106.045 425.74 102.904 425.188 99.8521 424.094C96.7115 422.886 94.3782 420.573 92.8521 417.156C91.3365 413.74 90.5813 409.542 90.5813 404.552C90.5813 398.276 91.7323 391.146 94.0396 383.156C96.3417 375.172 99.6698 367.068 104.019 358.844C110.852 345.927 118.191 336.193 126.04 329.636C133.883 323.083 141.644 319.802 149.31 319.802C152.253 319.802 155.066 320.261 157.748 321.177ZM144.602 379.761C148.852 371.177 152.269 362.896 154.852 354.906C157.435 346.922 158.727 340.25 158.727 334.886C158.727 331.943 158.258 329.5 157.331 327.552C156.415 325.61 154.894 324.406 152.769 323.948C152.394 323.854 152.019 323.781 151.644 323.74C151.279 323.698 150.873 323.677 150.415 323.677C146.816 323.677 142.915 325.386 138.706 328.802C134.508 332.219 130.238 337.026 125.894 343.219C121.56 349.401 117.357 356.646 113.29 364.948C109.133 373.448 105.81 381.625 103.31 389.469C100.821 397.318 99.5813 403.917 99.5813 409.261C99.5813 412.313 100.019 414.833 100.894 416.823C101.769 418.807 103.227 420.167 105.269 420.906C106.363 421.266 107.607 421.448 108.998 421.448C112.967 421.448 116.941 419.646 120.915 416.052C124.883 412.453 128.857 407.521 132.831 401.24C136.8 394.964 140.727 387.802 144.602 379.761Z" fill="#7A7D35"/>
<path d="M225.34 319.802C230.225 319.802 234.517 320.708 238.215 322.511C241.908 324.302 244.59 326.49 246.257 329.073C247.366 330.823 248.152 332.672 248.611 334.615C249.069 336.563 249.298 338.547 249.298 340.573C249.298 342.88 249.038 345.125 248.527 347.302C248.027 349.469 247.361 351.469 246.527 353.302C243.762 359.219 240.277 364.047 236.069 367.781C231.871 371.521 227.283 374.568 222.298 376.927C217.309 379.276 212.205 381.302 206.986 383.011C201.777 384.719 196.746 386.406 191.902 388.073C187.053 389.74 182.736 391.818 178.944 394.302C175.069 396.802 171.559 399.672 168.423 402.906C165.283 406.13 162.606 409.219 160.382 412.177C162.132 411.167 164.048 410.339 166.132 409.698C168.215 409.047 170.449 408.719 172.84 408.719H174.652C177.97 408.901 181.08 409.479 183.986 410.448C186.902 411.417 189.58 412.386 192.027 413.344C194.47 414.313 196.574 414.938 198.34 415.219C198.975 415.313 199.574 415.365 200.132 415.365C200.684 415.365 201.241 415.365 201.798 415.365C206.507 415.365 210.59 414.162 214.048 411.761C217.517 409.36 219.803 405.25 220.902 399.427C221.095 398.417 221.741 397.906 222.84 397.906C223.866 398.281 224.382 398.979 224.382 399.99C223.449 404.797 221.762 409.156 219.319 413.073C216.871 417 213.892 420.12 210.382 422.427C206.866 424.729 202.991 425.886 198.757 425.886H197.923C193.85 425.703 190.267 424.896 187.173 423.469C184.09 422.037 181.225 420.625 178.59 419.24C175.965 417.849 173.262 417.156 170.486 417.156H169.382C165.225 417.156 161.882 417.729 159.34 418.886C156.798 420.037 154.955 421.24 153.798 422.49C152.647 423.74 152.069 424.552 152.069 424.927C151.793 425.662 151.288 426.031 150.548 426.031C150.455 426.031 150.34 426 150.215 425.948C150.08 425.906 149.96 425.886 149.861 425.886C149.21 425.511 148.882 424.912 148.882 424.094C148.882 423.813 148.913 423.646 148.965 423.594C149.007 423.552 149.027 423.479 149.027 423.386C149.309 422.828 150.022 421.469 151.173 419.302C152.33 417.136 153.944 414.458 156.027 411.281C158.1 408.089 160.611 404.74 163.569 401.24C166.527 397.729 169.944 394.448 173.819 391.406C176.955 388.906 180.809 386.485 185.382 384.136C189.949 381.776 194.746 379.443 199.777 377.136C204.819 374.833 209.715 372.438 214.465 369.948C219.225 367.448 223.428 364.75 227.069 361.844C230.72 358.927 233.423 355.714 235.173 352.198C236.007 350.547 236.741 348.521 237.382 346.115C238.033 343.714 238.361 341.219 238.361 338.636C238.361 337.985 238.33 337.36 238.277 336.761C238.236 336.167 238.173 335.589 238.09 335.031C237.616 332.271 236.434 329.823 234.548 327.698C232.658 325.573 229.678 324.276 225.611 323.802H223.819C220.402 323.802 217.423 324.339 214.882 325.406C212.34 326.464 210.194 327.735 208.444 329.219C206.694 330.693 205.262 332.073 204.152 333.365C202.027 335.948 200.428 338.542 199.361 341.136C198.303 343.719 197.637 345.61 197.361 346.802C197.455 346.802 197.548 346.833 197.632 346.886C197.725 346.927 197.824 346.948 197.923 346.948C199.767 347.781 200.694 349.531 200.694 352.198C200.694 353.589 200.366 354.927 199.715 356.219C199.074 357.693 198.132 358.875 196.882 359.761C195.632 360.636 194.408 361.073 193.215 361.073C192.559 361.073 191.955 360.938 191.402 360.656C189.553 359.823 188.632 358.068 188.632 355.386C188.632 355.208 188.652 354.979 188.694 354.698C188.746 354.422 188.777 354.146 188.777 353.865C189.053 352.115 189.632 349.833 190.507 347.011C191.382 344.193 192.673 341.24 194.382 338.156C196.09 335.063 198.283 332.172 200.965 329.49C203.824 326.813 207.215 324.526 211.132 322.636C215.059 320.75 219.798 319.802 225.34 319.802Z" fill="#7A7D35"/>
<path d="M297.089 319.094H298.339C302.948 319.094 306.683 319.927 309.547 321.594C312.407 323.261 314.532 325.438 315.922 328.115C317.308 330.781 318.006 333.688 318.006 336.823C318.006 340.896 316.985 344.865 314.943 348.74C314.303 349.948 313.474 350.88 312.464 351.531C311.448 352.172 310.428 352.49 309.402 352.49C308.579 352.49 307.844 352.302 307.193 351.927C305.803 351.094 305.11 349.667 305.11 347.636C305.11 346.167 305.527 344.735 306.36 343.344C307.745 341.219 309.365 340.021 311.214 339.74C311.849 338.073 312.172 336.177 312.172 334.052C312.172 331.292 311.266 328.802 309.464 326.594C307.672 324.375 304.61 323.125 300.277 322.844H299.152C297.219 322.844 294.891 323.38 292.172 324.448C289.448 325.505 286.308 327.563 282.756 330.615C279.198 333.656 275.204 338.219 270.777 344.302C268.735 347.084 266.599 350.526 264.381 354.636C262.172 358.735 260.099 362.865 258.172 367.031C260.016 364.63 262.391 362.255 265.297 359.906C268.198 357.547 271.636 356 275.61 355.261C277.454 354.985 279.261 354.844 281.027 354.844C286.37 355.026 290.428 356.339 293.193 358.781C295.969 361.229 297.912 363.839 299.027 366.615C300.219 369.563 300.818 373.115 300.818 377.281C300.818 381.24 300.193 385.511 298.943 390.094C297.704 394.667 295.839 399.209 293.339 403.719C288.823 411.662 283.516 417.412 277.422 420.969C271.323 424.521 265.089 426.302 258.714 426.302C255.849 426.302 253.131 425.792 250.547 424.781C245.74 422.834 242.277 419 240.152 413.281C239.511 411.615 239.053 409.839 238.777 407.948C238.495 406.063 238.36 404.104 238.36 402.073C238.36 401.521 238.36 400.964 238.36 400.406C238.36 399.854 238.407 399.297 238.506 398.74C238.506 398.74 238.683 397.104 239.047 393.823C239.422 390.547 240.412 386.026 242.027 380.261C243.652 374.485 246.402 367.86 250.277 360.386C252.86 355.302 255.693 350.365 258.777 345.573C261.87 340.771 265.339 336.401 269.172 332.469C273.006 328.542 277.224 325.38 281.839 322.99C286.464 320.589 291.547 319.292 297.089 319.094ZM281.297 358.573C281.297 358.573 281.157 358.552 280.881 358.511C280.599 358.459 280.235 358.427 279.777 358.427C278.662 358.427 277.115 358.688 275.131 359.198C273.141 359.714 270.86 360.844 268.277 362.594C265.693 364.344 263.037 366.979 260.318 370.49C257.594 373.99 254.985 378.792 252.485 384.886C250.735 389.235 249.485 393.209 248.735 396.802C247.995 400.401 247.631 403.677 247.631 406.636C247.631 411.438 248.464 415.177 250.131 417.844C251.797 420.521 253.782 422.094 256.089 422.552C256.464 422.646 256.829 422.698 257.193 422.698C257.568 422.698 257.933 422.698 258.297 422.698C262.641 422.698 266.777 420.896 270.693 417.302C274.62 413.703 278.433 408.584 282.131 401.927C285.349 396.209 287.657 390.969 289.047 386.219C290.433 381.459 291.131 377.229 291.131 373.531C291.131 369.005 290.224 365.479 288.422 362.948C286.631 360.406 284.256 358.948 281.297 358.573Z" fill="#7A7D35"/>
</g>
</svg>
